{
.appVersion = "1361";
copyright = "Copyright 2014-2017 Indian Type Foundry (info@indiantypefoundry.com) with Reserved Font Name 'Poppins'. Copyright 2019 Google LLC.";
customParameters = (
{
name = unicodeRanges;
value = (
0,
1,
2,
3,
5,
31,
32,
33,
35,
36,
38,
45,
60,
62
);
},
{
name = fsType;
value = (
);
},
{
name = "Enforce Compatibility Check";
value = 1;
},
{
name = "Use Typo Metrics";
value = 1;
},
{
name = license;
value = "This Font Software is licensed under the SIL Open Font License, Version 1.1. This license is available with a FAQ at: http://scripts.sil.org/OFL";
},
{
name = licenseURL;
value = "http://scripts.sil.org/OFL";
},
{
name = vendorID;
value = GOOG;
},
{
name = Axes;
value = (
{
Name = "Optical size";
Tag = opsz;
},
{
Name = Weight;
Tag = wght;
}
);
}
);
date = "2023-05-04 08:42:24 +0000";
designer = "Colophon Foundry, Jonny Pinhorn";
designerURL = "https://www.indiantypefoundry.com";
familyName = "DM Sans";
featurePrefixes = (
{
automatic = 1;
code = "languagesystem DFLT dflt;\012\012languagesystem latn dflt;\012languagesystem latn AZE;\012languagesystem latn CRT;\012languagesystem latn KAZ;\012languagesystem latn TAT;\012languagesystem latn TRK;\012languagesystem latn ROM;\012languagesystem latn MOL;\012languagesystem latn CAT;\012";
name = Languagesystems;
}
);
features = (
{
automatic = 1;
code = "feature locl;\012feature sups;\012feature numr;\012feature dnom;\012feature frac;\012feature ordn;\012feature calt;\012feature salt;\012feature ss01;\012feature ss02;\012feature ss03;\012feature ss04;\012feature ss05;\012feature ss06;\012feature ss07;\012feature ss08;\012";
name = aalt;
},
{
automatic = 1;

glyphs = (
{
glyphname = A;
lastChange = "2023-05-19 14:07:26 +0000";
layers = (
{
anchors = (
{
name = ogonek;
position = "{566, 0}";
},
{
name = top;
position = "{302, 700}";
}
);
layerId = "EB62C368-BB48-47C0-A466-DA94204A0DE4";
paths = (
{
closed = 1;
nodes = (
"57 0 LINE",
"303 678 LINE",
"303 678 LINE",
"544 0 LINE",
"566 0 LINE",
"315 700 LINE",
"291 700 LINE",
"36 0 LINE"
);
},
{
closed = 1;
nodes = (
"469 256 LINE",
"460 274 LINE",
"144 274 LINE",
"135 256 LINE"
);
}
);
width = 601;
},
{
anchors = (
{
name = ogonek;
position = "{635, 0}";
},
{
name = top;
position = "{334, 700}";
}
);
layerId = "A6F5E7A4-47EF-4F55-BF18-0ACACB57A720";
paths = (
{
closed = 1;
nodes = (
"119 0 LINE",
"333 595 LINE",
"333 595 LINE",
"545 0 LINE",
"635 0 LINE",
"378 700 LINE",
"289 700 LINE",
"31 0 LINE"
);
},
{
closed = 1;
nodes = (
"514 180 LINE",
"490 248 LINE",
"173 248 LINE",
"149 180 LINE"
);
}
);
width = 665;
},
{
anchors = (
{
name = ogonek;
position = "{726, 0}";
},
{
name = top;
position = "{373, 700}";
}
);
layerId = "1615C59E-33DE-4B88-B2CC-A48C7D56A125";
paths = (
{
closed = 1;
nodes = (
"199 0 LINE",
"372 511 LINE",
"372 511 LINE",
"545 0 LINE",
"726 0 LINE",
"472 700 LINE",
"274 700 LINE",
"20 0 LINE"
);
},
{
closed = 1;
nodes = (
"600 144 LINE",
"557 276 LINE",
"173 276 LINE",
"129 144 LINE"
);
}
);
width = 746;
},
{
anchors = (
{
name = ogonek;
position = "{623, 0}";
},
{
name = top;
position = "{330, 700}";
}
);
layerId = "2D111E5E-352D-4630-9162-BCEF010D26CF";
paths = (
{
closed = 1;
nodes = (
"108 0 LINE",
"329 612 LINE",
"329 612 LINE",
"549 0 LINE",
"623 0 LINE",
"367 700 LINE",
"292 700 LINE",
"35 0 LINE"
);
},
{
closed = 1;
nodes = (
"507 197 LINE",
"486 254 LINE",
"169 254 LINE",
"149 197 LINE"
);
}
);
width = 658;
},
{
anchors = (
{
name = ogonek;
position = "{535, 0}";
},
{
name = top;
position = "{271, 700}";
}
);
layerId = "5D382461-81E1-4DF2-8677-8A6F02AD5363";
paths = (
{
closed = 1;
nodes = (
"26 0 LINE",
"270 670 LINE",
"274 670 LINE",
"514 0 LINE",
"535 0 LINE",
"284 700 LINE",
"260 700 LINE",
"5 0 LINE"
);
},
{
closed = 1;
nodes = (
"438 256 LINE",
"429 274 LINE",
"113 274 LINE",
"104 256 LINE"
);
}
);
width = 540;
},
{
anchors = (
{
name = ogonek;
position = "{593, 0}";
},
{
name = top;
position = "{299, 700}";
}
);
layerId = "3B8883BF-F483-4B97-AC7C-CABF8B821093";
paths = (
{
closed = 1;
nodes = (
"79 0 LINE",
"299 654 LINE",
"303 654 LINE",
"519 0 LINE",
"593 0 LINE",
"356 700 LINE",
"247 700 LINE",
"5 0 LINE"
);
},
{
closed = 1;
nodes = (
"473 224 LINE",
"452 282 LINE",
"146 282 LINE",
"125 224 LINE"
);
}
);
width = 598;
},
{
anchors = (
{
name = ogonek;
position = "{609, 0}";
},
{
name = top;
position = "{307, 700}";
}
);
layerId = "F5F01D5B-AEA3-4AC3-B3D8-92550D1582D7";
paths = (
{
closed = 1;
nodes = (
"93 0 LINE",
"307 638 LINE",
"311 638 LINE",
"520 0 LINE",
"609 0 LINE",
"374 700 LINE",
"244 700 LINE",
"5 0 LINE"
);
},
{
closed = 1;
nodes = (
"488 219 LINE",
"464 287 LINE",
"147 287 LINE",
"123 219 LINE"
);
}
);
width = 614;
},
{
anchors = (
{
name = ogonek;
position = "{711, 0}";
},
{
name = top;
position = "{358, 700}";
}
);
layerId = "A390C1A2-E540-434D-BB9E-4BCEE875BA63";
paths = (
{
closed = 1;
nodes = (
"184 0 LINE",
"356 609 LINE",
"360 609 LINE",
"530 0 LINE",
"711 0 LINE",
"501 700 LINE",
"215 700 LINE",
"5 0 LINE"
);
},
{
closed = 1;
nodes = (
"585 188 LINE",
"542 320 LINE",
"158 320 LINE",
"114 188 LINE"
);
}
);
width = 716;
},
{
anchors = (
{
name = ogonek;
position = "{620, 0}";
},
{
name = top;
position = "{327, 700}";
}
);
color = -1;
layerId = "12552169-0282-4A31-82CC-880002E60A2C";
paths = (
{
closed = 1;
nodes = (
"106 0 LINE",
"326 607 LINE",
"326 607 LINE",
"546 0 LINE",
"620 0 LINE",
"362 700 LINE",
"291 700 LINE",
"32 0 LINE"
);
},
{
closed = 1;
nodes = (
"500 186 LINE",
"479 244 LINE",
"173 244 LINE",
"152 186 LINE"
);
}
);
width = 652;
},
{
anchors = (
{
name = ogonek;
position = "{634, 0}";
},
{
name = top;
position = "{333, 700}";
}
);
color = -1;
layerId = "44982FF8-7820-4F75-948C-97259056F879";
paths = (
{
closed = 1;
nodes = (
"118 0 LINE",
"332 595 LINE",
"332 595 LINE",
"545 0 LINE",
"634 0 LINE",
"377 700 LINE",
"288 700 LINE",
"30 0 LINE"
);
},
{
closed = 1;
nodes = (
"513 180 LINE",
"489 248 LINE",
"172 248 LINE",
"148 180 LINE"
);
}
);
width = 664;
},
{
anchors = (
{
name = ogonek;
position = "{722, 0}";
},
{
name = top;
position = "{369, 700}";
}
);
color = -1;
layerId = "84B0614D-4B2F-419D-B7F2-5B7DD4CAD23C";
paths = (
{
closed = 1;
nodes = (
"195 0 LINE",
"368 511 LINE",
"368 511 LINE",
"541 0 LINE",
"722 0 LINE",
"468 700 LINE",
"270 700 LINE",
"16 0 LINE"
);
},
{
closed = 1;
nodes = (
"596 144 LINE",
"553 276 LINE",
"169 276 LINE",
"125 144 LINE"
);
}
);
width = 738;
},
{
anchors = (
{
name = ogonek;
position = "{562, 0}";
},
{
name = top;
position = "{298, 700}";
}
);
layerId = "90D50F69-F6F7-4633-9462-ED0440D3064F";
paths = (
{
closed = 1;
nodes = (
"53 0 LINE",
"299 676 LINE",
"299 676 LINE",
"541 0 LINE",
"562 0 LINE",
"311 700 LINE",
"287 700 LINE",
"32 0 LINE"
);
},
{
closed = 1;
nodes = (
"465 256 LINE",
"456 274 LINE",
"140 274 LINE",
"131 256 LINE"
);
}
);
width = 594;
}
);
leftKerningGroup = A;
rightKerningGroup = A;
unicode = 0041;
userData = {
com.schriftgestaltung.Glyphs.ColorIndex = 4;
com.typesupply.AccentFactory.yCoordinates = {
bottom = {
name = origin;
type = glyphMetric;
};
top = {
name = capHeight;
type = fontInfo;
};
};
};
},
{
glyphname = AE;
lastChange = "2023-05-19 14:07:26 +0000";
layers = (
{
anchors = (
{
name = bottom;
position = "{546, 0}";
},
{
name = top;
position = "{546, 700}";
}
);
layerId = "EB62C368-BB48-47C0-A466-DA94204A0DE4";
paths = (
{
closed = 1;
nodes = (
"57 0 LINE",
"469 670 LINE",
"469 670 LINE",
"469 0 LINE",
"804 0 LINE",
"804 18 LINE",
"489 18 LINE",
"489 340 LINE",
"774 340 LINE",
"774 358 LINE",
"489 358 LINE",
"489 682 LINE",
"804 682 LINE",
"804 700 LINE",
"465 700 LINE",
"36 0 LINE"
);
},
{
closed = 1;
nodes = (
"476 189 LINE",
"476 207 LINE",
"171 207 LINE",
"163 189 LINE"
);
}
);
width = 861;
},
{
anchors = (
{
name = bottom;
position = "{546, 0}";
},
{
name = top;
position = "{546, 700}";
}
);
layerId = "A6F5E7A4-47EF-4F55-BF18-0ACACB57A720";
paths = (
{
closed = 1;
nodes = (
"123 0 LINE",
"482 631 LINE",
"482 631 LINE",
"482 0 LINE",
"855 0 LINE",
"855 67 LINE",
"566 67 LINE",
"566 320 LINE",
"825 320 LINE",
"825 386 LINE",
"566 386 LINE",
"566 633 LINE",
"855 633 LINE",
"855 700 LINE",
"430 700 LINE",
"31 0 LINE"
);
},
{
closed = 1;
nodes = (
"521 159 LINE",
"521 226 LINE",
"202 226 LINE",
"167 159 LINE"
);
}
);
width = 914;
},
{
anchors = (
{
name = bottom;
position = "{546, 0}";
},
{
name = top;
position = "{546, 700}";
}
);
layerId = "1615C59E-33DE-4B88-B2CC-A48C7D56A125";
paths = (
{
closed = 1;
nodes = (
"205 0 LINE",
"496 573 LINE",
"496 573 LINE",
"496 0 LINE",
"920 0 LINE",
"920 135 LINE",
"667 135 LINE",
"667 293 LINE",
"890 293 LINE",
"890 423 LINE",
"667 423 LINE",
"667 565 LINE",
"920 565 LINE",
"920 700 LINE",
"379 700 LINE",
"20 0 LINE"
);
},
{
closed = 1;
nodes = (
"578 118 LINE",
"578 248 LINE",
"240 248 LINE",
"168 118 LINE"
);
}
);
width = 975;
},
{
anchors = (
{
name = bottom;
position = "{546, 0}";
},
{
name = top;
position = "{546, 700}";
}
);
layerId = "2D111E5E-352D-4630-9162-BCEF010D26CF";
paths = (
{
closed = 1;
nodes = (
"112 0 LINE",
"482 640 LINE",
"482 640 LINE",
"482 0 LINE",
"847 0 LINE",
"847 56 LINE",
"552 56 LINE",
"552 324 LINE",
"817 324 LINE",
"817 380 LINE",
"552 380 LINE",
"552 644 LINE",
"847 644 LINE",
"847 700 LINE",
"441 700 LINE",
"35 0 LINE"
);
},
{
closed = 1;
nodes = (
"514 166 LINE",
"514 223 LINE",
"198 223 LINE",
"169 166 LINE"
);
}
);
width = 908;
},
{
anchors = (
{
name = bottom;
position = "{546, 0}";
},
{
name = top;
position = "{546, 700}";
}
);
layerId = "5D382461-81E1-4DF2-8677-8A6F02AD5363";
paths = (
{
closed = 1;
nodes = (
"26 0 LINE",
"434 682 LINE",
"438 682 LINE",
"438 0 LINE",
"773 0 LINE",
"773 18 LINE",
"458 18 LINE",
"458 340 LINE",
"743 340 LINE",
"743 358 LINE",
"458 358 LINE",
"458 682 LINE",
"773 682 LINE",
"773 700 LINE",
"422 700 LINE",
"5 0 LINE"
);
},
{
closed = 1;
nodes = (
"446 256 LINE",
"446 274 LINE",
"180 274 LINE",
"171 256 LINE"
);
}
);
width = 803;
},
{
anchors = (
{
name = bottom;
position = "{546, 0}";
},
{
name = top;
position = "{546, 700}";
}
);
layerId = "3B8883BF-F483-4B97-AC7C-CABF8B821093";
paths = (
{
closed = 1;
nodes = (
"82 0 LINE",
"448 644 LINE",
"452 644 LINE",
"452 0 LINE",
"817 0 LINE",
"817 56 LINE",
"522 56 LINE",
"522 324 LINE",
"787 324 LINE",
"787 380 LINE",
"522 380 LINE",
"522 644 LINE",
"817 644 LINE",
"817 700 LINE",
"411 700 LINE",
"5 0 LINE"
);
},
{
closed = 1;
nodes = (
"513 224 LINE",
"492 282 LINE",
"186 282 LINE",
"165 224 LINE"
);
}
);
width = 847;
},
{
anchors = (
{
name = bottom;
position = "{546, 0}";
},
{
name = top;
position = "{546, 700}";
}
);
layerId = "F5F01D5B-AEA3-4AC3-B3D8-92550D1582D7";
paths = (
{
closed = 1;
nodes = (
"97 0 LINE",
"452 633 LINE",
"456 633 LINE",
"456 0 LINE",
"829 0 LINE",
"829 67 LINE",
"540 67 LINE",
"540 320 LINE",
"799 320 LINE",
"799 386 LINE",
"540 386 LINE",
"540 633 LINE",
"829 633 LINE",
"829 700 LINE",
"404 700 LINE",
"5 0 LINE"
);
},
{
closed = 1;
nodes = (
"528 219 LINE",
"504 287 LINE",
"187 287 LINE",
"163 219 LINE"
);
}
);
width = 859;
},
{
anchors = (
{
name = bottom;
position = "{546, 0}";
},
{
name = top;
position = "{546, 700}";
}
);
layerId = "A390C1A2-E540-434D-BB9E-4BCEE875BA63";
paths = (
{
closed = 1;
nodes = (
"190 0 LINE",
"477 573 LINE",
"481 573 LINE",
"481 0 LINE",
"905 0 LINE",
"905 135 LINE",
"652 135 LINE",
"652 293 LINE",
"875 293 LINE",
"875 423 LINE",
"652 423 LINE",
"652 565 LINE",
"905 565 LINE",
"905 700 LINE",
"364 700 LINE",
"5 0 LINE"
);
},
{
closed = 1;
nodes = (
"585 144 LINE",
"542 276 LINE",
"158 276 LINE",
"114 144 LINE"
);
}
);
width = 935;
},
{
anchors = (
{
name = bottom;
position = "{462, 0}";
},
{
name = top;
position = "{562, 700}";
}
);
color = -1;
layerId = "12552169-0282-4A31-82CC-880002E60A2C";
paths = (
{
closed = 1;
nodes = (
"109 0 LINE",
"479 640 LINE",
"479 640 LINE",
"479 0 LINE",
"844 0 LINE",
"844 56 LINE",
"549 56 LINE",
"549 324 LINE",
"814 324 LINE",
"814 380 LINE",
"549 380 LINE",
"549 644 LINE",
"844 644 LINE",
"844 700 LINE",
"438 700 LINE",
"32 0 LINE"
);
},
{
closed = 1;
nodes = (
"511 166 LINE",
"511 222 LINE",
"195 222 LINE",
"166 166 LINE"
);
}
);
width = 902;
},
{
anchors = (
{
name = bottom;
position = "{466, 0}";
},
{
name = top;
position = "{566, 700}";
}
);
color = -1;
layerId = "44982FF8-7820-4F75-948C-97259056F879";
paths = (
{
closed = 1;
nodes = (
"122 0 LINE",
"481 631 LINE",
"481 631 LINE",
"481 0 LINE",
"854 0 LINE",
"854 67 LINE",
"565 67 LINE",
"565 320 LINE",
"824 320 LINE",
"824 386 LINE",
"565 386 LINE",
"565 633 LINE",
"854 633 LINE",
"854 700 LINE",
"429 700 LINE",
"30 0 LINE"
);
},
{
closed = 1;
nodes = (
"520 159 LINE",
"520 226 LINE",
"201 226 LINE",
"166 159 LINE"
);
}
);
width = 911;
},
{
anchors = (
{
name = bottom;
position = "{488, 0}";
},
{
name = top;
position = "{588, 700}";
}
);
color = -1;
layerId = "84B0614D-4B2F-419D-B7F2-5B7DD4CAD23C";
paths = (
{
closed = 1;
nodes = (
"201 0 LINE",
"492 573 LINE",
"492 573 LINE",
"492 0 LINE",
"916 0 LINE",
"916 135 LINE",
"663 135 LINE",
"663 293 LINE",
"886 293 LINE",
"886 423 LINE",
"663 423 LINE",
"663 565 LINE",
"916 565 LINE",
"916 700 LINE",
"375 700 LINE",
"16 0 LINE"
);
},
{
closed = 1;
nodes = (
"574 118 LINE",
"574 248 LINE",
"236 248 LINE",
"164 118 LINE"
);
}
);
width = 966;
},
{
anchors = (
{
name = bottom;
position = "{573, 0}";
},
{
name = top;
position = "{573, 700}";
}
);
layerId = "90D50F69-F6F7-4633-9462-ED0440D3064F";
paths = (
{
closed = 1;
nodes = (
"53 0 LINE",
"465 668 LINE",
"465 668 LINE",
"465 0 LINE",
"800 0 LINE",
"800 18 LINE",
"485 18 LINE",
"485 340 LINE",
"770 340 LINE",
"770 358 LINE",
"485 358 LINE",
"485 682 LINE",
"800 682 LINE",
"800 700 LINE",
"463 700 LINE",
"32 0 LINE"
);
},
{
closed = 1;
nodes = (
"473 256 LINE",
"473 274 LINE",
"207 274 LINE",
"198 256 LINE"
);
}
);
width = 858;
}
);
leftKerningGroup = AE;
leftMetricsKey = A;
rightKerningGroup = E;
rightMetricsKey = E;
unicode = 00C6;
userData = {
com.schriftgestaltung.Glyphs.ColorIndex = 4;
com.typemytype.robofont.layerData = {
b = {
anchors = (
);
components = (
);
contours = (
{
points = (
{
segmentType = line;
smooth = 0;
x = 138;
y = 183;
},
{
segmentType = line;
smooth = 0;
x = 449;
y = 183;
},
{
segmentType = line;
smooth = 0;
x = 449;
y = 202;
},
{
segmentType = line;
smooth = 0;
x = 149;
y = 202;
}
);
},
{
points = (
{
segmentType = line;
smooth = 0;
x = 757;
y = 663;
},
{
segmentType = line;
smooth = 0;
x = 757;
y = 683;
},
{
segmentType = line;
smooth = 0;
x = 442;
y = 683;
},
{
segmentType = line;
smooth = 0;
x = 11;
y = 0;
},
{
segmentType = line;
smooth = 0;
x = 32;
y = 0;
},
{
segmentType = line;
smooth = 0;
x = 443;
y = 658;
},
{
segmentType = line;
smooth = 0;
x = 443;
y = 0;
},
{
segmentType = line;
smooth = 0;
x = 757;
y = 0;
},
{
segmentType = line;
smooth = 0;
x = 757;
y = 19;
},
{
segmentType = line;
smooth = 0;
x = 463;
y = 19;
},
{
segmentType = line;
smooth = 0;
x = 463;
y = 332;
},
{
segmentType = line;
smooth = 0;
x = 727;
y = 332;
},
{
segmentType = line;
smooth = 0;
x = 727;
y = 351;
},
{
segmentType = line;
smooth = 0;
x = 463;
y = 351;
},
{
segmentType = line;
smooth = 0;
x = 463;
y = 663;
}
);
}
);
lib = {
};
name = AE;
unicodes = (
);
width = 837;
};
};
com.typesupply.AccentFactory.yCoordinates = {
bottom = {
name = origin;
type = glyphMetric;
};
top = {
name = capHeight;
type = fontInfo;
};
};
};
},
{
glyphname = B;
lastChange = "2023-05-19 14:07:26 +0000";
layers = (
{
layerId = "EB62C368-BB48-47C0-A466-DA94204A0DE4";
paths = (
{
closed = 1;
nodes = (
"278 0 LINE SMOOTH",
"446 0 OFFCURVE",
"499 93 OFFCURVE",
"499 191 CURVE SMOOTH",
"499 291 OFFCURVE",
"410 362 OFFCURVE",
"324 364 CURVE",
"324 355 LINE",
"401 367 OFFCURVE",
"483 414 OFFCURVE",
"483 528 CURVE SMOOTH",
"483 618 OFFCURVE",
"422 700 OFFCURVE",
"273 700 CURVE SMOOTH",
"78 700 LINE",
"78 0 LINE"
);
},
{
closed = 1;
nodes = (
"98 352 LINE",
"282 352 LINE SMOOTH",
"401 352 OFFCURVE",
"476 285 OFFCURVE",
"476 190 CURVE SMOOTH",
"476 83 OFFCURVE",
"406 20 OFFCURVE",
"287 20 CURVE SMOOTH",
"98 20 LINE"
);
},
{
closed = 1;
nodes = (
"98 682 LINE",
"283 682 LINE SMOOTH",
"393 682 OFFCURVE",
"461 616 OFFCURVE",
"461 528 CURVE SMOOTH",
"461 435 OFFCURVE",
"398 372 OFFCURVE",
"286 372 CURVE SMOOTH",
"98 372 LINE"
);
}
);
width = 550;
},
{
layerId = "A6F5E7A4-47EF-4F55-BF18-0ACACB57A720";
paths = (
{
closed = 1;
nodes = (
"331 0 LINE SMOOTH",
"478 0 OFFCURVE",
"558 84 OFFCURVE",
"558 191 CURVE SMOOTH",
"558 287 OFFCURVE",
"482 362 OFFCURVE",
"392 364 CURVE",
"378 354 LINE",
"462 362 OFFCURVE",
"542 414 OFFCURVE",
"542 522 CURVE SMOOTH",
"542 622 OFFCURVE",
"470 700 OFFCURVE",
"323 700 CURVE SMOOTH",
"77 700 LINE",
"77 0 LINE"
);
},
{
closed = 1;
nodes = (
"161 327 LINE",
"320 327 LINE SMOOTH",
"414 327 OFFCURVE",
"472 276 OFFCURVE",
"472 197 CURVE SMOOTH",
"472 117 OFFCURVE",
"417 70 OFFCURVE",
"322 70 CURVE SMOOTH",
"161 70 LINE"
);
},
{
closed = 1;
nodes = (
"161 630 LINE",
"314 630 LINE SMOOTH",
"409 630 OFFCURVE",
"456 584 OFFCURVE",
"456 513 CURVE SMOOTH",
"456 439 OFFCURVE",
"407 394 OFFCURVE",
"317 394 CURVE SMOOTH",
"161 394 LINE"
);
}
);
width = 606;
},
{
layerId = "1615C59E-33DE-4B88-B2CC-A48C7D56A125";
paths = (
{
closed = 1;
nodes = (
"399 0 LINE SMOOTH",
"547 0 OFFCURVE",
"632 75 OFFCURVE",
"632 191 CURVE SMOOTH",
"632 281 OFFCURVE",
"565 360 OFFCURVE",
"466 364 CURVE",
"449 352 LINE",
"541 358 OFFCURVE",
"616 414 OFFCURVE",
"616 518 CURVE SMOOTH",
"616 629 OFFCURVE",
"531 700 OFFCURVE",
"388 700 CURVE SMOOTH",
"72 700 LINE",
"72 0 LINE"
);
},
{
closed = 1;
nodes = (
"243 293 LINE",
"367 293 LINE SMOOTH",
"424 293 OFFCURVE",
"459 264 OFFCURVE",
"459 214 CURVE SMOOTH",
"459 164 OFFCURVE",
"426 138 OFFCURVE",
"369 138 CURVE SMOOTH",
"243 138 LINE"
);
},
{
closed = 1;
nodes = (
"243 565 LINE",
"355 565 LINE SMOOTH",
"411 565 OFFCURVE",
"442 539 OFFCURVE",
"442 491 CURVE SMOOTH",
"442 443 OFFCURVE",
"411 418 OFFCURVE",
"355 418 CURVE SMOOTH",
"243 418 LINE"
);
}
);
width = 673;
},
{
layerId = "2D111E5E-352D-4630-9162-BCEF010D26CF";
paths = (
{
closed = 1;
nodes = (
"326.01 0 LINE SMOOTH",
"478 0 OFFCURVE",
"552 86 OFFCURVE",
"552 191 CURVE SMOOTH",
"552 288 OFFCURVE",
"473 362 OFFCURVE",
"384 364 CURVE",
"373 354 LINE",
"455 363 OFFCURVE",
"536 414 OFFCURVE",
"536 523 CURVE SMOOTH",
"536 621 OFFCURVE",
"466 700 OFFCURVE",
"319 700 CURVE SMOOTH",
"84 700 LINE",
"84 0 LINE"
);
},
{
closed = 1;
nodes = (
"154 332 LINE",
"318 332 LINE SMOOTH",
"418 332 OFFCURVE",
"480 278 OFFCURVE",
"480 195 CURVE SMOOTH",
"480 110 OFFCURVE",
"421 59 OFFCURVE",
"321 59 CURVE SMOOTH",
"154 59 LINE"
);
},
{
closed = 1;
nodes = (
"154 641 LINE",
"314 641 LINE SMOOTH",
"412 641 OFFCURVE",
"464 591 OFFCURVE",
"464 516 CURVE SMOOTH",
"464 438 OFFCURVE",
"412 389 OFFCURVE",
"317 389 CURVE SMOOTH",
"154 389 LINE"
);
}
);
width = 603;
},
{
layerId = "5D382461-81E1-4DF2-8677-8A6F02AD5363";
paths = (
{
closed = 1;
nodes = (
"245 0 LINE SMOOTH",
"413 0 OFFCURVE",
"466 93 OFFCURVE",
"466 191 CURVE SMOOTH",
"466 291 OFFCURVE",
"377 362 OFFCURVE",
"291 364 CURVE",
"291 355 LINE",
"368 367 OFFCURVE",
"450 414 OFFCURVE",
"450 528 CURVE SMOOTH",
"450 618 OFFCURVE",
"389 700 OFFCURVE",
"240 700 CURVE SMOOTH",
"45 700 LINE",
"45 0 LINE"
);
},
{
closed = 1;
nodes = (
"65 352 LINE",
"249 352 LINE SMOOTH",
"368 352 OFFCURVE",
"444 285 OFFCURVE",
"444 190 CURVE SMOOTH",
"444 83 OFFCURVE",
"374 20 OFFCURVE",
"254 20 CURVE SMOOTH",
"65 20 LINE"
);
},
{
closed = 1;
nodes = (
"65 682 LINE",
"250 682 LINE SMOOTH",
"361 682 OFFCURVE",
"428 616 OFFCURVE",
"428 528 CURVE SMOOTH",
"428 435 OFFCURVE",
"365 372 OFFCURVE",
"253 372 CURVE SMOOTH",
"65 372 LINE"
);
}
);
width = 496;
},
{
layerId = "3B8883BF-F483-4B97-AC7C-CABF8B821093";
paths = (
{
closed = 1;
nodes = (
"287 0 LINE SMOOTH",
"434 0 OFFCURVE",
"513 86 OFFCURVE",
"513 191 CURVE SMOOTH",
"513 288 OFFCURVE",
"436 362 OFFCURVE",
"347 364 CURVE",
"334 354 LINE",
"416 363 OFFCURVE",
"497 414 OFFCURVE",
"497 523 CURVE SMOOTH",
"497 621 OFFCURVE",
"427 700 OFFCURVE",
"280 700 CURVE SMOOTH",
"45 700 LINE",
"45 0 LINE"
);
},
{
closed = 1;
nodes = (
"115 332 LINE",
"279 332 LINE SMOOTH",
"379 332 OFFCURVE",
"441 278 OFFCURVE",
"441 194 CURVE SMOOTH",
"441 110 OFFCURVE",
"383 59 OFFCURVE",
"282 59 CURVE SMOOTH",
"115 59 LINE"
);
},
{
closed = 1;
nodes = (
"115 641 LINE",
"275 641 LINE SMOOTH",
"376 641 OFFCURVE",
"425 591 OFFCURVE",
"425 516 CURVE SMOOTH",
"425 438 OFFCURVE",
"373 390 OFFCURVE",
"278 390 CURVE SMOOTH",
"115 390 LINE"
);
}
);
width = 543;
},
{
layerId = "F5F01D5B-AEA3-4AC3-B3D8-92550D1582D7";
paths = (
{
closed = 1;
nodes = (
"299 0 LINE SMOOTH",
"446 0 OFFCURVE",
"526 84 OFFCURVE",
"526 191 CURVE SMOOTH",
"526 287 OFFCURVE",
"450 362 OFFCURVE",
"360 364 CURVE",
"346 354 LINE",
"430 362 OFFCURVE",
"510 414 OFFCURVE",
"510 522 CURVE SMOOTH",
"510 622 OFFCURVE",
"438 700 OFFCURVE",
"291 700 CURVE SMOOTH",
"45 700 LINE",
"45 0 LINE"
);
},
{
closed = 1;
nodes = (
"129 327 LINE",
"288 327 LINE SMOOTH",
"382 327 OFFCURVE",
"440 276 OFFCURVE",
"440 197 CURVE SMOOTH",
"440 117 OFFCURVE",
"385 70 OFFCURVE",
"290 70 CURVE SMOOTH",
"129 70 LINE"
);
},
{
closed = 1;
nodes = (
"129 630 LINE",
"282 630 LINE SMOOTH",
"377 630 OFFCURVE",
"424 584 OFFCURVE",
"424 513 CURVE SMOOTH",
"424 439 OFFCURVE",
"375 394 OFFCURVE",
"285 394 CURVE SMOOTH",
"129 394 LINE"
);
}
);
width = 556;
},
{
layerId = "A390C1A2-E540-434D-BB9E-4BCEE875BA63";
paths = (
{
closed = 1;
nodes = (
"372 0 LINE SMOOTH",
"520 0 OFFCURVE",
"605 75 OFFCURVE",
"605 191 CURVE SMOOTH",
"605 281 OFFCURVE",
"538 360 OFFCURVE",
"439 364 CURVE",
"422 352 LINE",
"514 358 OFFCURVE",
"589 414 OFFCURVE",
"589 518 CURVE SMOOTH",
"589 629 OFFCURVE",
"504 700 OFFCURVE",
"361 700 CURVE SMOOTH",
"45 700 LINE",
"45 0 LINE"
);
},
{
closed = 1;
nodes = (
"216 293 LINE",
"340 293 LINE SMOOTH",
"397 293 OFFCURVE",
"432 264 OFFCURVE",
"432 214 CURVE SMOOTH",
"432 164 OFFCURVE",
"399 138 OFFCURVE",
"342 138 CURVE SMOOTH",
"216 138 LINE"
);
},
{
closed = 1;
nodes = (
"216 565 LINE",
"328 565 LINE SMOOTH",
"384 565 OFFCURVE",
"415 539 OFFCURVE",
"415 491 CURVE SMOOTH",
"415 443 OFFCURVE",
"384 418 OFFCURVE",
"328 418 CURVE SMOOTH",
"216 418 LINE"
);
}
);
width = 635;
},
{
color = -1;
layerId = "12552169-0282-4A31-82CC-880002E60A2C";
paths = (
{
closed = 1;
nodes = (
"318 0 LINE SMOOTH",
"465 0 OFFCURVE",
"544 86 OFFCURVE",
"544 191 CURVE SMOOTH",
"544 288 OFFCURVE",
"467 362 OFFCURVE",
"378 364 CURVE",
"365 354 LINE",
"447 363 OFFCURVE",
"528 414 OFFCURVE",
"528 523 CURVE SMOOTH",
"528 621 OFFCURVE",
"458 700 OFFCURVE",
"311 700 CURVE SMOOTH",
"76 700 LINE",
"76 0 LINE"
);
},
{
closed = 1;
nodes = (
"146 332 LINE",
"310 332 LINE SMOOTH",
"410 332 OFFCURVE",
"472 278 OFFCURVE",
"472 194 CURVE SMOOTH",
"472 110 OFFCURVE",
"414 59 OFFCURVE",
"313 59 CURVE SMOOTH",
"146 59 LINE"
);
},
{
closed = 1;
nodes = (
"146 641 LINE",
"306 641 LINE SMOOTH",
"407 641 OFFCURVE",
"456 591 OFFCURVE",
"456 516 CURVE SMOOTH",
"456 438 OFFCURVE",
"404 390 OFFCURVE",
"309 390 CURVE SMOOTH",
"146 390 LINE"
);
}
);
width = 593;
},
{
color = -1;
layerId = "44982FF8-7820-4F75-948C-97259056F879";
paths = (
{
closed = 1;
nodes = (
"328 0 LINE SMOOTH",
"475 0 OFFCURVE",
"555 84 OFFCURVE",
"555 191 CURVE SMOOTH",
"555 287 OFFCURVE",
"479 362 OFFCURVE",
"389 364 CURVE",
"375 354 LINE",
"459 362 OFFCURVE",
"539 414 OFFCURVE",
"539 522 CURVE SMOOTH",
"539 622 OFFCURVE",
"467 700 OFFCURVE",
"320 700 CURVE SMOOTH",
"74 700 LINE",
"74 0 LINE"
);
},
{
closed = 1;
nodes = (
"158 327 LINE",
"317 327 LINE SMOOTH",
"411 327 OFFCURVE",
"469 276 OFFCURVE",
"469 197 CURVE SMOOTH",
"469 117 OFFCURVE",
"414 70 OFFCURVE",
"319 70 CURVE SMOOTH",
"158 70 LINE"
);
},
{
closed = 1;
nodes = (
"158 630 LINE",
"311 630 LINE SMOOTH",
"406 630 OFFCURVE",
"453 584 OFFCURVE",
"453 513 CURVE SMOOTH",
"453 439 OFFCURVE",
"404 394 OFFCURVE",
"314 394 CURVE SMOOTH",
"158 394 LINE"
);
}
);
width = 602;
},
{
color = -1;
layerId = "84B0614D-4B2F-419D-B7F2-5B7DD4CAD23C";
paths = (
{
closed = 1;
nodes = (
"389 0 LINE SMOOTH",
"537 0 OFFCURVE",
"622 75 OFFCURVE",
"622 191 CURVE SMOOTH",
"622 281 OFFCURVE",
"555 360 OFFCURVE",
"456 364 CURVE",
"439 352 LINE",
"531 358 OFFCURVE",
"606 414 OFFCURVE",
"606 518 CURVE SMOOTH",
"606 629 OFFCURVE",
"521 700 OFFCURVE",
"378 700 CURVE SMOOTH",
"62 700 LINE",
"62 0 LINE"
);
},
{
closed = 1;
nodes = (
"233 293 LINE",
"357 293 LINE SMOOTH",
"414 293 OFFCURVE",
"449 264 OFFCURVE",
"449 214 CURVE SMOOTH",
"449 164 OFFCURVE",
"416 138 OFFCURVE",
"359 138 CURVE SMOOTH",
"233 138 LINE"
);
},
{
closed = 1;
nodes = (
"233 565 LINE",
"345 565 LINE SMOOTH",
"401 565 OFFCURVE",
"432 539 OFFCURVE",
"432 491 CURVE SMOOTH",
"432 443 OFFCURVE",
"401 418 OFFCURVE",
"345 418 CURVE SMOOTH",
"233 418 LINE"
);
}
);
width = 659;
},
{
layerId = "90D50F69-F6F7-4633-9462-ED0440D3064F";
paths = (
{
closed = 1;
nodes = (
"276 0 LINE SMOOTH",
"444 0 OFFCURVE",
"497 93 OFFCURVE",
"497 191 CURVE SMOOTH",
"497 291 OFFCURVE",
"408 362 OFFCURVE",
"322 364 CURVE",
"322 355 LINE",
"399 367 OFFCURVE",
"481 414 OFFCURVE",
"481 528 CURVE SMOOTH",
"481 618 OFFCURVE",
"420 700 OFFCURVE",
"271 700 CURVE SMOOTH",
"76 700 LINE",
"76 0 LINE"
);
},
{
closed = 1;
nodes = (
"96 352 LINE",
"280 352 LINE SMOOTH",
"399 352 OFFCURVE",
"475 285 OFFCURVE",
"475 190 CURVE SMOOTH",
"475 83 OFFCURVE",
"405 20 OFFCURVE",
"285 20 CURVE SMOOTH",
"96 20 LINE"
);
},
{
closed = 1;
nodes = (
"96 682 LINE",
"281 682 LINE SMOOTH",
"392 682 OFFCURVE",
"459 616 OFFCURVE",
"459 528 CURVE SMOOTH",
"459 435 OFFCURVE",
"396 372 OFFCURVE",
"284 372 CURVE SMOOTH",
"96 372 LINE"
);
}
);
width = 546;
}
);
leftKerningGroup = H;
leftMetricsKey = H;
unicode = 0042;
userData = {
com.schriftgestaltung.Glyphs.ColorIndex = 4;
com.typesupply.AccentFactory.yCoordinates = {
bottom = {
name = origin;
type = glyphMetric;
};
top = {
name = capHeight;
type = fontInfo;
};
};
};
},
{
glyphname = C;
lastChange = "2023-05-19 14:07:26 +0000";
layers = (
{
anchors = (
{
name = bottom;
position = "{337, 0}";
},
{
name = top;
position = "{337, 700}";
}
);
layerId = "EB62C368-BB48-47C0-A466-DA94204A0DE4";
paths = (
{
closed = 1;
nodes = (
"507 -12 OFFCURVE",
"595 58 OFFCURVE",
"626 181 CURVE",
"604 181 LINE",
"577 79 OFFCURVE",
"499 8 OFFCURVE",
"362 8 CURVE SMOOTH",
"190 8 OFFCURVE",
"69 135 OFFCURVE",
"69 351 CURVE SMOOTH",
"69 567 OFFCURVE",
"190 692 OFFCURVE",
"362 692 CURVE SMOOTH",
"502 692 OFFCURVE",
"575 622 OFFCURVE",
"604 523 CURVE",
"626 523 LINE",
"595 642 OFFCURVE",
"507 712 OFFCURVE",
"361 712 CURVE SMOOTH",
"171 712 OFFCURVE",
"47 567 OFFCURVE",
"47 351 CURVE SMOOTH",
"47 134 OFFCURVE",
"171 -12 OFFCURVE",
"361 -12 CURVE SMOOTH"
);
}
);
width = 673;
},
{
anchors = (
{
name = bottom;
position = "{355, 0}";
},
{
name = top;
position = "{355, 700}";
}
);
layerId = "A6F5E7A4-47EF-4F55-BF18-0ACACB57A720";
paths = (
{
closed = 1;
nodes = (
"531 -12 OFFCURVE",
"632 68 OFFCURVE",
"660 203 CURVE",
"569 203 LINE",
"546 118 OFFCURVE",
"483 62 OFFCURVE",
"372 62 CURVE SMOOTH",
"228 62 OFFCURVE",
"135 170 OFFCURVE",
"135 350 CURVE SMOOTH",
"135 529 OFFCURVE",
"228 638 OFFCURVE",
"372 638 CURVE SMOOTH",
"483 638 OFFCURVE",
"546 580 OFFCURVE",
"569 494 CURVE",
"660 494 LINE",
"632 632 OFFCURVE",
"531 712 OFFCURVE",
"372 712 CURVE SMOOTH",
"173 712 OFFCURVE",
"49 565 OFFCURVE",
"49 350 CURVE SMOOTH",
"49 134 OFFCURVE",
"173 -12 OFFCURVE",
"372 -12 CURVE SMOOTH"
);
}
);
width = 709;
},
{
anchors = (
{
name = bottom;
position = "{374, 0}";
},
{
name = top;
position = "{374, 700}";
}
);
layerId = "1615C59E-33DE-4B88-B2CC-A48C7D56A125";
paths = (
{
closed = 1;
nodes = (
"556 -12 OFFCURVE",
"675 81 OFFCURVE",
"700 233 CURVE",
"516 233 LINE",
"500 173 OFFCURVE",
"451 143 OFFCURVE",
"380 143 CURVE SMOOTH",
"277 143 OFFCURVE",
"222 221 OFFCURVE",
"222 348 CURVE SMOOTH",
"222 476 OFFCURVE",
"277 556 OFFCURVE",
"380 556 CURVE SMOOTH",
"451 556 OFFCURVE",
"501 520 OFFCURVE",
"516 454 CURVE",
"700 454 LINE",
"675 618 OFFCURVE",
"556 712 OFFCURVE",
"382 712 CURVE SMOOTH",
"173 712 OFFCURVE",
"48 562 OFFCURVE",
"48 348 CURVE SMOOTH",
"48 135 OFFCURVE",
"173 -12 OFFCURVE",
"382 -12 CURVE SMOOTH"
);
}
);
width = 748;
},
{
anchors = (
{
name = bottom;
position = "{354, 0}";
},
{
name = top;
position = "{354, 700}";
}
);
layerId = "2D111E5E-352D-4630-9162-BCEF010D26CF";
paths = (
{
closed = 1;
nodes = (
"529 -12 OFFCURVE",
"627 66 OFFCURVE",
"655 198 CURVE",
"580 198 LINE",
"557 109 OFFCURVE",
"489 50 OFFCURVE",
"373 50 CURVE SMOOTH",
"223 50 OFFCURVE",
"124 162 OFFCURVE",
"124 350 CURVE SMOOTH",
"124 537 OFFCURVE",
"223 650 OFFCURVE",
"373 650 CURVE SMOOTH",
"490 650 OFFCURVE",
"556 590 OFFCURVE",
"580 500 CURVE",
"655 500 LINE",
"627 634 OFFCURVE",
"529 712 OFFCURVE",
"373 712 CURVE SMOOTH",
"176 712 OFFCURVE",
"52 565 OFFCURVE",
"52 350 CURVE SMOOTH",
"52 134 OFFCURVE",
"176 -12 OFFCURVE",
"373 -12 CURVE SMOOTH"
);
}
);
width = 707;
},
{
anchors = (
{
name = bottom;
position = "{332, 0}";
},
{
name = top;
position = "{332, 700}";
}
);
layerId = "5D382461-81E1-4DF2-8677-8A6F02AD5363";
paths = (
{
closed = 1;
nodes = (
"508 -12 OFFCURVE",
"598 58 OFFCURVE",
"629 181 CURVE",
"607 181 LINE",
"582 80 OFFCURVE",
"500 8 OFFCURVE",
"360 8 CURVE SMOOTH",
"182 8 OFFCURVE",
"57 136 OFFCURVE",
"57 350 CURVE SMOOTH",
"57 566 OFFCURVE",
"182 692 OFFCURVE",
"360 692 CURVE SMOOTH",
"503 692 OFFCURVE",
"580 624 OFFCURVE",
"607 522 CURVE",
"629 522 LINE",
"598 642 OFFCURVE",
"508 712 OFFCURVE",
"360 712 CURVE SMOOTH",
"163 712 OFFCURVE",
"35 567 OFFCURVE",
"35 350 CURVE SMOOTH",
"35 134 OFFCURVE",
"163 -12 OFFCURVE",
"360 -12 CURVE SMOOTH"
);
}
);
width = 664;
},
{
anchors = (
{
name = bottom;
position = "{345, 0}";
},
{
name = top;
position = "{345, 700}";
}
);
layerId = "3B8883BF-F483-4B97-AC7C-CABF8B821093";
paths = (
{
closed = 1;
nodes = (
"525 -12 OFFCURVE",
"625 66 OFFCURVE",
"654 198 CURVE",
"576 198 LINE",
"554 109 OFFCURVE",
"486 49 OFFCURVE",
"367 49 CURVE SMOOTH",
"210 49 OFFCURVE",
"107 162 OFFCURVE",
"107 350 CURVE SMOOTH",
"107 538 OFFCURVE",
"210 651 OFFCURVE",
"367 651 CURVE SMOOTH",
"486 651 OFFCURVE",
"554 591 OFFCURVE",
"576 500 CURVE",
"654 500 LINE",
"625 634 OFFCURVE",
"525 712 OFFCURVE",
"367 712 CURVE SMOOTH",
"163 712 OFFCURVE",
"35 565 OFFCURVE",
"35 350 CURVE SMOOTH",
"35 134 OFFCURVE",
"163 -12 OFFCURVE",
"367 -12 CURVE SMOOTH"
);
}
);
width = 689;
},
{
anchors = (
{
name = bottom;
position = "{348, 0}";
},
{
name = top;
position = "{348, 700}";
}
);
layerId = "F5F01D5B-AEA3-4AC3-B3D8-92550D1582D7";
paths = (
{
closed = 1;
nodes = (
"530 -12 OFFCURVE",
"633 68 OFFCURVE",
"661 203 CURVE",
"571 203 LINE",
"550 119 OFFCURVE",
"482 63 OFFCURVE",
"369 63 CURVE SMOOTH",
"218 63 OFFCURVE",
"121 171 OFFCURVE",
"121 350 CURVE SMOOTH",
"121 528 OFFCURVE",
"218 637 OFFCURVE",
"369 637 CURVE SMOOTH",
"482 637 OFFCURVE",
"547 580 OFFCURVE",
"568 494 CURVE",
"661 494 LINE",
"633 632 OFFCURVE",
"530 712 OFFCURVE",
"369 712 CURVE SMOOTH",
"163 712 OFFCURVE",
"35 565 OFFCURVE",
"35 350 CURVE SMOOTH",
"35 134 OFFCURVE",
"163 -12 OFFCURVE",
"369 -12 CURVE SMOOTH"
);
}
);
width = 696;
},
{
anchors = (
{
name = bottom;
position = "{369, 0}";
},
{
name = top;
position = "{369, 700}";
}
);
layerId = "A390C1A2-E540-434D-BB9E-4BCEE875BA63";
paths = (
{
closed = 1;
nodes = (
"556 -12 OFFCURVE",
"677 81 OFFCURVE",
"703 233 CURVE",
"515 233 LINE",
"500 173 OFFCURVE",
"452 143 OFFCURVE",
"378 143 CURVE SMOOTH",
"268 143 OFFCURVE",
"209 221 OFFCURVE",
"209 348 CURVE SMOOTH",
"209 476 OFFCURVE",
"268 556 OFFCURVE",
"378 556 CURVE SMOOTH",
"452 556 OFFCURVE",
"501 520 OFFCURVE",
"515 454 CURVE",
"703 454 LINE",
"677 618 OFFCURVE",
"556 712 OFFCURVE",
"380 712 CURVE SMOOTH",
"164 712 OFFCURVE",
"35 562 OFFCURVE",
"35 348 CURVE SMOOTH",
"35 135 OFFCURVE",
"164 -12 OFFCURVE",
"380 -12 CURVE SMOOTH"
);
}
);
width = 738;
},
{
anchors = (
{
name = bottom;
position = "{358, 0}";
},
{
name = top;
position = "{358, 700}";
}
);
color = -1;
layerId = "12552169-0282-4A31-82CC-880002E60A2C";
paths = (
{
closed = 1;
nodes = (
"538 -12 OFFCURVE",
"638 66 OFFCURVE",
"667 198 CURVE",
"589 198 LINE",
"567 109 OFFCURVE",
"499 49 OFFCURVE",
"380 49 CURVE SMOOTH",
"223 49 OFFCURVE",
"120 162 OFFCURVE",
"120 350 CURVE SMOOTH",
"120 538 OFFCURVE",
"223 651 OFFCURVE",
"380 651 CURVE SMOOTH",
"499 651 OFFCURVE",
"567 591 OFFCURVE",
"589 500 CURVE",
"667 500 LINE",
"638 634 OFFCURVE",
"538 712 OFFCURVE",
"380 712 CURVE SMOOTH",
"176 712 OFFCURVE",
"48 565 OFFCURVE",
"48 350 CURVE SMOOTH",
"48 134 OFFCURVE",
"176 -12 OFFCURVE",
"380 -12 CURVE SMOOTH"
);
}
);
width = 715;
},
{
anchors = (
{
name = bottom;
position = "{360, 0}";
},
{
name = top;
position = "{360, 700}";
}
);
color = -1;
layerId = "44982FF8-7820-4F75-948C-97259056F879";
paths = (
{
closed = 1;
nodes = (
"542 -12 OFFCURVE",
"645 68 OFFCURVE",
"673 203 CURVE",
"580 203 LINE",
"559 118 OFFCURVE",
"494 62 OFFCURVE",
"381 62 CURVE SMOOTH",
"230 62 OFFCURVE",
"133 170 OFFCURVE",
"133 350 CURVE SMOOTH",
"133 529 OFFCURVE",
"230 638 OFFCURVE",
"381 638 CURVE SMOOTH",
"494 638 OFFCURVE",
"559 581 OFFCURVE",
"580 494 CURVE",
"673 494 LINE",
"645 632 OFFCURVE",
"542 712 OFFCURVE",
"381 712 CURVE SMOOTH",
"175 712 OFFCURVE",
"47 565 OFFCURVE",
"47 350 CURVE SMOOTH",
"47 134 OFFCURVE",
"175 -12 OFFCURVE",
"381 -12 CURVE SMOOTH"
);
}
);
width = 720;
},
{
anchors = (
{
name = bottom;
position = "{377, 0}";
},
{
name = top;
position = "{377, 700}";
}
);
color = -1;
layerId = "84B0614D-4B2F-419D-B7F2-5B7DD4CAD23C";
paths = (
{
closed = 1;
nodes = (
"564 -12 OFFCURVE",
"685 81 OFFCURVE",
"711 233 CURVE",
"523 233 LINE",
"508 173 OFFCURVE",
"460 143 OFFCURVE",
"386 143 CURVE SMOOTH",
"276 143 OFFCURVE",
"217 221 OFFCURVE",
"217 348 CURVE SMOOTH",
"217 476 OFFCURVE",
"276 556 OFFCURVE",
"386 556 CURVE SMOOTH",
"460 556 OFFCURVE",
"509 520 OFFCURVE",
"523 454 CURVE",
"711 454 LINE",
"685 618 OFFCURVE",
"564 712 OFFCURVE",
"388 712 CURVE SMOOTH",
"172 712 OFFCURVE",
"43 562 OFFCURVE",
"43 348 CURVE SMOOTH",
"43 135 OFFCURVE",
"172 -12 OFFCURVE",
"388 -12 CURVE SMOOTH"
);
}
);
width = 754;
},
{
anchors = (
{
name = bottom;
position = "{345, 0}";
},
{
name = top;
position = "{345, 700}";
}
);
layerId = "90D50F69-F6F7-4633-9462-ED0440D3064F";
paths = (
{
closed = 1;
nodes = (
"521 -12 OFFCURVE",
"611 58 OFFCURVE",
"642 181 CURVE",
"620 181 LINE",
"595 80 OFFCURVE",
"513 8 OFFCURVE",
"373 8 CURVE SMOOTH",
"195 8 OFFCURVE",
"70 136 OFFCURVE",
"70 350 CURVE SMOOTH",
"70 566 OFFCURVE",
"195 692 OFFCURVE",
"373 692 CURVE SMOOTH",
"516 692 OFFCURVE",
"593 624 OFFCURVE",
"620 522 CURVE",
"642 522 LINE",
"611 642 OFFCURVE",
"521 712 OFFCURVE",
"373 712 CURVE SMOOTH",
"176 712 OFFCURVE",
"48 567 OFFCURVE",
"48 350 CURVE SMOOTH",
"48 134 OFFCURVE",
"176 -12 OFFCURVE",
"373 -12 CURVE SMOOTH"
);
}
);
width = 690;
}
);
leftKerningGroup = O;
leftMetricsKey = O;
rightKerningGroup = C;
rightMetricsKey = O;
unicode = 0043;
userData = {
com.schriftgestaltung.Glyphs.ColorIndex = 4;
com.typesupply.AccentFactory.yCoordinates = {
bottom = {
name = origin;
type = glyphMetric;
};
top = {
name = capHeight;
type = fontInfo;
};
};
};
},
{
glyphname = D;
lastChange = "2023-05-19 14:07:26 +0000";
layers = (
{
anchors = (
{
name = top;
position = "{253, 700}";
}
);
layerId = "EB62C368-BB48-47C0-A466-DA94204A0DE4";
paths = (
{
closed = 1;
nodes = (
"227 0 LINE SMOOTH",
"486 0 OFFCURVE",
"580 148 OFFCURVE",
"580 346 CURVE SMOOTH",
"580 573 OFFCURVE",
"469 700 OFFCURVE",
"219 700 CURVE SMOOTH",
"78 700 LINE",
"78 0 LINE"
);
},
{
closed = 1;
nodes = (
"98 682 LINE",
"225 682 LINE SMOOTH",
"460 682 OFFCURVE",
"558 552 OFFCURVE",
"558 346 CURVE SMOOTH",
"558 141 OFFCURVE",
"452 18 OFFCURVE",
"225 18 CURVE SMOOTH",
"98 18 LINE"
);
}
);
width = 627;
},
{
anchors = (
{
name = top;
position = "{253, 700}";
}
);
layerId = "A6F5E7A4-47EF-4F55-BF18-0ACACB57A720";
paths = (
{
closed = 1;
nodes = (
"257 0 LINE SMOOTH",
"501 0 OFFCURVE",
"615 133 OFFCURVE",
"615 348 CURVE SMOOTH",
"615 567 OFFCURVE",
"501 700 OFFCURVE",
"257 700 CURVE SMOOTH",
"77 700 LINE",
"77 0 LINE"
);
},
{
closed = 1;
nodes = (
"161 630 LINE",
"255 630 LINE SMOOTH",
"457 630 OFFCURVE",
"528 523 OFFCURVE",
"528 348 CURVE SMOOTH",
"528 175 OFFCURVE",
"457 70 OFFCURVE",
"255 70 CURVE SMOOTH",
"161 70 LINE"
);
}
);
width = 664;
},
{
anchors = (
{
name = top;
position = "{301, 700}";
}
);
layerId = "1615C59E-33DE-4B88-B2CC-A48C7D56A125";
paths = (
{
closed = 1;
nodes = (
"301 0 LINE SMOOTH",
"543 0 OFFCURVE",
"656 143 OFFCURVE",
"656 351 CURVE SMOOTH",
"656 558 OFFCURVE",
"543 700 OFFCURVE",
"301 700 CURVE SMOOTH",
"72 700 LINE",
"72 0 LINE"
);
},
{
closed = 1;
nodes = (
"243 554 LINE",
"290 554 LINE SMOOTH",
"437 554 OFFCURVE",
"482 478 OFFCURVE",
"482 351 CURVE SMOOTH",
"482 222 OFFCURVE",
"437 148 OFFCURVE",
"290 148 CURVE SMOOTH",
"243 148 LINE"
);
}
);
width = 704;
},
{
anchors = (
{
name = top;
position = "{253, 700}";
}
);
layerId = "2D111E5E-352D-4630-9162-BCEF010D26CF";
paths = (
{
closed = 1;
nodes = (
"256 0 LINE SMOOTH",
"501 0 OFFCURVE",
"614 131 OFFCURVE",
"614 348 CURVE SMOOTH",
"614 568 OFFCURVE",
"501 700 OFFCURVE",
"256 700 CURVE SMOOTH",
"84 700 LINE",
"84 0 LINE"
);
},
{
closed = 1;
nodes = (
"154 641 LINE",
"255 641 LINE SMOOTH",
"466 641 OFFCURVE",
"542 529 OFFCURVE",
"542 348 CURVE SMOOTH",
"542 168 OFFCURVE",
"466 59 OFFCURVE",
"255 59 CURVE SMOOTH",
"154 59 LINE"
);
}
);
width = 666;
},
{
anchors = (
{
name = top;
position = "{223, 700}";
}
);
layerId = "5D382461-81E1-4DF2-8677-8A6F02AD5363";
paths = (
{
closed = 1;
nodes = (
"231 0 LINE SMOOTH",
"490 0 OFFCURVE",
"584 148 OFFCURVE",
"584 346 CURVE SMOOTH",
"584 573 OFFCURVE",
"473 700 OFFCURVE",
"223 700 CURVE SMOOTH",
"45 700 LINE",
"45 0 LINE"
);
},
{
closed = 1;
nodes = (
"65 682 LINE",
"229 682 LINE SMOOTH",
"464 682 OFFCURVE",
"562 552 OFFCURVE",
"562 346 CURVE SMOOTH",
"562 141 OFFCURVE",
"456 18 OFFCURVE",
"229 18 CURVE SMOOTH",
"65 18 LINE"
);
}
);
width = 619;
},
{
anchors = (
{
name = top;
position = "{252, 700}";
}
);
layerId = "3B8883BF-F483-4B97-AC7C-CABF8B821093";
paths = (
{
closed = 1;
nodes = (
"252 0 LINE SMOOTH",
"499 0 OFFCURVE",
"612 131 OFFCURVE",
"612 348 CURVE SMOOTH",
"612 568 OFFCURVE",
"499 700 OFFCURVE",
"252 700 CURVE SMOOTH",
"45 700 LINE",
"45 0 LINE"
);
},
{
closed = 1;
nodes = (
"115 642 LINE",
"252 642 LINE SMOOTH",
"464 642 OFFCURVE",
"540 530 OFFCURVE",
"540 348 CURVE SMOOTH",
"540 168 OFFCURVE",
"464 58 OFFCURVE",
"252 58 CURVE SMOOTH",
"115 58 LINE"
);
}
);
width = 647;
},
{
anchors = (
{
name = top;
position = "{260, 700}";
}
);
layerId = "F5F01D5B-AEA3-4AC3-B3D8-92550D1582D7";
paths = (
{
closed = 1;
nodes = (
"260 0 LINE SMOOTH",
"506 0 OFFCURVE",
"620 133 OFFCURVE",
"620 348 CURVE SMOOTH",
"620 567 OFFCURVE",
"506 700 OFFCURVE",
"260 700 CURVE SMOOTH",
"45 700 LINE",
"45 0 LINE"
);
},
{
closed = 1;
nodes = (
"129 630 LINE",
"258 630 LINE SMOOTH",
"462 630 OFFCURVE",
"533 523 OFFCURVE",
"533 348 CURVE SMOOTH",
"533 175 OFFCURVE",
"462 70 OFFCURVE",
"258 70 CURVE SMOOTH",
"129 70 LINE"
);
}
);
width = 655;
},
{
anchors = (
{
name = top;
position = "{308, 700}";
}
);
layerId = "A390C1A2-E540-434D-BB9E-4BCEE875BA63";
paths = (
{
closed = 1;
nodes = (
"308 0 LINE SMOOTH",
"552 0 OFFCURVE",
"666 143 OFFCURVE",
"666 351 CURVE SMOOTH",
"666 558 OFFCURVE",
"552 700 OFFCURVE",
"308 700 CURVE SMOOTH",
"45 700 LINE",
"45 0 LINE"
);
},
{
closed = 1;
nodes = (
"216 554 LINE",
"297 554 LINE SMOOTH",
"446 554 OFFCURVE",
"492 478 OFFCURVE",
"492 351 CURVE SMOOTH",
"492 222 OFFCURVE",
"446 148 OFFCURVE",
"297 148 CURVE SMOOTH",
"216 148 LINE"
);
}
);
width = 701;
},
{
anchors = (
{
name = top;
position = "{284, 700}";
}
);
color = -1;
layerId = "12552169-0282-4A31-82CC-880002E60A2C";
paths = (
{
closed = 1;
nodes = (
"283 0 LINE SMOOTH",
"530 0 OFFCURVE",
"643 131 OFFCURVE",
"643 348 CURVE SMOOTH",
"643 568 OFFCURVE",
"530 700 OFFCURVE",
"283 700 CURVE SMOOTH",
"76 700 LINE",
"76 0 LINE"
);
},
{
closed = 1;
nodes = (
"146 642 LINE",
"283 642 LINE SMOOTH",
"495 642 OFFCURVE",
"571 530 OFFCURVE",
"571 348 CURVE SMOOTH",
"571 168 OFFCURVE",
"495 58 OFFCURVE",
"283 58 CURVE SMOOTH",
"146 58 LINE"
);
}
);
width = 691;
},
{
anchors = (
{
name = top;
position = "{286, 700}";
}
);
color = -1;
layerId = "44982FF8-7820-4F75-948C-97259056F879";
paths = (
{
closed = 1;
nodes = (
"289 0 LINE SMOOTH",
"535 0 OFFCURVE",
"649 133 OFFCURVE",
"649 348 CURVE SMOOTH",
"649 567 OFFCURVE",
"535 700 OFFCURVE",
"289 700 CURVE SMOOTH",
"74 700 LINE",
"74 0 LINE"
);
},
{
closed = 1;
nodes = (
"158 630 LINE",
"287 630 LINE SMOOTH",
"491 630 OFFCURVE",
"562 523 OFFCURVE",
"562 348 CURVE SMOOTH",
"562 175 OFFCURVE",
"491 70 OFFCURVE",
"287 70 CURVE SMOOTH",
"158 70 LINE"
);
}
);
width = 696;
},
{
anchors = (
{
name = top;
position = "{297, 700}";
}
);
color = -1;
layerId = "84B0614D-4B2F-419D-B7F2-5B7DD4CAD23C";
paths = (
{
closed = 1;
nodes = (
"325 0 LINE SMOOTH",
"569 0 OFFCURVE",
"683 143 OFFCURVE",
"683 351 CURVE SMOOTH",
"683 558 OFFCURVE",
"569 700 OFFCURVE",
"325 700 CURVE SMOOTH",
"62 700 LINE",
"62 0 LINE"
);
},
{
closed = 1;
nodes = (
"233 554 LINE",
"314 554 LINE SMOOTH",
"463 554 OFFCURVE",
"509 478 OFFCURVE",
"509 351 CURVE SMOOTH",
"509 222 OFFCURVE",
"463 148 OFFCURVE",
"314 148 CURVE SMOOTH",
"233 148 LINE"
);
}
);
width = 726;
},
{
anchors = (
{
name = top;
position = "{254, 700}";
}
);
layerId = "90D50F69-F6F7-4633-9462-ED0440D3064F";
paths = (
{
closed = 1;
nodes = (
"262 0 LINE SMOOTH",
"521 0 OFFCURVE",
"615 148 OFFCURVE",
"615 346 CURVE SMOOTH",
"615 573 OFFCURVE",
"504 700 OFFCURVE",
"254 700 CURVE SMOOTH",
"76 700 LINE",
"76 0 LINE"
);
},
{
closed = 1;
nodes = (
"96 682 LINE",
"260 682 LINE SMOOTH",
"495 682 OFFCURVE",
"593 552 OFFCURVE",
"593 346 CURVE SMOOTH",
"593 141 OFFCURVE",
"487 18 OFFCURVE",
"260 18 CURVE SMOOTH",
"96 18 LINE"
);
}
);
width = 663;
}
);
leftKerningGroup = H;
leftMetricsKey = H;
rightKerningGroup = O;
rightMetricsKey = O;
unicode = 0044;
userData = {
com.schriftgestaltung.Glyphs.ColorIndex = 4;
com.typemytype.robofont.guides = (
{
angle = 0;
isGlobal = 0;
magnetic = 5;
x = 122;
y = 684;
}
);
com.typesupply.AccentFactory.yCoordinates = {
bottom = {
name = origin;
type = glyphMetric;
};
top = {
name = capHeight;
type = fontInfo;
};
};
};
},
{
glyphname = Eth;
lastChange = "2023-05-19 14:07:26 +0000";
layers = (
{
components = (
{
alignment = -1;
name = D;
transform = "{1, 0, 0, 1, 33, 0}";
}
);
guideLines = (
{
angle = 270;
position = "{13, 343}";
},
{
angle = 270;
position = "{111, 343}";
}
);
layerId = "EB62C368-BB48-47C0-A466-DA94204A0DE4";
paths = (
{
closed = 1;
nodes = (
"374 343 LINE",
"374 361 LINE",
"13 361 LINE",
"13 343 LINE"
);
}
);
width = 660;
},
{
components = (
{
alignment = -1;
name = D;
transform = "{1, 0, 0, 1, 21, 0}";
}
);
layerId = "A6F5E7A4-47EF-4F55-BF18-0ACACB57A720";
paths = (
{
closed = 1;
nodes = (
"381 311 LINE",
"381 387 LINE",
"8 387 LINE",
"8 311 LINE"
);
}
);
width = 685;
},
{
components = (
{
alignment = -1;
name = D;
transform = "{1, 0, 0, 1, 5, 0}";
}
);
layerId = "1615C59E-33DE-4B88-B2CC-A48C7D56A125";
paths = (
{
closed = 1;
nodes = (
"391 280 LINE",
"391 422 LINE",
"4 422 LINE",
"4 280 LINE"
);
}
);
width = 709;
},
{
components = (
{
alignment = -1;
name = D;
transform = "{1, 0, 0, 1, 24, 0}";
}
);
layerId = "2D111E5E-352D-4630-9162-BCEF010D26CF";
paths = (
{
closed = 1;
nodes = (
"379 316 LINE",
"379 381 LINE",
"9 381 LINE",
"9 316 LINE"
);
}
);
width = 690;
},
{
components = (
{
alignment = -1;
name = D;
transform = "{1, 0, 0, 1, 32, 0}";
}
);
guideLines = (
{
angle = 270;
position = "{9, 343}";
},
{
angle = 270;
position = "{107, 343}";
}
);
layerId = "5D382461-81E1-4DF2-8677-8A6F02AD5363";
paths = (
{
closed = 1;
nodes = (
"351 343 LINE",
"351 361 LINE",
"10 361 LINE",
"10 343 LINE"
);
}
);
width = 651;
},
{
components = (
{
alignment = -1;
name = D;
transform = "{1, 0, 0, 1, 25, 0}";
}
);
layerId = "3B8883BF-F483-4B97-AC7C-CABF8B821093";
paths = (
{
closed = 1;
nodes = (
"363 316 LINE",
"363 381 LINE",
"10 381 LINE",
"10 316 LINE"
);
}
);
width = 672;
},
{
components = (
{
alignment = -1;
name = D;
transform = "{1, 0, 0, 1, 23, 0}";
}
);
layerId = "F5F01D5B-AEA3-4AC3-B3D8-92550D1582D7";
paths = (
{
closed = 1;
nodes = (
"370 311 LINE",
"370 387 LINE",
"10 387 LINE",
"10 311 LINE"
);
}
);
width = 678;
},
{
components = (
{
alignment = -1;
name = D;
transform = "{1, 0, 0, 1, 11, 0}";
}
);
layerId = "A390C1A2-E540-434D-BB9E-4BCEE875BA63";
paths = (
{
closed = 1;
nodes = (
"387 280 LINE",
"387 422 LINE",
"10 422 LINE",
"10 280 LINE"
);
}
);
width = 712;
},
{
components = (
{
name = D;
transform = "{1, 0, 0, 1, 24, 0}";
}
);
layerId = "12552169-0282-4A31-82CC-880002E60A2C";
paths = (
{
closed = 1;
nodes = (
"379 316 LINE",
"379 381 LINE",
"9 381 LINE",
"9 316 LINE"
);
}
);
width = 715;
},
{
components = (
{
alignment = -1;
name = D;
transform = "{1, 0, 0, 1, 21, 0}";
}
);
layerId = "44982FF8-7820-4F75-948C-97259056F879";
paths = (
{
closed = 1;
nodes = (
"381 311 LINE",
"381 387 LINE",
"8 387 LINE",
"8 311 LINE"
);
}
);
width = 717;
},
{
components = (
{
name = D;
transform = "{1, 0, 0, 1, 5, 0}";
}
);
layerId = "84B0614D-4B2F-419D-B7F2-5B7DD4CAD23C";
paths = (
{
closed = 1;
nodes = (
"391 280 LINE",
"391 422 LINE",
"4 422 LINE",
"4 280 LINE"
);
}
);
width = 731;
},
{
components = (
{
alignment = -1;
name = D;
transform = "{1, 0, 0, 1, 31, 0}";
}
);
guideLines = (
{
angle = 270;
position = "{9, 343}";
},
{
angle = 270;
position = "{107, 343}";
}
);
layerId = "90D50F69-F6F7-4633-9462-ED0440D3064F";
paths = (
{
closed = 1;
nodes = (
"372 343 LINE",
"372 361 LINE",
"9 361 LINE",
"9 343 LINE"
);
}
);
width = 694;
}
);
leftKerningGroup = Eth;
rightKerningGroup = O;
rightMetricsKey = O;
unicode = 00D0;
userData = {
com.schriftgestaltung.Glyphs.ColorIndex = 4;
};
},
{
glyphname = E;
lastChange = "2023-05-19 14:07:26 +0000";
layers = (
{
anchors = (
{
name = bottom;
position = "{276, 0}";
},
{
name = ogonek;
position = "{475, 0}";
},
{
name = top;
position = "{276, 700}";
}
);
layerId = "EB62C368-BB48-47C0-A466-DA94204A0DE4";
paths = (
{
closed = 1;
nodes = (
"475 0 LINE",
"475 18 LINE",
"98 18 LINE",
"98 339 LINE",
"445 339 LINE",
"445 358 LINE",
"98 358 LINE",
"98 682 LINE",
"475 682 LINE",
"475 700 LINE",
"78 700 LINE",
"78 0 LINE"
);
}
);
width = 532;
},
{
anchors = (
{
name = bottom;
position = "{294, 0}";
},
{
name = ogonek;
position = "{510, 0}";
},
{
name = top;
position = "{294, 700}";
}
);
layerId = "A6F5E7A4-47EF-4F55-BF18-0ACACB57A720";
paths = (
{
closed = 1;
nodes = (
"510 0 LINE",
"510 69 LINE",
"161 69 LINE",
"161 319 LINE",
"480 319 LINE",
"480 387 LINE",
"161 387 LINE",
"161 631 LINE",
"510 631 LINE",
"510 700 LINE",
"77 700 LINE",
"77 0 LINE"
);
}
);
width = 569;
},
{
anchors = (
{
name = bottom;
position = "{312, 0}";
},
{
name = ogonek;
position = "{552, 0}";
},
{
name = top;
position = "{312, 700}";
}
);
layerId = "1615C59E-33DE-4B88-B2CC-A48C7D56A125";
paths = (
{
closed = 1;
nodes = (
"552 0 LINE",
"552 137 LINE",
"243 137 LINE",
"243 291 LINE",
"522 291 LINE",
"522 423 LINE",
"243 423 LINE",
"243 563 LINE",
"552 563 LINE",
"552 700 LINE",
"72 700 LINE",
"72 0 LINE"
);
}
);
width = 607;
},
{
anchors = (
{
name = bottom;
position = "{296, 0}";
},
{
name = ogonek;
position = "{509, 0}";
},
{
name = top;
position = "{296, 700}";
}
);
layerId = "2D111E5E-352D-4630-9162-BCEF010D26CF";
paths = (
{
closed = 1;
nodes = (
"509 0 LINE",
"509 58 LINE",
"154 58 LINE",
"154 323 LINE",
"479 323 LINE",
"479 381 LINE",
"154 381 LINE",
"154 642 LINE",
"509 642 LINE",
"509 700 LINE",
"84 700 LINE",
"84 0 LINE"
);
}
);
width = 570;
},
{
anchors = (
{
name = bottom;
position = "{244, 0}";
},
{
name = ogonek;
position = "{442, 0}";
},
{
name = top;
position = "{244, 700}";
}
);
layerId = "5D382461-81E1-4DF2-8677-8A6F02AD5363";
paths = (
{
closed = 1;
nodes = (
"442 0 LINE",
"442 18 LINE",
"65 18 LINE",
"65 339 LINE",
"412 339 LINE",
"412 358 LINE",
"65 358 LINE",
"65 682 LINE",
"442 682 LINE",
"442 700 LINE",
"45 700 LINE",
"45 0 LINE"
);
}
);
width = 472;
},
{
anchors = (
{
name = bottom;
position = "{258, 0}";
},
{
name = ogonek;
position = "{470, 0}";
},
{
name = top;
position = "{258, 700}";
}
);
layerId = "3B8883BF-F483-4B97-AC7C-CABF8B821093";
paths = (
{
closed = 1;
nodes = (
"470 0 LINE",
"470 58 LINE",
"115 58 LINE",
"115 323 LINE",
"440 323 LINE",
"440 381 LINE",
"115 381 LINE",
"115 642 LINE",
"470 642 LINE",
"470 700 LINE",
"45 700 LINE",
"45 0 LINE"
);
}
);
width = 500;
},
{
anchors = (
{
name = bottom;
position = "{262, 0}";
},
{
name = ogonek;
position = "{478, 0}";
},
{
name = top;
position = "{262, 700}";
}
);
layerId = "F5F01D5B-AEA3-4AC3-B3D8-92550D1582D7";
paths = (
{
closed = 1;
nodes = (
"478 0 LINE",
"478 69 LINE",
"129 69 LINE",
"129 319 LINE",
"448 319 LINE",
"448 387 LINE",
"129 387 LINE",
"129 631 LINE",
"478 631 LINE",
"478 700 LINE",
"45 700 LINE",
"45 0 LINE"
);
}
);
width = 508;
},
{
anchors = (
{
name = bottom;
position = "{286, 0}";
},
{
name = ogonek;
position = "{525, 0}";
},
{
name = top;
position = "{286, 700}";
}
);
layerId = "A390C1A2-E540-434D-BB9E-4BCEE875BA63";
paths = (
{
closed = 1;
nodes = (
"525 0 LINE",
"525 137 LINE",
"216 137 LINE",
"216 291 LINE",
"495 291 LINE",
"495 423 LINE",
"216 423 LINE",
"216 563 LINE",
"525 563 LINE",
"525 700 LINE",
"45 700 LINE",
"45 0 LINE"
);
}
);
width = 555;
},
{
anchors = (
{
name = bottom;
position = "{288, 0}";
},
{
name = ogonek;
position = "{501, 0}";
},
{
name = top;
position = "{288, 700}";
}
);
color = -1;
layerId = "12552169-0282-4A31-82CC-880002E60A2C";
paths = (
{
closed = 1;
nodes = (
"501 0 LINE",
"501 58 LINE",
"146 58 LINE",
"146 323 LINE",
"471 323 LINE",
"471 381 LINE",
"146 381 LINE",
"146 642 LINE",
"501 642 LINE",
"501 700 LINE",
"76 700 LINE",
"76 0 LINE"
);
}
);
width = 559;
},
{
anchors = (
{
name = bottom;
position = "{291, 0}";
},
{
name = ogonek;
position = "{507, 0}";
},
{
name = top;
position = "{291, 700}";
}
);
color = -1;
layerId = "44982FF8-7820-4F75-948C-97259056F879";
paths = (
{
closed = 1;
nodes = (
"507 0 LINE",
"507 69 LINE",
"158 69 LINE",
"158 319 LINE",
"477 319 LINE",
"477 387 LINE",
"158 387 LINE",
"158 631 LINE",
"507 631 LINE",
"507 700 LINE",
"74 700 LINE",
"74 0 LINE"
);
}
);
width = 564;
},
{
anchors = (
{
name = bottom;
position = "{302, 0}";
},
{
name = ogonek;
position = "{542, 0}";
},
{
name = top;
position = "{302, 700}";
}
);
color = -1;
layerId = "84B0614D-4B2F-419D-B7F2-5B7DD4CAD23C";
paths = (
{
closed = 1;
nodes = (
"542 0 LINE",
"542 137 LINE",
"233 137 LINE",
"233 291 LINE",
"512 291 LINE",
"512 423 LINE",
"233 423 LINE",
"233 563 LINE",
"542 563 LINE",
"542 700 LINE",
"62 700 LINE",
"62 0 LINE"
);
}
);
width = 592;
},
{
anchors = (
{
name = bottom;
position = "{274, 0}";
},
{
name = ogonek;
position = "{473, 0}";
},
{
name = top;
position = "{274, 700}";
}
);
layerId = "90D50F69-F6F7-4633-9462-ED0440D3064F";
paths = (
{
closed = 1;
nodes = (
"473 0 LINE",
"473 18 LINE",
"96 18 LINE",
"96 339 LINE",
"443 339 LINE",
"443 358 LINE",
"96 358 LINE",
"96 682 LINE",
"473 682 LINE",
"473 700 LINE",
"76 700 LINE",
"76 0 LINE"
);
}
);
width = 531;
}
);
leftKerningGroup = H;
leftMetricsKey = H;
rightKerningGroup = E;
unicode = 0045;
userData = {
com.schriftgestaltung.Glyphs.ColorIndex = 4;
com.typesupply.AccentFactory.yCoordinates = {
bottom = {
name = origin;
type = glyphMetric;
};
top = {
name = capHeight;
type = fontInfo;
};
};
};
},
{
glyphname = F;
lastChange = "2023-05-19 14:07:26 +0000";
layers = (
{
layerId = "EB62C368-BB48-47C0-A466-DA94204A0DE4";
paths = (
{
closed = 1;
nodes = (
"98 0 LINE",
"98 344 LINE",
"431 344 LINE",
"431 362 LINE",
"98 362 LINE",
"98 682 LINE",
"468 682 LINE",
"468 700 LINE",
"78 700 LINE",
"78 0 LINE"
);
}
);
width = 503;
},
{
layerId = "A6F5E7A4-47EF-4F55-BF18-0ACACB57A720";
paths = (
{
closed = 1;
nodes = (
"161 0 LINE",
"161 317 LINE",
"452 317 LINE",
"452 385 LINE",
"161 385 LINE",
"161 631 LINE",
"503 631 LINE",
"503 700 LINE",
"77 700 LINE",
"77 0 LINE"
);
}
);
width = 539;
},
{
layerId = "1615C59E-33DE-4B88-B2CC-A48C7D56A125";
paths = (
{
closed = 1;
nodes = (
"243 0 LINE",
"243 284 LINE",
"477 284 LINE",
"477 417 LINE",
"243 417 LINE",
"243 563 LINE",
"549 563 LINE",
"549 700 LINE",
"72 700 LINE",
"72 0 LINE"
);
}
);
width = 584;
},
{
layerId = "2D111E5E-352D-4630-9162-BCEF010D26CF";
paths = (
{
closed = 1;
nodes = (
"154 0 LINE",
"154 323 LINE",
"454 323 LINE",
"454 380 LINE",
"154 380 LINE",
"154 642 LINE",
"502 642 LINE",
"502 700 LINE",
"84 700 LINE",
"84 0 LINE"
);
}
);
width = 542;
},
{
layerId = "5D382461-81E1-4DF2-8677-8A6F02AD5363";
paths = (
{
closed = 1;
nodes = (
"65 0 LINE",
"65 344 LINE",
"398 344 LINE",
"398 362 LINE",
"65 362 LINE",
"65 682 LINE",
"435 682 LINE",
"435 700 LINE",
"45 700 LINE",
"45 0 LINE"
);
}
);
width = 450;
},
{
layerId = "3B8883BF-F483-4B97-AC7C-CABF8B821093";
paths = (
{
closed = 1;
nodes = (
"115 0 LINE",
"115 322 LINE",
"415 322 LINE",
"415 380 LINE",
"115 380 LINE",
"115 642 LINE",
"463 642 LINE",
"463 700 LINE",
"45 700 LINE",
"45 0 LINE"
);
}
);
width = 478;
},
{
layerId = "F5F01D5B-AEA3-4AC3-B3D8-92550D1582D7";
paths = (
{
closed = 1;
nodes = (
"129 0 LINE",
"129 317 LINE",
"420 317 LINE",
"420 385 LINE",
"129 385 LINE",
"129 631 LINE",
"471 631 LINE",
"471 700 LINE",
"45 700 LINE",
"45 0 LINE"
);
}
);
width = 486;
},
{
layerId = "A390C1A2-E540-434D-BB9E-4BCEE875BA63";
paths = (
{
closed = 1;
nodes = (
"216 0 LINE",
"216 284 LINE",
"450 284 LINE",
"450 417 LINE",
"216 417 LINE",
"216 563 LINE",
"522 563 LINE",
"522 700 LINE",
"45 700 LINE",
"45 0 LINE"
);
}
);
width = 537;
},
{
color = -1;
layerId = "12552169-0282-4A31-82CC-880002E60A2C";
paths = (
{
closed = 1;
nodes = (
"146 0 LINE",
"146 322 LINE",
"446 322 LINE",
"446 380 LINE",
"146 380 LINE",
"146 642 LINE",
"494 642 LINE",
"494 700 LINE",
"76 700 LINE",
"76 0 LINE"
);
}
);
width = 529;
},
{
color = -1;
layerId = "44982FF8-7820-4F75-948C-97259056F879";
paths = (
{
closed = 1;
nodes = (
"158 0 LINE",
"158 317 LINE",
"449 317 LINE",
"449 385 LINE",
"158 385 LINE",
"158 631 LINE",
"500 631 LINE",
"500 700 LINE",
"74 700 LINE",
"74 0 LINE"
);
}
);
width = 534;
},
{
color = -1;
layerId = "84B0614D-4B2F-419D-B7F2-5B7DD4CAD23C";
paths = (
{
closed = 1;
nodes = (
"233 0 LINE",
"233 284 LINE",
"467 284 LINE",
"467 417 LINE",
"233 417 LINE",
"233 563 LINE",
"539 563 LINE",
"539 700 LINE",
"62 700 LINE",
"62 0 LINE"
);
}
);
width = 567;
},
{
layerId = "90D50F69-F6F7-4633-9462-ED0440D3064F";
paths = (
{
closed = 1;
nodes = (
"96 0 LINE",
"96 344 LINE",
"429 344 LINE",
"429 362 LINE",
"96 362 LINE",
"96 682 LINE",
"466 682 LINE",
"466 700 LINE",
"76 700 LINE",
"76 0 LINE"
);
}
);
width = 501;
}
);
leftKerningGroup = H;
leftMetricsKey = H;
unicode = 0046;
userData = {
com.schriftgestaltung.Glyphs.ColorIndex = 4;
com.typesupply.AccentFactory.yCoordinates = {
bottom = {
name = origin;
type = glyphMetric;
};
top = {
name = capHeight;
type = fontInfo;
};
};
};
},
{
glyphname = G;
lastChange = "2023-05-19 14:07:26 +0000";
layers = (
{
anchors = (
{
name = bottom;
position = "{363, 0}";
},
{
name = top;
position = "{363, 700}";
}
);
layerId = "EB62C368-BB48-47C0-A466-DA94204A0DE4";
paths = (
{
closed = 1;
nodes = (
"499 -12 OFFCURVE",
"593 54 OFFCURVE",
"638 188 CURVE",
"638 188 LINE",
"650 0 LINE",
"666 0 LINE",
"666 359 LINE",
"403 359 LINE",
"403 341 LINE",
"644 341 LINE",
"633 120 OFFCURVE",
"540 8 OFFCURVE",
"361 8 CURVE SMOOTH",
"188 8 OFFCURVE",
"69 142 OFFCURVE",
"69 353 CURVE SMOOTH",
"69 566 OFFCURVE",
"196 692 OFFCURVE",
"372 692 CURVE SMOOTH",
"517 692 OFFCURVE",
"600 618 OFFCURVE",
"631 508 CURVE",
"653 508 LINE",
"617 640 OFFCURVE",
"518 712 OFFCURVE",
"372 712 CURVE SMOOTH",
"176 712 OFFCURVE",
"47 567 OFFCURVE",
"47 353 CURVE SMOOTH",
"47 138 OFFCURVE",
"170 -12 OFFCURVE",
"361 -12 CURVE SMOOTH"
);
}
);
width = 725;
},
{
anchors = (
{
name = bottom;
position = "{381, 0}";
},
{
name = top;
position = "{381, 700}";
}
);
layerId = "A6F5E7A4-47EF-4F55-BF18-0ACACB57A720";
paths = (
{
closed = 1;
nodes = (
"498 -12 OFFCURVE",
"566 33 OFFCURVE",
"616 115 CURVE",
"616 115 LINE",
"623 0 LINE",
"700 0 LINE",
"700 374 LINE",
"412 374 LINE",
"412 308 LINE",
"614 308 LINE",
"603 157 OFFCURVE",
"529 63 OFFCURVE",
"380 63 CURVE SMOOTH",
"235 63 OFFCURVE",
"135 170 OFFCURVE",
"135 349 CURVE SMOOTH",
"135 527 OFFCURVE",
"234 635 OFFCURVE",
"389 635 CURVE SMOOTH",
"499 635 OFFCURVE",
"571 582 OFFCURVE",
"590 498 CURVE",
"687 498 LINE",
"657 632 OFFCURVE",
"546 712 OFFCURVE",
"389 712 CURVE SMOOTH",
"181 712 OFFCURVE",
"49 563 OFFCURVE",
"49 349 CURVE SMOOTH",
"49 134 OFFCURVE",
"180 -12 OFFCURVE",
"377 -12 CURVE SMOOTH"
);
}
);
width = 762;
},
{
anchors = (
{
name = bottom;
position = "{401, 0}";
},
{
name = top;
position = "{401, 700}";
}
);
layerId = "1615C59E-33DE-4B88-B2CC-A48C7D56A125";
paths = (
{
closed = 1;
nodes = (
"470 -12 OFFCURVE",
"530 17 OFFCURVE",
"570 70 CURVE",
"570 70 LINE",
"583 0 LINE",
"741 0 LINE",
"741 396 LINE",
"419 396 LINE",
"419 270 LINE",
"570 270 LINE",
"556 198 OFFCURVE",
"505 139 OFFCURVE",
"401 139 CURVE SMOOTH",
"287 139 OFFCURVE",
"222 209 OFFCURVE",
"222 342 CURVE SMOOTH",
"222 472 OFFCURVE",
"284 554 OFFCURVE",
"408 554 CURVE SMOOTH",
"476 554 OFFCURVE",
"518 529 OFFCURVE",
"540 482 CURVE",
"728 482 LINE",
"695 626 OFFCURVE",
"579 712 OFFCURVE",
"409 712 CURVE SMOOTH",
"183 712 OFFCURVE",
"48 559 OFFCURVE",
"48 343 CURVE SMOOTH",
"48 129 OFFCURVE",
"180 -12 OFFCURVE",
"380 -12 CURVE SMOOTH"
);
}
);
width = 802;
},
{
anchors = (
{
name = bottom;
position = "{382, 0}";
},
{
name = top;
position = "{382, 700}";
}
);
layerId = "2D111E5E-352D-4630-9162-BCEF010D26CF";
paths = (
{
closed = 1;
nodes = (
"502 -12 OFFCURVE",
"575 38 OFFCURVE",
"624 131 CURVE",
"624 131 LINE",
"632 0 LINE",
"696 0 LINE",
"696 371 LINE",
"413 371 LINE",
"413 315 LINE",
"624 315 LINE",
"613 149 OFFCURVE",
"535 51 OFFCURVE",
"379 51 CURVE SMOOTH",
"228 51 OFFCURVE",
"124 164 OFFCURVE",
"124 350 CURVE SMOOTH",
"124 536 OFFCURVE",
"229 647 OFFCURVE",
"389 647 CURVE SMOOTH",
"506 647 OFFCURVE",
"581 590 OFFCURVE",
"602 500 CURVE",
"683 500 LINE",
"652 634 OFFCURVE",
"543 712 OFFCURVE",
"389 712 CURVE SMOOTH",
"183 712 OFFCURVE",
"52 564 OFFCURVE",
"52 350 CURVE SMOOTH",
"52 135 OFFCURVE",
"181 -12 OFFCURVE",
"377 -12 CURVE SMOOTH"
);
}
);
width = 763;
},
{
anchors = (
{
name = bottom;
position = "{350, 0}";
},
{
name = top;
position = "{350, 700}";
}
);
layerId = "5D382461-81E1-4DF2-8677-8A6F02AD5363";
paths = (
{
closed = 1;
nodes = (
"487 -12 OFFCURVE",
"579 54 OFFCURVE",
"624 188 CURVE",
"628 188 LINE",
"638 0 LINE",
"654 0 LINE",
"654 359 LINE",
"391 359 LINE",
"391 341 LINE",
"632 341 LINE",
"621 127 OFFCURVE",
"528 8 OFFCURVE",
"349 8 CURVE SMOOTH",
"176 8 OFFCURVE",
"57 142 OFFCURVE",
"57 353 CURVE SMOOTH",
"57 566 OFFCURVE",
"184 692 OFFCURVE",
"360 692 CURVE SMOOTH",
"505 692 OFFCURVE",
"588 618 OFFCURVE",
"619 508 CURVE",
"641 508 LINE",
"605 640 OFFCURVE",
"506 712 OFFCURVE",
"360 712 CURVE SMOOTH",
"164 712 OFFCURVE",
"35 567 OFFCURVE",
"35 353 CURVE SMOOTH",
"35 138 OFFCURVE",
"158 -12 OFFCURVE",
"349 -12 CURVE SMOOTH"
);
}
);
width = 699;
},
{
anchors = (
{
name = bottom;
position = "{362, 0}";
},
{
name = top;
position = "{362, 700}";
}
);
layerId = "3B8883BF-F483-4B97-AC7C-CABF8B821093";
paths = (
{
closed = 1;
nodes = (
"485 -12 OFFCURVE",
"551 52 OFFCURVE",
"602 137 CURVE",
"606 137 LINE",
"615 0 LINE",
"679 0 LINE",
"679 371 LINE",
"396 371 LINE",
"396 314 LINE",
"607 314 LINE",
"596 150 OFFCURVE",
"519 51 OFFCURVE",
"362 51 CURVE SMOOTH",
"212 51 OFFCURVE",
"107 164 OFFCURVE",
"107 350 CURVE SMOOTH",
"107 536 OFFCURVE",
"212 648 OFFCURVE",
"372 648 CURVE SMOOTH",
"488 648 OFFCURVE",
"565 590 OFFCURVE",
"584 500 CURVE",
"666 500 LINE",
"636 633 OFFCURVE",
"526 712 OFFCURVE",
"372 712 CURVE SMOOTH",
"166 712 OFFCURVE",
"35 564 OFFCURVE",
"35 350 CURVE SMOOTH",
"35 135 OFFCURVE",
"166 -12 OFFCURVE",
"362 -12 CURVE SMOOTH"
);
}
);
width = 724;
},
{
anchors = (
{
name = bottom;
position = "{366, 0}";
},
{
name = top;
position = "{366, 700}";
}
);
layerId = "F5F01D5B-AEA3-4AC3-B3D8-92550D1582D7";
paths = (
{
closed = 1;
nodes = (
"465 -12 OFFCURVE",
"543 42 OFFCURVE",
"598 143 CURVE",
"602 143 LINE",
"612 0 LINE",
"686 0 LINE",
"686 374 LINE",
"398 374 LINE",
"398 308 LINE",
"600 308 LINE",
"589 157 OFFCURVE",
"515 63 OFFCURVE",
"366 63 CURVE SMOOTH",
"221 63 OFFCURVE",
"121 170 OFFCURVE",
"121 349 CURVE SMOOTH",
"121 527 OFFCURVE",
"220 635 OFFCURVE",
"375 635 CURVE SMOOTH",
"485 635 OFFCURVE",
"557 582 OFFCURVE",
"576 498 CURVE",
"673 498 LINE",
"643 632 OFFCURVE",
"532 712 OFFCURVE",
"375 712 CURVE SMOOTH",
"167 712 OFFCURVE",
"35 563 OFFCURVE",
"35 349 CURVE SMOOTH",
"35 134 OFFCURVE",
"161 -12 OFFCURVE",
"355 -12 CURVE SMOOTH"
);
}
);
width = 731;
},
{
anchors = (
{
name = bottom;
position = "{386, 0}";
},
{
name = top;
position = "{386, 700}";
}
);
layerId = "A390C1A2-E540-434D-BB9E-4BCEE875BA63";
paths = (
{
closed = 1;
nodes = (
"437 -12 OFFCURVE",
"513 28 OFFCURVE",
"553 101 CURVE",
"557 101 LINE",
"569 0 LINE",
"727 0 LINE",
"727 396 LINE",
"405 396 LINE",
"405 270 LINE",
"556 270 LINE",
"542 198 OFFCURVE",
"491 139 OFFCURVE",
"387 139 CURVE SMOOTH",
"273 139 OFFCURVE",
"209 209 OFFCURVE",
"209 342 CURVE SMOOTH",
"209 472 OFFCURVE",
"270 554 OFFCURVE",
"394 554 CURVE SMOOTH",
"462 554 OFFCURVE",
"504 529 OFFCURVE",
"526 482 CURVE",
"715 482 LINE",
"682 626 OFFCURVE",
"565 712 OFFCURVE",
"395 712 CURVE SMOOTH",
"169 712 OFFCURVE",
"35 559 OFFCURVE",
"35 343 CURVE SMOOTH",
"35 129 OFFCURVE",
"166 -12 OFFCURVE",
"343 -12 CURVE SMOOTH"
);
}
);
width = 772;
},
{
anchors = (
{
name = bottom;
position = "{376, 0}";
},
{
name = top;
position = "{376, 700}";
}
);
color = -1;
layerId = "12552169-0282-4A31-82CC-880002E60A2C";
paths = (
{
closed = 1;
nodes = (
"501 -12 OFFCURVE",
"570 36 OFFCURVE",
"622 122 CURVE",
"622 122 LINE",
"628 0 LINE",
"692 0 LINE",
"692 371 LINE",
"409 371 LINE",
"409 314 LINE",
"620 314 LINE",
"609 150 OFFCURVE",
"532 51 OFFCURVE",
"375 51 CURVE SMOOTH",
"225 51 OFFCURVE",
"120 164 OFFCURVE",
"120 350 CURVE SMOOTH",
"120 536 OFFCURVE",
"225 648 OFFCURVE",
"385 648 CURVE SMOOTH",
"501 648 OFFCURVE",
"578 590 OFFCURVE",
"597 500 CURVE",
"679 500 LINE",
"649 633 OFFCURVE",
"539 712 OFFCURVE",
"385 712 CURVE SMOOTH",
"179 712 OFFCURVE",
"48 564 OFFCURVE",
"48 350 CURVE SMOOTH",
"48 135 OFFCURVE",
"179 -12 OFFCURVE",
"375 -12 CURVE SMOOTH"
);
}
);
width = 752;
},
{
anchors = (
{
name = bottom;
position = "{379, 0}";
},
{
name = top;
position = "{379, 700}";
}
);
color = -1;
layerId = "44982FF8-7820-4F75-948C-97259056F879";
paths = (
{
closed = 1;
nodes = (
"496 -12 OFFCURVE",
"564 33 OFFCURVE",
"614 115 CURVE",
"614 115 LINE",
"621 0 LINE",
"698 0 LINE",
"698 374 LINE",
"410 374 LINE",
"410 308 LINE",
"612 308 LINE",
"601 157 OFFCURVE",
"527 63 OFFCURVE",
"378 63 CURVE SMOOTH",
"233 63 OFFCURVE",
"133 170 OFFCURVE",
"133 349 CURVE SMOOTH",
"133 527 OFFCURVE",
"232 635 OFFCURVE",
"387 635 CURVE SMOOTH",
"497 635 OFFCURVE",
"569 582 OFFCURVE",
"588 498 CURVE",
"685 498 LINE",
"655 632 OFFCURVE",
"544 712 OFFCURVE",
"387 712 CURVE SMOOTH",
"179 712 OFFCURVE",
"47 563 OFFCURVE",
"47 349 CURVE SMOOTH",
"47 134 OFFCURVE",
"178 -12 OFFCURVE",
"375 -12 CURVE SMOOTH"
);
}
);
width = 757;
},
{
anchors = (
{
name = bottom;
position = "{394, 0}";
},
{
name = top;
position = "{394, 700}";
}
);
color = -1;
layerId = "84B0614D-4B2F-419D-B7F2-5B7DD4CAD23C";
paths = (
{
closed = 1;
nodes = (
"464 -12 OFFCURVE",
"524 17 OFFCURVE",
"564 70 CURVE",
"564 70 LINE",
"577 0 LINE",
"735 0 LINE",
"735 396 LINE",
"413 396 LINE",
"413 270 LINE",
"564 270 LINE",
"550 198 OFFCURVE",
"499 139 OFFCURVE",
"395 139 CURVE SMOOTH",
"281 139 OFFCURVE",
"217 209 OFFCURVE",
"217 342 CURVE SMOOTH",
"217 472 OFFCURVE",
"278 554 OFFCURVE",
"402 554 CURVE SMOOTH",
"470 554 OFFCURVE",
"512 529 OFFCURVE",
"534 482 CURVE",
"723 482 LINE",
"690 626 OFFCURVE",
"573 712 OFFCURVE",
"403 712 CURVE SMOOTH",
"177 712 OFFCURVE",
"43 559 OFFCURVE",
"43 343 CURVE SMOOTH",
"43 129 OFFCURVE",
"174 -12 OFFCURVE",
"374 -12 CURVE SMOOTH"
);
}
);
width = 788;
},
{
anchors = (
{
name = bottom;
position = "{364, 0}";
},
{
name = top;
position = "{364, 700}";
}
);
layerId = "90D50F69-F6F7-4633-9462-ED0440D3064F";
paths = (
{
closed = 1;
nodes = (
"501 -12 OFFCURVE",
"598 60 OFFCURVE",
"643 194 CURVE",
"643 194 LINE",
"651 0 LINE",
"667 0 LINE",
"667 359 LINE",
"404 359 LINE",
"404 341 LINE",
"645 341 LINE",
"634 127 OFFCURVE",
"541 8 OFFCURVE",
"362 8 CURVE SMOOTH",
"189 8 OFFCURVE",
"70 142 OFFCURVE",
"70 353 CURVE SMOOTH",
"70 566 OFFCURVE",
"197 692 OFFCURVE",
"373 692 CURVE SMOOTH",
"518 692 OFFCURVE",
"601 618 OFFCURVE",
"632 508 CURVE",
"654 508 LINE",
"618 640 OFFCURVE",
"519 712 OFFCURVE",
"373 712 CURVE SMOOTH",
"177 712 OFFCURVE",
"48 567 OFFCURVE",
"48 353 CURVE SMOOTH",
"48 138 OFFCURVE",
"171 -12 OFFCURVE",
"362 -12 CURVE SMOOTH"
);
}
);
width = 727;
}
);
leftKerningGroup = O;
leftMetricsKey = O;
rightKerningGroup = G;
unicode = 0047;
userData = {
com.schriftgestaltung.Glyphs.ColorIndex = 4;
com.typemytype.robofont.layerData = {
b = {
anchors = (
{
name = top;
x = 411;
y = 683;
},
{
name = bottom;
x = 411;
y = 0;
}
);
components = (
);
contours = (
{
points = (
{
segmentType = curve;
smooth = 1;
x = 60;
y = 341;
},
{
smooth = 0;
x = 60;
y = 138;
},
{
smooth = 0;
x = 214;
y = -6;
},
{
segmentType = curve;
smooth = 1;
x = 407;
y = -6;
},
{
smooth = 0;
x = 590;
y = -6;
},
{
smooth = 0;
x = 747;
y = 110;
},
{
segmentType = curve;
smooth = 0;
x = 764;
y = 341;
},
{
segmentType = line;
smooth = 0;
x = 764;
y = 360;
},
{
segmentType = line;
smooth = 0;
x = 381;
y = 360;
},
{
segmentType = line;
smooth = 0;
x = 381;
y = 341;
},
{
segmentType = line;
smooth = 0;
x = 747;
y = 341;
},
{
smooth = 0;
x = 733;
y = 132;
},
{
smooth = 0;
x = 600;
y = 6;
},
{
segmentType = curve;
smooth = 1;
x = 407;
y = 6;
},
{
smooth = 0;
x = 226;
y = 6;
},
{
smooth = 0;
x = 80;
y = 137;
},
{
segmentType = curve;
smooth = 1;
x = 80;
y = 341;
},
{
smooth = 0;
x = 80;
y = 547;
},
{
smooth = 0;
x = 226;
y = 677;
},
{
segmentType = curve;
smooth = 1;
x = 407;
y = 677;
},
{
smooth = 0;
x = 528;
y = 677;
},
{
smooth = 0;
x = 633;
y = 618;
},
{
segmentType = curve;
smooth = 0;
x = 683;
y = 525;
},
{
segmentType = line;
smooth = 0;
x = 709;
y = 525;
},
{
smooth = 0;
x = 648;
y = 637;
},
{
smooth = 0;
x = 537;
y = 690;
},
{
segmentType = curve;
smooth = 1;
x = 407;
y = 690;
},
{
smooth = 0;
x = 214;
y = 690;
},
{
smooth = 0;
x = 60;
y = 546;
}
);
}
);
lib = {
};
name = G;
unicodes = (
);
width = 792;
};
};
com.typesupply.AccentFactory.yCoordinates = {
bottom = {
name = origin;
type = glyphMetric;
};
top = {
name = capHeight;
type = fontInfo;
};
};
};
},
{
glyphname = H;
lastChange = "2023-05-19 14:07:26 +0000";
layers = (
{
layerId = "EB62C368-BB48-47C0-A466-DA94204A0DE4";
paths = (
{
closed = 1;
nodes = (
"554 0 LINE",
"554 700 LINE",
"534 700 LINE",
"534 0 LINE"
);
},
{
closed = 1;
nodes = (
"98 0 LINE",
"98 700 LINE",
"78 700 LINE",
"78 0 LINE"
);
},
{
closed = 1;
nodes = (
"550 348 LINE",
"550 366 LINE",
"84 366 LINE",
"84 348 LINE"
);
}
);
width = 631;
},
{
layerId = "A6F5E7A4-47EF-4F55-BF18-0ACACB57A720";
paths = (
{
closed = 1;
nodes = (
"608 0 LINE",
"608 700 LINE",
"524 700 LINE",
"524 0 LINE"
);
},
{
closed = 1;
nodes = (
"161 0 LINE",
"161 700 LINE",
"77 700 LINE",
"77 0 LINE"
);
},
{
closed = 1;
nodes = (
"545 322 LINE",
"545 391 LINE",
"145 391 LINE",
"145 322 LINE"
);
}
);
width = 685;
},
{
layerId = "1615C59E-33DE-4B88-B2CC-A48C7D56A125";
paths = (
{
closed = 1;
nodes = (
"680 0 LINE",
"680 700 LINE",
"509 700 LINE",
"509 0 LINE"
);
},
{
closed = 1;
nodes = (
"243 0 LINE",
"243 700 LINE",
"72 700 LINE",
"72 0 LINE"
);
},
{
closed = 1;
nodes = (
"533 289 LINE",
"533 427 LINE",
"223 427 LINE",
"223 289 LINE"
);
}
);
width = 752;
},
{
layerId = "2D111E5E-352D-4630-9162-BCEF010D26CF";
paths = (
{
closed = 1;
nodes = (
"603 0 LINE",
"603 700 LINE",
"533 700 LINE",
"533 0 LINE"
);
},
{
closed = 1;
nodes = (
"154 0 LINE",
"154 700 LINE",
"84 700 LINE",
"84 0 LINE"
);
},
{
closed = 1;
nodes = (
"553 328 LINE",
"553 386 LINE",
"138 386 LINE",
"138 328 LINE"
);
}
);
width = 687;
},
{
layerId = "5D382461-81E1-4DF2-8677-8A6F02AD5363";
paths = (
{
closed = 1;
nodes = (
"521 0 LINE",
"521 700 LINE",
"501 700 LINE",
"501 0 LINE"
);
},
{
closed = 1;
nodes = (
"65 0 LINE",
"65 700 LINE",
"45 700 LINE",
"45 0 LINE"
);
},
{
closed = 1;
nodes = (
"517 348 LINE",
"517 366 LINE",
"51 366 LINE",
"51 348 LINE"
);
}
);
width = 566;
},
{
layerId = "3B8883BF-F483-4B97-AC7C-CABF8B821093";
paths = (
{
closed = 1;
nodes = (
"564 0 LINE",
"564 700 LINE",
"494 700 LINE",
"494 0 LINE"
);
},
{
closed = 1;
nodes = (
"115 0 LINE",
"115 700 LINE",
"45 700 LINE",
"45 0 LINE"
);
},
{
closed = 1;
nodes = (
"514 328 LINE",
"514 386 LINE",
"99 386 LINE",
"99 328 LINE"
);
}
);
width = 609;
},
{
layerId = "F5F01D5B-AEA3-4AC3-B3D8-92550D1582D7";
paths = (
{
closed = 1;
nodes = (
"576 0 LINE",
"576 700 LINE",
"492 700 LINE",
"492 0 LINE"
);
},
{
closed = 1;
nodes = (
"129 0 LINE",
"129 700 LINE",
"45 700 LINE",
"45 0 LINE"
);
},
{
closed = 1;
nodes = (
"513 322 LINE",
"513 391 LINE",
"113 391 LINE",
"113 322 LINE"
);
}
);
width = 621;
},
{
layerId = "A390C1A2-E540-434D-BB9E-4BCEE875BA63";
paths = (
{
closed = 1;
nodes = (
"653 0 LINE",
"653 700 LINE",
"482 700 LINE",
"482 0 LINE"
);
},
{
closed = 1;
nodes = (
"216 0 LINE",
"216 700 LINE",
"45 700 LINE",
"45 0 LINE"
);
},
{
closed = 1;
nodes = (
"506 289 LINE",
"506 427 LINE",
"196 427 LINE",
"196 289 LINE"
);
}
);
width = 698;
},
{
color = -1;
layerId = "12552169-0282-4A31-82CC-880002E60A2C";
paths = (
{
closed = 1;
nodes = (
"595 0 LINE",
"595 700 LINE",
"525 700 LINE",
"525 0 LINE"
);
},
{
closed = 1;
nodes = (
"146 0 LINE",
"146 700 LINE",
"76 700 LINE",
"76 0 LINE"
);
},
{
closed = 1;
nodes = (
"545 327 LINE",
"545 385 LINE",
"130 385 LINE",
"130 327 LINE"
);
}
);
width = 671;
},
{
color = -1;
layerId = "44982FF8-7820-4F75-948C-97259056F879";
paths = (
{
closed = 1;
nodes = (
"605 0 LINE",
"605 700 LINE",
"521 700 LINE",
"521 0 LINE"
);
},
{
closed = 1;
nodes = (
"158 0 LINE",
"158 700 LINE",
"74 700 LINE",
"74 0 LINE"
);
},
{
closed = 1;
nodes = (
"542 322 LINE",
"542 391 LINE",
"142 391 LINE",
"142 322 LINE"
);
}
);
width = 679;
},
{
color = -1;
layerId = "84B0614D-4B2F-419D-B7F2-5B7DD4CAD23C";
paths = (
{
closed = 1;
nodes = (
"670 0 LINE",
"670 700 LINE",
"499 700 LINE",
"499 0 LINE"
);
},
{
closed = 1;
nodes = (
"233 0 LINE",
"233 700 LINE",
"62 700 LINE",
"62 0 LINE"
);
},
{
closed = 1;
nodes = (
"523 289 LINE",
"523 427 LINE",
"213 427 LINE",
"213 289 LINE"
);
}
);
width = 732;
},
{
layerId = "90D50F69-F6F7-4633-9462-ED0440D3064F";
paths = (
{
closed = 1;
nodes = (
"552 0 LINE",
"552 700 LINE",
"532 700 LINE",
"532 0 LINE"
);
},
{
closed = 1;
nodes = (
"96 0 LINE",
"96 700 LINE",
"76 700 LINE",
"76 0 LINE"
);
},
{
closed = 1;
nodes = (
"548 348 LINE",
"548 366 LINE",
"82 366 LINE",
"82 348 LINE"
);
}
);
width = 628;
}
);
leftKerningGroup = H;
rightKerningGroup = H;
unicode = 0048;
userData = {
com.schriftgestaltung.Glyphs.ColorIndex = 4;
com.typesupply.AccentFactory.yCoordinates = {
bottom = {
name = origin;
type = glyphMetric;
};
top = {
name = capHeight;
type = fontInfo;
};
};
};
},
{
glyphname = Hbar;
lastChange = "2023-05-19 14:07:26 +0000";
layers = (
{
components = (
{
name = H;
transform = "{1, 0, 0, 1, 34, 0}";
}
);
layerId = "EB62C368-BB48-47C0-A466-DA94204A0DE4";
paths = (
{
closed = 1;
nodes = (
"651 524 LINE",
"651 542 LINE",
"50 542 LINE",
"50 524 LINE"
);
}
);
width = 701;
},
{
components = (
{
name = H;
transform = "{1, 0, 0, 1, 21, 0}";
}
);
layerId = "2D111E5E-352D-4630-9162-BCEF010D26CF";
paths = (
{
closed = 1;
nodes = (
"694 500 LINE",
"694 565 LINE",
"35 565 LINE",
"35 500 LINE"
);
}
);
width = 729;
},
{
components = (
{
name = H;
transform = "{1, 0, 0, 1, 32, 0}";
}
);
layerId = "A6F5E7A4-47EF-4F55-BF18-0ACACB57A720";
paths = (
{
closed = 1;
nodes = (
"709 495 LINE",
"709 571 LINE",
"40 571 LINE",
"40 495 LINE"
);
}
);
width = 749;
},
{
components = (
{
name = H;
transform = "{1, 0, 0, 1, 19, 0}";
}
);
layerId = "1615C59E-33DE-4B88-B2CC-A48C7D56A125";
paths = (
{
closed = 1;
nodes = (
"769 492 LINE",
"769 622 LINE",
"20 622 LINE",
"20 492 LINE"
);
}
);
width = 789;
},
{
components = (
{
name = H;
transform = "{1, 0, 0, 1, 37, 0}";
}
);
layerId = "90D50F69-F6F7-4633-9462-ED0440D3064F";
paths = (
{
closed = 1;
nodes = (
"651 524 LINE",
"651 542 LINE",
"50 542 LINE",
"50 524 LINE"
);
}
);
width = 701;
},
{
components = (
{
name = H;
transform = "{1, 0, 0, 1, 29, 0}";
}
);
layerId = "12552169-0282-4A31-82CC-880002E60A2C";
paths = (
{
closed = 1;
nodes = (
"694 500 LINE",
"694 565 LINE",
"35 565 LINE",
"35 500 LINE"
);
}
);
width = 729;
},
{
components = (
{
name = H;
transform = "{1, 0, 0, 1, 35, 0}";
}
);
layerId = "44982FF8-7820-4F75-948C-97259056F879";
paths = (
{
closed = 1;
nodes = (
"709 495 LINE",
"709 571 LINE",
"40 571 LINE",
"40 495 LINE"
);
}
);
width = 749;
},
{
components = (
{
name = H;
transform = "{1, 0, 0, 1, 29, 0}";
}
);
layerId = "84B0614D-4B2F-419D-B7F2-5B7DD4CAD23C";
paths = (
{
closed = 1;
nodes = (
"769 492 LINE",
"769 622 LINE",
"20 622 LINE",
"20 492 LINE"
);
}
);
width = 789;
},
{
components = (
{
name = H;
transform = "{1, 0, 0, 1, 28, 0}";
}
);
layerId = "5D382461-81E1-4DF2-8677-8A6F02AD5363";
paths = (
{
closed = 1;
nodes = (
"611 524 LINE",
"611 542 LINE",
"10 542 LINE",
"10 524 LINE"
);
}
);
width = 621;
},
{
components = (
{
name = H;
transform = "{1, 0, 0, 1, 35, 0}";
}
);
layerId = "3B8883BF-F483-4B97-AC7C-CABF8B821093";
paths = (
{
closed = 1;
nodes = (
"669 500 LINE",
"669 565 LINE",
"10 565 LINE",
"10 500 LINE"
);
}
);
width = 679;
},
{
components = (
{
name = H;
transform = "{1, 0, 0, 1, 64, 0}";
}
);
layerId = "F5F01D5B-AEA3-4AC3-B3D8-92550D1582D7";
paths = (
{
closed = 1;
nodes = (
"709 495 LINE",
"709 571 LINE",
"40 571 LINE",
"40 495 LINE"
);
}
);
width = 749;
},
{
components = (
{
name = H;
transform = "{1, 0, 0, 1, 36, 0}";
}
);
layerId = "A390C1A2-E540-434D-BB9E-4BCEE875BA63";
paths = (
{
closed = 1;
nodes = (
"749 492 LINE",
"749 622 LINE",
"20 622 LINE",
"20 492 LINE"
);
}
);
width = 769;
}
);
unicode = 0126;
},
{
glyphname = I;
lastChange = "2023-05-19 14:07:26 +0000";
layers = (
{
anchors = (
{
name = ogonek;
position = "{98, 0}";
},
{
name = top;
position = "{88, 700}";
}
);
layerId = "EB62C368-BB48-47C0-A466-DA94204A0DE4";
paths = (
{
closed = 1;
nodes = (
"98 0 LINE",
"98 700 LINE",
"78 700 LINE",
"78 0 LINE"
);
}
);
width = 175;
},
{
anchors = (
{
name = ogonek;
position = "{161, 1}";
},
{
name = top;
position = "{119, 700}";
}
);
layerId = "A6F5E7A4-47EF-4F55-BF18-0ACACB57A720";
paths = (
{
closed = 1;
nodes = (
"161 0 LINE",
"161 700 LINE",
"77 700 LINE",
"77 0 LINE"
);
}
);
width = 238;
},
{
anchors = (
{
name = ogonek;
position = "{243, 0}";
},
{
name = top;
position = "{158, 700}";
}
);
layerId = "1615C59E-33DE-4B88-B2CC-A48C7D56A125";
paths = (
{
closed = 1;
nodes = (
"243 0 LINE",
"243 700 LINE",
"72 700 LINE",
"72 0 LINE"
);
}
);
width = 315;
},
{
anchors = (
{
name = ogonek;
position = "{154, 1}";
},
{
name = top;
position = "{119, 700}";
}
);
layerId = "2D111E5E-352D-4630-9162-BCEF010D26CF";
paths = (
{
closed = 1;
nodes = (
"154 0 LINE",
"154 700 LINE",
"84 700 LINE",
"84 0 LINE"
);
}
);
width = 238;
},
{
anchors = (
{
name = ogonek;
position = "{65, 0}";
},
{
name = top;
position = "{55, 700}";
}
);
layerId = "5D382461-81E1-4DF2-8677-8A6F02AD5363";
paths = (
{
closed = 1;
nodes = (
"65 0 LINE",
"65 700 LINE",
"45 700 LINE",
"45 0 LINE"
);
}
);
width = 110;
},
{
anchors = (
{
name = ogonek;
position = "{115, 0}";
},
{
name = top;
position = "{80, 700}";
}
);
layerId = "3B8883BF-F483-4B97-AC7C-CABF8B821093";
paths = (
{
closed = 1;
nodes = (
"115 0 LINE",
"115 700 LINE",
"45 700 LINE",
"45 0 LINE"
);
}
);
width = 160;
},
{
anchors = (
{
name = ogonek;
position = "{129, 0}";
},
{
name = top;
position = "{87, 700}";
}
);
layerId = "F5F01D5B-AEA3-4AC3-B3D8-92550D1582D7";
paths = (
{
closed = 1;
nodes = (
"129 0 LINE",
"129 700 LINE",
"45 700 LINE",
"45 0 LINE"
);
}
);
width = 174;
},
{
anchors = (
{
name = ogonek;
position = "{216, 0}";
},
{
name = top;
position = "{131, 700}";
}
);
layerId = "A390C1A2-E540-434D-BB9E-4BCEE875BA63";
paths = (
{
closed = 1;
nodes = (
"216 0 LINE",
"216 700 LINE",
"45 700 LINE",
"45 0 LINE"
);
}
);
width = 261;
},
{
anchors = (
{
name = ogonek;
position = "{146, 1}";
},
{
name = top;
position = "{111, 700}";
}
);
color = -1;
layerId = "12552169-0282-4A31-82CC-880002E60A2C";
paths = (
{
closed = 1;
nodes = (
"146 0 LINE",
"146 700 LINE",
"76 700 LINE",
"76 0 LINE"
);
}
);
width = 222;
},
{
anchors = (
{
name = ogonek;
position = "{158, 1}";
},
{
name = top;
position = "{116, 700}";
}
);
color = -1;
layerId = "44982FF8-7820-4F75-948C-97259056F879";
paths = (
{
closed = 1;
nodes = (
"158 0 LINE",
"158 700 LINE",
"74 700 LINE",
"74 0 LINE"
);
}
);
width = 232;
},
{
anchors = (
{
name = ogonek;
position = "{233, 0}";
},
{
name = top;
position = "{148, 700}";
}
);
color = -1;
layerId = "84B0614D-4B2F-419D-B7F2-5B7DD4CAD23C";
paths = (
{
closed = 1;
nodes = (
"233 0 LINE",
"233 700 LINE",
"62 700 LINE",
"62 0 LINE"
);
}
);
width = 295;
},
{
anchors = (
{
name = ogonek;
position = "{96, 0}";
},
{
name = top;
position = "{86, 700}";
}
);
layerId = "90D50F69-F6F7-4633-9462-ED0440D3064F";
paths = (
{
closed = 1;
nodes = (
"96 0 LINE",
"96 700 LINE",
"76 700 LINE",
"76 0 LINE"
);
}
);
width = 172;
}
);
leftKerningGroup = H;
leftMetricsKey = H;
rightKerningGroup = H;
rightMetricsKey = H;
unicode = 0049;
userData = {
com.schriftgestaltung.Glyphs.ColorIndex = 4;
com.typemytype.robofont.guides = (
{
angle = 0;
isGlobal = 0;
magnetic = 5;
x = 83;
y = 684;
}
);
com.typesupply.AccentFactory.yCoordinates = {
bottom = {
name = origin;
type = glyphMetric;
};
top = {
name = capHeight;
type = fontInfo;
};
};
};
},
{
glyphname = J;
lastChange = "2023-05-19 14:07:26 +0000";
layers = (
{
layerId = "EB62C368-BB48-47C0-A466-DA94204A0DE4";
paths = (
{
closed = 1;
nodes = (
"307 -12 OFFCURVE",
"367 46 OFFCURVE",
"367 162 CURVE SMOOTH",
"367 700 LINE",
"347 700 LINE",
"347 162 LINE SMOOTH",
"347 79 OFFCURVE",
"314 8 OFFCURVE",
"198 8 CURVE SMOOTH",
"80 8 OFFCURVE",
"48 79 OFFCURVE",
"45 156 CURVE",
"24 156 LINE",
"24 54 OFFCURVE",
"84 -12 OFFCURVE",
"195 -12 CURVE SMOOTH"
);
}
);
width = 444;
},
{
layerId = "A6F5E7A4-47EF-4F55-BF18-0ACACB57A720";
paths = (
{
closed = 1;
nodes = (
"357 -12 OFFCURVE",
"430 60 OFFCURVE",
"430 185 CURVE SMOOTH",
"430 700 LINE",
"346 700 LINE",
"346 185 LINE SMOOTH",
"346 115 OFFCURVE",
"318 63 OFFCURVE",
"234 63 CURVE SMOOTH",
"148 63 OFFCURVE",
"117 117 OFFCURVE",
"117 188 CURVE",
"32 188 LINE",
"32 63 OFFCURVE",
"109 -12 OFFCURVE",
"235 -12 CURVE SMOOTH"
);
}
);
width = 507;
},
{
layerId = "1615C59E-33DE-4B88-B2CC-A48C7D56A125";
paths = (
{
closed = 1;
nodes = (
"422 -12 OFFCURVE",
"514 68 OFFCURVE",
"514 219 CURVE SMOOTH",
"514 700 LINE",
"343 700 LINE",
"343 219 LINE SMOOTH",
"343 167 OFFCURVE",
"319 141 OFFCURVE",
"278 141 CURVE SMOOTH",
"234 141 OFFCURVE",
"208 170 OFFCURVE",
"208 230 CURVE",
"38 230 LINE",
"38 72 OFFCURVE",
"139 -12 OFFCURVE",
"283 -12 CURVE SMOOTH"
);
}
);
width = 586;
},
{
layerId = "2D111E5E-352D-4630-9162-BCEF010D26CF";
paths = (
{
closed = 1;
nodes = (
"353 -12 OFFCURVE",
"423 57 OFFCURVE",
"423 180 CURVE SMOOTH",
"423 700 LINE",
"353 700 LINE",
"353 180 LINE SMOOTH",
"353 107 OFFCURVE",
"324 51 OFFCURVE",
"233 51 CURVE SMOOTH",
"140 51 OFFCURVE",
"109 109 OFFCURVE",
"107.998 181 CURVE",
"36.998 181 LINE",
"37 61 OFFCURVE",
"110 -12 OFFCURVE",
"232.998 -12 CURVE SMOOTH"
);
}
);
width = 507;
},
{
layerId = "5D382461-81E1-4DF2-8677-8A6F02AD5363";
paths = (
{
closed = 1;
nodes = (
"303 -12 OFFCURVE",
"363 46 OFFCURVE",
"363 162 CURVE SMOOTH",
"363 700 LINE",
"343 700 LINE",
"343 162 LINE SMOOTH",
"343 79 OFFCURVE",
"310 8 OFFCURVE",
"194 8 CURVE SMOOTH",
"76 8 OFFCURVE",
"44 79 OFFCURVE",
"41 156 CURVE",
"20 156 LINE",
"20 54 OFFCURVE",
"80 -12 OFFCURVE",
"191 -12 CURVE SMOOTH"
);
}
);
width = 408;
},
{
layerId = "3B8883BF-F483-4B97-AC7C-CABF8B821093";
paths = (
{
closed = 1;
nodes = (
"336 -12 OFFCURVE",
"406 59 OFFCURVE",
"406 180 CURVE SMOOTH",
"406 700 LINE",
"336 700 LINE",
"336 180 LINE SMOOTH",
"336 107 OFFCURVE",
"307 50 OFFCURVE",
"216 50 CURVE SMOOTH",
"123 50 OFFCURVE",
"92 109 OFFCURVE",
"91 181 CURVE",
"20 181 LINE",
"20 61 OFFCURVE",
"93 -12 OFFCURVE",
"216 -12 CURVE SMOOTH"
);
}
);
width = 451;
},
{
layerId = "F5F01D5B-AEA3-4AC3-B3D8-92550D1582D7";
paths = (
{
closed = 1;
nodes = (
"345 -12 OFFCURVE",
"418 60 OFFCURVE",
"418 185 CURVE SMOOTH",
"418 700 LINE",
"334 700 LINE",
"334 185 LINE SMOOTH",
"334 115 OFFCURVE",
"306 63 OFFCURVE",
"222 63 CURVE SMOOTH",
"136 63 OFFCURVE",
"105 117 OFFCURVE",
"105 188 CURVE",
"20 188 LINE",
"20 63 OFFCURVE",
"97 -12 OFFCURVE",
"223 -12 CURVE SMOOTH"
);
}
);
width = 463;
},
{
layerId = "A390C1A2-E540-434D-BB9E-4BCEE875BA63";
paths = (
{
closed = 1;
nodes = (
"404 -12 OFFCURVE",
"496 68 OFFCURVE",
"496 219 CURVE SMOOTH",
"496 700 LINE",
"325 700 LINE",
"325 219 LINE SMOOTH",
"325 167 OFFCURVE",
"301 141 OFFCURVE",
"260 141 CURVE SMOOTH",
"216 141 OFFCURVE",
"190 170 OFFCURVE",
"190 230 CURVE",
"20 230 LINE",
"20 72 OFFCURVE",
"121 -12 OFFCURVE",
"265 -12 CURVE SMOOTH"
);
}
);
width = 541;
},
{
color = -1;
layerId = "12552169-0282-4A31-82CC-880002E60A2C";
paths = (
{
closed = 1;
nodes = (
"343 -12 OFFCURVE",
"413 59 OFFCURVE",
"413 180 CURVE SMOOTH",
"413 700 LINE",
"343 700 LINE",
"343 180 LINE SMOOTH",
"343 107 OFFCURVE",
"314 50 OFFCURVE",
"223 50 CURVE SMOOTH",
"130 50 OFFCURVE",
"99 109 OFFCURVE",
"98 181 CURVE",
"27 181 LINE",
"27 61 OFFCURVE",
"100 -12 OFFCURVE",
"223 -12 CURVE SMOOTH"
);
}
);
width = 489;
},
{
color = -1;
layerId = "44982FF8-7820-4F75-948C-97259056F879";
paths = (
{
closed = 1;
nodes = (
"352 -12 OFFCURVE",
"425 60 OFFCURVE",
"425 185 CURVE SMOOTH",
"425 700 LINE",
"341 700 LINE",
"341 185 LINE SMOOTH",
"341 115 OFFCURVE",
"313 63 OFFCURVE",
"229 63 CURVE SMOOTH",
"143 63 OFFCURVE",
"112 117 OFFCURVE",
"112 188 CURVE",
"27 188 LINE",
"27 63 OFFCURVE",
"104 -12 OFFCURVE",
"230 -12 CURVE SMOOTH"
);
}
);
width = 499;
},
{
color = -1;
layerId = "84B0614D-4B2F-419D-B7F2-5B7DD4CAD23C";
paths = (
{
closed = 1;
nodes = (
"410 -12 OFFCURVE",
"502 68 OFFCURVE",
"502 219 CURVE SMOOTH",
"502 700 LINE",
"331 700 LINE",
"331 219 LINE SMOOTH",
"331 167 OFFCURVE",
"307 141 OFFCURVE",
"266 141 CURVE SMOOTH",
"222 141 OFFCURVE",
"196 170 OFFCURVE",
"196 230 CURVE",
"26 230 LINE",
"26 72 OFFCURVE",
"127 -12 OFFCURVE",
"271 -12 CURVE SMOOTH"
);
}
);
width = 564;
},
{
layerId = "90D50F69-F6F7-4633-9462-ED0440D3064F";
paths = (
{
closed = 1;
nodes = (
"310 -12 OFFCURVE",
"370 46 OFFCURVE",
"370 162 CURVE SMOOTH",
"370 700 LINE",
"350 700 LINE",
"350 162 LINE SMOOTH",
"350 79 OFFCURVE",
"317 8 OFFCURVE",
"201 8 CURVE SMOOTH",
"83 8 OFFCURVE",
"51 79 OFFCURVE",
"48 156 CURVE",
"27 156 LINE",
"27 54 OFFCURVE",
"87 -12 OFFCURVE",
"198 -12 CURVE SMOOTH"
);
}
);
width = 446;
}
);
rightMetricsKey = H;
unicode = 004A;
userData = {
com.schriftgestaltung.Glyphs.ColorIndex = 4;
com.typesupply.AccentFactory.yCoordinates = {
bottom = {
name = origin;
type = glyphMetric;
};
top = {
name = capHeight;
type = fontInfo;
};
};
};
},
{
glyphname = K;
lastChange = "2023-05-19 14:07:26 +0000";
layers = (
{
anchors = (
{
name = bottom;
position = "{248, 0}";
},
{
name = top;
position = "{248, 700}";
}
);
layerId = "EB62C368-BB48-47C0-A466-DA94204A0DE4";
paths = (
{
closed = 1;
nodes = (
"98 0 LINE",
"98 305 LINE",
"190 403 LINE",
"445 0 LINE",
"468 0 LINE",
"205 419 LINE",
"469 700 LINE",
"438 700 LINE",
"98 333 LINE",
"98 700 LINE",
"78 700 LINE",
"78 0 LINE"
);
}
);
width = 489;
},
{
anchors = (
{
name = bottom;
position = "{296, 0}";
},
{
name = top;
position = "{296, 700}";
}
);
layerId = "A6F5E7A4-47EF-4F55-BF18-0ACACB57A720";
paths = (
{
closed = 1;
nodes = (
"161 0 LINE",
"161 273 LINE",
"239 356 LINE",
"461 0 LINE",
"563 0 LINE",
"299 421 LINE",
"559 700 LINE",
"453 700 LINE",
"161 383 LINE",
"161 700 LINE",
"77 700 LINE",
"77 0 LINE"
);
}
);
width = 590;
},
{
anchors = (
{
name = bottom;
position = "{357, 0}";
},
{
name = top;
position = "{357, 700}";
}
);
layerId = "1615C59E-33DE-4B88-B2CC-A48C7D56A125";
paths = (
{
closed = 1;
nodes = (
"243 0 LINE",
"243 230 LINE",
"300 292 LINE",
"479 0 LINE",
"688 0 LINE",
"422 424 LINE",
"678 700 LINE",
"469 700 LINE",
"243 451 LINE",
"243 700 LINE",
"72 700 LINE",
"72 0 LINE"
);
}
);
width = 717;
},
{
anchors = (
{
name = bottom;
position = "{292, 0}";
},
{
name = top;
position = "{292, 700}";
}
);
layerId = "2D111E5E-352D-4630-9162-BCEF010D26CF";
paths = (
{
closed = 1;
nodes = (
"154 0 LINE",
"154 280 LINE",
"235 366 LINE",
"464 0 LINE",
"549 0 LINE",
"285 421 LINE",
"546 700 LINE",
"456 700 LINE",
"154 372 LINE",
"154 700 LINE",
"84 700 LINE",
"84 0 LINE"
);
}
);
width = 579;
},
{
anchors = (
{
name = bottom;
position = "{221, 0}";
},
{
name = top;
position = "{221, 700}";
}
);
layerId = "5D382461-81E1-4DF2-8677-8A6F02AD5363";
paths = (
{
closed = 1;
nodes = (
"65 0 LINE",
"65 339 LINE",
"65 339 LINE",
"405 0 LINE",
"436 0 LINE",
"81 351 LINE",
"432 700 LINE",
"404 700 LINE",
"65 362 LINE",
"65 700 LINE",
"45 700 LINE",
"45 0 LINE"
);
}
);
width = 441;
},
{
anchors = (
{
name = bottom;
position = "{258, 0}";
},
{
name = top;
position = "{258, 700}";
}
);
layerId = "3B8883BF-F483-4B97-AC7C-CABF8B821093";
paths = (
{
closed = 1;
nodes = (
"115 0 LINE",
"115 339 LINE",
"115 339 LINE",
"421 0 LINE",
"511 0 LINE",
"186 361 LINE",
"503 700 LINE",
"418 700 LINE",
"115 372 LINE",
"115 700 LINE",
"45 700 LINE",
"45 0 LINE"
);
}
);
width = 516;
},
{
anchors = (
{
name = bottom;
position = "{268, 0}";
},
{
name = top;
position = "{268, 700}";
}
);
layerId = "F5F01D5B-AEA3-4AC3-B3D8-92550D1582D7";
paths = (
{
closed = 1;
nodes = (
"129 0 LINE",
"129 324 LINE",
"129 324 LINE",
"424 0 LINE",
"531 0 LINE",
"204 361 LINE",
"527 700 LINE",
"421 700 LINE",
"129 390 LINE",
"129 700 LINE",
"45 700 LINE",
"45 0 LINE"
);
}
);
width = 536;
},
{
anchors = (
{
name = bottom;
position = "{333, 0}";
},
{
name = top;
position = "{333, 700}";
}
);
layerId = "A390C1A2-E540-434D-BB9E-4BCEE875BA63";
paths = (
{
closed = 1;
nodes = (
"216 0 LINE",
"216 314 LINE",
"216 314 LINE",
"452 0 LINE",
"661 0 LINE",
"367 394 LINE",
"651 700 LINE",
"442 700 LINE",
"216 451 LINE",
"216 700 LINE",
"45 700 LINE",
"45 0 LINE"
);
}
);
width = 666;
},
{
anchors = (
{
name = bottom;
position = "{284, 0}";
},
{
name = top;
position = "{284, 700}";
}
);
color = -1;
layerId = "12552169-0282-4A31-82CC-880002E60A2C";
paths = (
{
closed = 1;
nodes = (
"146 0 LINE",
"146 280 LINE",
"227 366 LINE",
"456 0 LINE",
"541 0 LINE",
"277 420 LINE",
"538 700 LINE",
"449 700 LINE",
"146 372 LINE",
"146 700 LINE",
"76 700 LINE",
"76 0 LINE"
);
}
);
width = 564;
},
{
anchors = (
{
name = bottom;
position = "{293, 0}";
},
{
name = top;
position = "{293, 700}";
}
);
color = -1;
layerId = "44982FF8-7820-4F75-948C-97259056F879";
paths = (
{
closed = 1;
nodes = (
"158 0 LINE",
"158 273 LINE",
"236 356 LINE",
"458 0 LINE",
"560 0 LINE",
"296 421 LINE",
"556 700 LINE",
"450 700 LINE",
"158 383 LINE",
"158 700 LINE",
"74 700 LINE",
"74 0 LINE"
);
}
);
width = 582;
},
{
anchors = (
{
name = bottom;
position = "{347, 0}";
},
{
name = top;
position = "{347, 700}";
}
);
color = -1;
layerId = "84B0614D-4B2F-419D-B7F2-5B7DD4CAD23C";
paths = (
{
closed = 1;
nodes = (
"233 0 LINE",
"233 230 LINE",
"290 292 LINE",
"469 0 LINE",
"678 0 LINE",
"412 424 LINE",
"668 700 LINE",
"459 700 LINE",
"233 451 LINE",
"233 700 LINE",
"62 700 LINE",
"62 0 LINE"
);
}
);
width = 697;
},
{
anchors = (
{
name = bottom;
position = "{252, 0}";
},
{
name = top;
position = "{252, 700}";
}
);
layerId = "90D50F69-F6F7-4633-9462-ED0440D3064F";
paths = (
{
closed = 1;
nodes = (
"96 0 LINE",
"96 339 LINE",
"96 339 LINE",
"436 0 LINE",
"467 0 LINE",
"112 351 LINE",
"463 700 LINE",
"435 700 LINE",
"96 362 LINE",
"96 700 LINE",
"76 700 LINE",
"76 0 LINE"
);
}
);
width = 490;
}
);
leftKerningGroup = H;
leftMetricsKey = H;
rightKerningGroup = K;
unicode = 004B;
userData = {
com.schriftgestaltung.Glyphs.ColorIndex = 4;
com.typesupply.AccentFactory.yCoordinates = {
bottom = {
name = origin;
type = glyphMetric;
};
top = {
name = capHeight;
type = fontInfo;
};
};
};
},
{
glyphname = L;
lastChange = "2023-05-19 14:07:26 +0000";
layers = (
{
anchors = (
{
name = bottom;
position = "{267, 0}";
},
{
name = center;
position = "{267, 350}";
},
{
name = commaaccent;
position = "{267, -6}";
},
{
name = top;
position = "{88, 700}";
},
{
name = topright;
position = "{180, 518}";
}
);
layerId = "EB62C368-BB48-47C0-A466-DA94204A0DE4";
paths = (
{
closed = 1;
nodes = (
"447 0 LINE",
"447 18 LINE",
"98 18 LINE",
"98 700 LINE",
"78 700 LINE",
"78 0 LINE"
);
}
);
width = 480;
},
{
anchors = (
{
name = bottom;
position = "{299, 0}";
},
{
name = center;
position = "{286, 350}";
},
{
name = commaaccent;
position = "{299, 1}";
},
{
name = top;
position = "{121, 700}";
},
{
name = topright;
position = "{243, 518}";
}
);
layerId = "A6F5E7A4-47EF-4F55-BF18-0ACACB57A720";
paths = (
{
closed = 1;
nodes = (
"487 0 LINE",
"487 67 LINE",
"161 67 LINE",
"161 700 LINE",
"77 700 LINE",
"77 0 LINE"
);
}
);
width = 531;
},
{
anchors = (
{
name = bottom;
position = "{337.005, 0}";
},
{
name = center;
position = "{299, 350}";
},
{
name = commaaccent;
position = "{337, 10}";
},
{
name = top;
position = "{168, 700}";
},
{
name = topright;
position = "{325, 518}";
}
);
layerId = "1615C59E-33DE-4B88-B2CC-A48C7D56A125";
paths = (
{
closed = 1;
nodes = (
"537 0 LINE",
"537 132 LINE",
"243 132 LINE",
"243 700 LINE",
"72 700 LINE",
"72 0 LINE"
);
}
);
width = 593;
},
{
anchors = (
{
name = bottom;
position = "{299, 0}";
},
{
name = center;
position = "{288, 350}";
},
{
name = commaaccent;
position = "{299, -1}";
},
{
name = top;
position = "{124, 700}";
},
{
name = topright;
position = "{236, 518}";
}
);
layerId = "2D111E5E-352D-4630-9162-BCEF010D26CF";
paths = (
{
closed = 1;
nodes = (
"485 0 LINE",
"485 56 LINE",
"154 56 LINE",
"154 700 LINE",
"84 700 LINE",
"84 0 LINE"
);
}
);
width = 530;
},
{
anchors = (
{
name = bottom;
position = "{233, 0}";
},
{
name = center;
position = "{233, 350}";
},
{
name = commaaccent;
position = "{233, -6}";
},
{
name = top;
position = "{55, 700}";
},
{
name = topright;
position = "{147, 518}";
}
);
layerId = "5D382461-81E1-4DF2-8677-8A6F02AD5363";
paths = (
{
closed = 1;
nodes = (
"414 0 LINE",
"414 18 LINE",
"65 18 LINE",
"65 700 LINE",
"45 700 LINE",
"45 0 LINE"
);
}
);
width = 429;
},
{
anchors = (
{
name = bottom;
position = "{260, 0}";
},
{
name = center;
position = "{260, 350}";
},
{
name = commaaccent;
position = "{260, -6}";
},
{
name = top;
position = "{81, 700}";
},
{
name = topright;
position = "{197, 518}";
}
);
layerId = "3B8883BF-F483-4B97-AC7C-CABF8B821093";
paths = (
{
closed = 1;
nodes = (
"446 0 LINE",
"446 57 LINE",
"115 57 LINE",
"115 700 LINE",
"45 700 LINE",
"45 0 LINE"
);
}
);
width = 461;
},
{
anchors = (
{
name = bottom;
position = "{267, 0}";
},
{
name = center;
position = "{267, 350}";
},
{
name = commaaccent;
position = "{267, -6}";
},
{
name = top;
position = "{88, 700}";
},
{
name = topright;
position = "{211, 518}";
}
);
layerId = "F5F01D5B-AEA3-4AC3-B3D8-92550D1582D7";
paths = (
{
closed = 1;
nodes = (
"455 0 LINE",
"455 67 LINE",
"129 67 LINE",
"129 700 LINE",
"45 700 LINE",
"45 0 LINE"
);
}
);
width = 470;
},
{
anchors = (
{
name = bottom;
position = "{311, 0}";
},
{
name = center;
position = "{311, 350}";
},
{
name = commaaccent;
position = "{311, -6}";
},
{
name = top;
position = "{132, 700}";
},
{
name = topright;
position = "{298, 518}";
}
);
guideLines = (
{
position = "{183, 350}";
}
);
layerId = "A390C1A2-E540-434D-BB9E-4BCEE875BA63";
paths = (
{
closed = 1;
nodes = (
"510 0 LINE",
"510 132 LINE",
"216 132 LINE",
"216 700 LINE",
"45 700 LINE",
"45 0 LINE"
);
}
);
width = 525;
},
{
anchors = (
{
name = bottom;
position = "{291, 0}";
},
{
name = center;
position = "{282, 350}";
},
{
name = commaaccent;
position = "{291, 0}";
},
{
name = top;
position = "{113, 700}";
},
{
name = topright;
position = "{228, 518}";
}
);
color = -1;
layerId = "12552169-0282-4A31-82CC-880002E60A2C";
paths = (
{
closed = 1;
nodes = (
"477 0 LINE",
"477 57 LINE",
"146 57 LINE",
"146 700 LINE",
"76 700 LINE",
"76 0 LINE"
);
}
);
width = 517;
},
{
anchors = (
{
name = bottom;
position = "{295.99, 0}";
},
{
name = center;
position = "{283, 350}";
},
{
name = commaaccent;
position = "{296, 1}";
},
{
name = top;
position = "{123, 700}";
},
{
name = topright;
position = "{240, 518}";
}
);
color = -1;
layerId = "44982FF8-7820-4F75-948C-97259056F879";
paths = (
{
closed = 1;
nodes = (
"484 0 LINE",
"484 67 LINE",
"158 67 LINE",
"158 700 LINE",
"74 700 LINE",
"74 0 LINE"
);
}
);
width = 525;
},
{
anchors = (
{
name = bottom;
position = "{327, 0}";
},
{
name = center;
position = "{289, 350}";
},
{
name = commaaccent;
position = "{327, 10}";
},
{
name = top;
position = "{152, 700}";
},
{
name = topright;
position = "{315, 518}";
}
);
color = -1;
guideLines = (
{
position = "{200, 350}";
}
);
layerId = "84B0614D-4B2F-419D-B7F2-5B7DD4CAD23C";
paths = (
{
closed = 1;
nodes = (
"527 0 LINE",
"527 132 LINE",
"233 132 LINE",
"233 700 LINE",
"62 700 LINE",
"62 0 LINE"
);
}
);
width = 577;
},
{
anchors = (
{
name = bottom;
position = "{264, 0}";
},
{
name = center;
position = "{264, 350}";
},
{
name = commaaccent;
position = "{264, -6}";
},
{
name = top;
position = "{86, 700}";
},
{
name = topright;
position = "{178, 518}";
}
);
layerId = "90D50F69-F6F7-4633-9462-ED0440D3064F";
paths = (
{
closed = 1;
nodes = (
"445 0 LINE",
"445 18 LINE",
"96 18 LINE",
"96 700 LINE",
"76 700 LINE",
"76 0 LINE"
);
}
);
width = 485;
}
);
leftKerningGroup = H;
leftMetricsKey = H;
rightKerningGroup = L;
unicode = 004C;
userData = {
com.schriftgestaltung.Glyphs.ColorIndex = 4;
com.typesupply.AccentFactory.yCoordinates = {
bottom = {
name = origin;
type = glyphMetric;
};
top = {
name = capHeight;
type = fontInfo;
};
};
};
},
{
glyphname = Lslash;
lastChange = "2023-05-19 14:07:26 +0000";
layers = (
{
components = (
{
alignment = -1;
name = L;
transform = "{1, 0, 0, 1, 28, 0}";
}
);
layerId = "EB62C368-BB48-47C0-A466-DA94204A0DE4";
paths = (
{
closed = 1;
nodes = (
"282 415 LINE",
"282 435 LINE",
"20 317 LINE",
"20 298 LINE"
);
}
);
width = 508;
},
{
components = (
{
alignment = -1;
name = L;
transform = "{1, 0, 0, 1, 26, 0}";
}
);
layerId = "A6F5E7A4-47EF-4F55-BF18-0ACACB57A720";
paths = (
{
closed = 1;
nodes = (
"306 392 LINE",
"306 459 LINE",
"20 351 LINE",
"20 284 LINE"
);
}
);
width = 557;
},
{
components = (
{
alignment = -1;
name = L;
transform = "{1, 0, 0, 1, 23, 0}";
}
);
layerId = "1615C59E-33DE-4B88-B2CC-A48C7D56A125";
paths = (
{
closed = 1;
nodes = (
"357 348 LINE",
"357 492 LINE",
"38 397 LINE",
"38 253 LINE"
);
}
);
width = 616;
},
{
components = (
{
alignment = -1;
name = L;
transform = "{1, 0, 0, 1, 26, 0}";
}
);
layerId = "2D111E5E-352D-4630-9162-BCEF010D26CF";
paths = (
{
closed = 1;
nodes = (
"301 399 LINE",
"301 454 LINE",
"20 344 LINE",
"20 289 LINE"
);
}
);
width = 556;
},
{
components = (
{
alignment = -1;
name = L;
transform = "{1, 0, 0, 1, 28, 0}";
}
);
layerId = "5D382461-81E1-4DF2-8677-8A6F02AD5363";
paths = (
{
closed = 1;
nodes = (
"282 415 LINE",
"282 435 LINE",
"20 317 LINE",
"20 298 LINE"
);
}
);
width = 457;
},
{
components = (
{
alignment = -1;
name = L;
transform = "{1, 0, 0, 1, 26, 0}";
}
);
layerId = "3B8883BF-F483-4B97-AC7C-CABF8B821093";
paths = (
{
closed = 1;
nodes = (
"301 399 LINE",
"301 454 LINE",
"20 344 LINE",
"20 289 LINE"
);
}
);
width = 487;
},
{
components = (
{
alignment = -1;
name = L;
transform = "{1, 0, 0, 1, 26, 0}";
}
);
layerId = "F5F01D5B-AEA3-4AC3-B3D8-92550D1582D7";
paths = (
{
closed = 1;
nodes = (
"306 392 LINE",
"306 459 LINE",
"20 351 LINE",
"20 284 LINE"
);
}
);
width = 496;
},
{
components = (
{
alignment = -1;
name = L;
transform = "{1, 0, 0, 1, 23, 0}";
}
);
layerId = "A390C1A2-E540-434D-BB9E-4BCEE875BA63";
paths = (
{
closed = 1;
nodes = (
"339 348 LINE",
"339 492 LINE",
"20 397 LINE",
"20 253 LINE"
);
}
);
width = 548;
},
{
color = -1;
components = (
{
name = L;
transform = "{1, 0, 0, 1, 26, 0}";
}
);
layerId = "12552169-0282-4A31-82CC-880002E60A2C";
paths = (
{
closed = 1;
nodes = (
"301 399 LINE",
"301 454 LINE",
"20 344 LINE",
"20 289 LINE"
);
}
);
width = 543;
},
{
color = -1;
components = (
{
alignment = -1;
name = L;
transform = "{1, 0, 0, 1, 26, 0}";
}
);
layerId = "44982FF8-7820-4F75-948C-97259056F879";
paths = (
{
closed = 1;
nodes = (
"306 392 LINE",
"306 459 LINE",
"20 351 LINE",
"20 284 LINE"
);
}
);
width = 551;
},
{
color = -1;
components = (
{
name = L;
transform = "{1, 0, 0, 1, 23, 0}";
}
);
layerId = "84B0614D-4B2F-419D-B7F2-5B7DD4CAD23C";
paths = (
{
closed = 1;
nodes = (
"339 348 LINE",
"339 492 LINE",
"20 397 LINE",
"20 253 LINE"
);
}
);
width = 600;
},
{
components = (
{
alignment = -1;
name = L;
transform = "{1, 0, 0, 1, 28, 0}";
}
);
layerId = "90D50F69-F6F7-4633-9462-ED0440D3064F";
paths = (
{
closed = 1;
nodes = (
"282 415 LINE",
"282 435 LINE",
"20 317 LINE",
"20 298 LINE"
);
}
);
width = 513;
}
);
rightKerningGroup = L;
rightMetricsKey = L;
unicode = 0141;
userData = {
com.schriftgestaltung.Glyphs.ColorIndex = 4;
};
},
{
glyphname = M;
lastChange = "2023-05-19 14:07:26 +0000";
layers = (
{
layerId = "EB62C368-BB48-47C0-A466-DA94204A0DE4";
paths = (
{
closed = 1;
nodes = (
"98 0 LINE",
"98 656 LINE",
"98 656 LINE",
"365 92 LINE",
"389 92 LINE",
"658 660 LINE",
"658 660 LINE",
"658 0 LINE",
"678 0 LINE",
"678 700 LINE",
"655 700 LINE",
"377 113 LINE",
"377 113 LINE",
"99 700 LINE",
"78 700 LINE",
"78 0 LINE"
);
}
);
width = 755;
},
{
layerId = "A6F5E7A4-47EF-4F55-BF18-0ACACB57A720";
paths = (
{
closed = 1;
nodes = (
"161 0 LINE",
"161 545 LINE",
"161 545 LINE",
"381 92 LINE",
"444 92 LINE",
"664 549 LINE",
"664 549 LINE",
"664 0 LINE",
"748 0 LINE",
"748 700 LINE",
"649 700 LINE",
"413 207 LINE",
"413 207 LINE",
"175 700 LINE",
"77 700 LINE",
"77 0 LINE"
);
}
);
width = 825;
},
{
layerId = "1615C59E-33DE-4B88-B2CC-A48C7D56A125";
paths = (
{
closed = 1;
nodes = (
"243 0 LINE",
"243 410 LINE",
"243 410 LINE",
"387 92 LINE",
"525 92 LINE",
"668 410 LINE",
"668 410 LINE",
"668 0 LINE",
"839 0 LINE",
"839 700 LINE",
"634 700 LINE",
"458 299 LINE",
"458 299 LINE",
"278 700 LINE",
"72 700 LINE",
"72 0 LINE"
);
}
);
width = 911;
},
{
layerId = "2D111E5E-352D-4630-9162-BCEF010D26CF";
paths = (
{
closed = 1;
nodes = (
"154 0 LINE",
"154 572 LINE",
"154 572 LINE",
"384 92 LINE",
"439 92 LINE",
"669 574 LINE",
"669 574 LINE",
"669 0 LINE",
"739 0 LINE",
"739 700 LINE",
"657 700 LINE",
"411 185 LINE",
"411 185 LINE",
"165 700 LINE",
"84 700 LINE",
"84 0 LINE"
);
}
);
width = 823;
},
{
guideLines = (
{
angle = 180;
position = "{69, 686}";
}
);
layerId = "5D382461-81E1-4DF2-8677-8A6F02AD5363";
paths = (
{
closed = 1;
nodes = (
"65 0 LINE",
"65 653 LINE",
"69 653 LINE",
"347 100 LINE",
"371 100 LINE",
"649 652 LINE",
"653 652 LINE",
"653 0 LINE",
"673 0 LINE",
"673 700 LINE",
"649 700 LINE",
"361 125 LINE",
"357 125 LINE",
"68 700 LINE",
"45 700 LINE",
"45 0 LINE"
);
}
);
width = 718;
},
{
layerId = "3B8883BF-F483-4B97-AC7C-CABF8B821093";
paths = (
{
closed = 1;
nodes = (
"115 0 LINE",
"115 620 LINE",
"119 620 LINE",
"337 100 LINE",
"427 100 LINE",
"654 620 LINE",
"658 620 LINE",
"658 0 LINE",
"728 0 LINE",
"728 700 LINE",
"612 700 LINE",
"386 164 LINE",
"382 164 LINE",
"156 700 LINE",
"45 700 LINE",
"45 0 LINE"
);
}
);
width = 773;
},
{
guideLines = (
{
angle = 180;
position = "{133, 573}";
}
);
layerId = "F5F01D5B-AEA3-4AC3-B3D8-92550D1582D7";
paths = (
{
closed = 1;
nodes = (
"129 0 LINE",
"129 573 LINE",
"133 573 LINE",
"336 100 LINE",
"454 100 LINE",
"656 573 LINE",
"660 573 LINE",
"660 0 LINE",
"744 0 LINE",
"744 700 LINE",
"620 700 LINE",
"397 170 LINE",
"393 170 LINE",
"169 700 LINE",
"45 700 LINE",
"45 0 LINE"
);
}
);
width = 789;
},
{
guideLines = (
{
angle = 180;
position = "{218, 408}";
}
);
layerId = "A390C1A2-E540-434D-BB9E-4BCEE875BA63";
paths = (
{
closed = 1;
nodes = (
"216 0 LINE",
"216 428 LINE",
"220 428 LINE",
"364 100 LINE",
"517 100 LINE",
"665 428 LINE",
"669 428 LINE",
"669 0 LINE",
"840 0 LINE",
"840 700 LINE",
"625 700 LINE",
"447 283 LINE",
"443 283 LINE",
"261 700 LINE",
"45 700 LINE",
"45 0 LINE"
);
}
);
width = 885;
},
{
color = -1;
layerId = "12552169-0282-4A31-82CC-880002E60A2C";
paths = (
{
closed = 1;
nodes = (
"146 0 LINE",
"146 569 LINE",
"146 569 LINE",
"392 100 LINE",
"443 100 LINE",
"689 571 LINE",
"689 571 LINE",
"689 0 LINE",
"759 0 LINE",
"759 700 LINE",
"678 700 LINE",
"417 198 LINE",
"417 198 LINE",
"156 700 LINE",
"76 700 LINE",
"76 0 LINE"
);
}
);
width = 835;
},
{
color = -1;
layerId = "44982FF8-7820-4F75-948C-97259056F879";
paths = (
{
closed = 1;
nodes = (
"158 0 LINE",
"158 549 LINE",
"158 549 LINE",
"392 100 LINE",
"455 100 LINE",
"689 550 LINE",
"689 550 LINE",
"689 0 LINE",
"773 0 LINE",
"773 700 LINE",
"674 700 LINE",
"423 212 LINE",
"423 212 LINE",
"172 700 LINE",
"74 700 LINE",
"74 0 LINE"
);
}
);
width = 847;
},
{
color = -1;
layerId = "84B0614D-4B2F-419D-B7F2-5B7DD4CAD23C";
paths = (
{
closed = 1;
nodes = (
"233 0 LINE",
"233 417 LINE",
"233 417 LINE",
"391 100 LINE",
"529 100 LINE",
"686 416 LINE",
"686 416 LINE",
"686 0 LINE",
"857 0 LINE",
"857 700 LINE",
"652 700 LINE",
"462 301 LINE",
"462 301 LINE",
"268 700 LINE",
"62 700 LINE",
"62 0 LINE"
);
}
);
width = 919;
},
{
guideLines = (
{
angle = 180;
position = "{100, 686}";
}
);
layerId = "90D50F69-F6F7-4633-9462-ED0440D3064F";
paths = (
{
closed = 1;
nodes = (
"96 0 LINE",
"96 660 LINE",
"96 660 LINE",
"378 100 LINE",
"402 100 LINE",
"684 660 LINE",
"684 660 LINE",
"684 0 LINE",
"704 0 LINE",
"704 700 LINE",
"680 700 LINE",
"391 120 LINE",
"391 120 LINE",
"99 700 LINE",
"76 700 LINE",
"76 0 LINE"
);
}
);
width = 780;
}
);
leftKerningGroup = H;
leftMetricsKey = H;
rightKerningGroup = H;
rightMetricsKey = H;
unicode = 004D;
userData = {
com.schriftgestaltung.Glyphs.ColorIndex = 4;
com.typesupply.AccentFactory.yCoordinates = {
bottom = {
name = origin;
type = glyphMetric;
};
top = {
name = capHeight;
type = fontInfo;
};
};
};
},
{
glyphname = N;
lastChange = "2023-05-19 14:07:26 +0000";
layers = (
{
anchors = (
{
name = bottom;
position = "{317, 0}";
},
{
name = top;
position = "{317, 700}";
}
);
layerId = "EB62C368-BB48-47C0-A466-DA94204A0DE4";
paths = (
{
closed = 1;
nodes = (
"98 0 LINE",
"98 673 LINE",
"98 673 LINE",
"531 0 LINE",
"555 0 LINE",
"555 700 LINE",
"535 700 LINE",
"535 30 LINE",
"535 30 LINE",
"104 700 LINE",
"78 700 LINE",
"78 0 LINE"
);
}
);
width = 632;
},
{
anchors = (
{
name = bottom;
position = "{348, 0}";
},
{
name = top;
position = "{348, 700}";
}
);
layerId = "A6F5E7A4-47EF-4F55-BF18-0ACACB57A720";
paths = (
{
closed = 1;
nodes = (
"161 0 LINE",
"161 562 LINE",
"161 562 LINE",
"534 0 LINE",
"618 0 LINE",
"618 700 LINE",
"534 700 LINE",
"534 138 LINE",
"534 138 LINE",
"161 700 LINE",
"77 700 LINE",
"77 0 LINE"
);
}
);
width = 695;
},
{
anchors = (
{
name = bottom;
position = "{386.005, 0}";
},
{
name = top;
position = "{386.005, 700}";
}
);
layerId = "1615C59E-33DE-4B88-B2CC-A48C7D56A125";
paths = (
{
closed = 1;
nodes = (
"243 0 LINE",
"243 427 LINE",
"243 427 LINE",
"529 0 LINE",
"700 0 LINE",
"700 700 LINE",
"529 700 LINE",
"529 271 LINE",
"529 271 LINE",
"243 700 LINE",
"72 700 LINE",
"72 0 LINE"
);
}
);
width = 772;
},
{
anchors = (
{
name = bottom;
position = "{348, 0}";
},
{
name = top;
position = "{348, 700}";
}
);
layerId = "2D111E5E-352D-4630-9162-BCEF010D26CF";
paths = (
{
closed = 1;
nodes = (
"154 0 LINE",
"154 586 LINE",
"154 586 LINE",
"540 0 LINE",
"611 0 LINE",
"611 700 LINE",
"541 700 LINE",
"541 114 LINE",
"541 114 LINE",
"155 700 LINE",
"84 700 LINE",
"84 0 LINE"
);
}
);
width = 695;
},
{
anchors = (
{
name = bottom;
position = "{284, 0}";
},
{
name = top;
position = "{284, 700}";
}
);
layerId = "5D382461-81E1-4DF2-8677-8A6F02AD5363";
paths = (
{
closed = 1;
nodes = (
"65 0 LINE",
"65 667 LINE",
"69 667 LINE",
"498 0 LINE",
"522 0 LINE",
"522 700 LINE",
"502 700 LINE",
"502 35 LINE",
"498 35 LINE",
"71 700 LINE",
"45 700 LINE",
"45 0 LINE"
);
}
);
width = 567;
},
{
anchors = (
{
name = bottom;
position = "{309, 0}";
},
{
name = top;
position = "{309, 700}";
}
);
layerId = "3B8883BF-F483-4B97-AC7C-CABF8B821093";
paths = (
{
closed = 1;
nodes = (
"115 0 LINE",
"115 632 LINE",
"119 632 LINE",
"466 0 LINE",
"572 0 LINE",
"572 700 LINE",
"502 700 LINE",
"502 73 LINE",
"498 73 LINE",
"155 700 LINE",
"45 700 LINE",
"45 0 LINE"
);
}
);
width = 617;
},
{
anchors = (
{
name = bottom;
position = "{316, 0}";
},
{
name = top;
position = "{316, 700}";
}
);
guideLines = (
{
position = "{631, 121}";
}
);
layerId = "F5F01D5B-AEA3-4AC3-B3D8-92550D1582D7";
paths = (
{
closed = 1;
nodes = (
"129 0 LINE",
"129 606 LINE",
"133 606 LINE",
"466 0 LINE",
"586 0 LINE",
"586 700 LINE",
"502 700 LINE",
"502 94 LINE",
"498 94 LINE",
"165 700 LINE",
"45 700 LINE",
"45 0 LINE"
);
}
);
width = 631;
},
{
anchors = (
{
name = bottom;
position = "{359, 0}";
},
{
name = top;
position = "{359, 700}";
}
);
layerId = "A390C1A2-E540-434D-BB9E-4BCEE875BA63";
paths = (
{
closed = 1;
nodes = (
"216 0 LINE",
"216 456 LINE",
"220 456 LINE",
"472 0 LINE",
"673 0 LINE",
"673 700 LINE",
"502 700 LINE",
"502 243 LINE",
"498 243 LINE",
"246 700 LINE",
"45 700 LINE",
"45 0 LINE"
);
}
);
width = 718;
},
{
anchors = (
{
name = bottom;
position = "{340, 0}";
},
{
name = top;
position = "{340, 700}";
}
);
color = -1;
layerId = "12552169-0282-4A31-82CC-880002E60A2C";
paths = (
{
closed = 1;
nodes = (
"146 0 LINE",
"146 583 LINE",
"146 583 LINE",
"533 0 LINE",
"603 0 LINE",
"603 700 LINE",
"533 700 LINE",
"533 118 LINE",
"533 118 LINE",
"146 700 LINE",
"76 700 LINE",
"76 0 LINE"
);
}
);
width = 679;
},
{
anchors = (
{
name = bottom;
position = "{344.99, 0}";
},
{
name = top;
position = "{344.99, 700}";
}
);
color = -1;
layerId = "44982FF8-7820-4F75-948C-97259056F879";
paths = (
{
closed = 1;
nodes = (
"158 0 LINE",
"158 561 LINE",
"158 561 LINE",
"531 0 LINE",
"615 0 LINE",
"615 700 LINE",
"531 700 LINE",
"531 139 LINE",
"531 139 LINE",
"158 700 LINE",
"74 700 LINE",
"74 0 LINE"
);
}
);
width = 689;
},
{
anchors = (
{
name = bottom;
position = "{376, 0}";
},
{
name = top;
position = "{376, 700}";
}
);
color = -1;
layerId = "84B0614D-4B2F-419D-B7F2-5B7DD4CAD23C";
paths = (
{
closed = 1;
nodes = (
"233 0 LINE",
"233 425 LINE",
"233 425 LINE",
"519 0 LINE",
"690 0 LINE",
"690 700 LINE",
"519 700 LINE",
"519 273 LINE",
"519 273 LINE",
"233 700 LINE",
"62 700 LINE",
"62 0 LINE"
);
}
);
width = 752;
},
{
anchors = (
{
name = bottom;
position = "{315, 0}";
},
{
name = top;
position = "{315, 700}";
}
);
layerId = "90D50F69-F6F7-4633-9462-ED0440D3064F";
paths = (
{
closed = 1;
nodes = (
"96 0 LINE",
"96 673 LINE",
"96 673 LINE",
"529 0 LINE",
"553 0 LINE",
"553 700 LINE",
"533 700 LINE",
"533 32 LINE",
"533 32 LINE",
"102 700 LINE",
"76 700 LINE",
"76 0 LINE"
);
}
);
width = 629;
}
);
leftKerningGroup = H;
leftMetricsKey = H;
rightKerningGroup = H;
rightMetricsKey = H;
unicode = 004E;
userData = {
com.schriftgestaltung.Glyphs.ColorIndex = 4;
com.typesupply.AccentFactory.yCoordinates = {
bottom = {
name = origin;
type = glyphMetric;
};
top = {
name = capHeight;
type = fontInfo;
};
};
};
},
{
glyphname = Eng;
lastChange = "2023-05-19 14:07:26 +0000";
layers = (
{
anchors = (
{
name = bottom;
position = "{317, 0}";
},
{
name = top;
position = "{317, 700}";
}
);
layerId = "EB62C368-BB48-47C0-A466-DA94204A0DE4";
paths = (
{
closed = 1;
nodes = (
"98 0 LINE",
"98 673 LINE",
"98 673 LINE",
"535 0 LINE",
"535 -118 LINE SMOOTH",
"535 -178 OFFCURVE",
"513 -201 OFFCURVE",
"452 -201 CURVE SMOOTH",
"415 -201 LINE",
"415 -220 LINE",
"456 -220 LINE SMOOTH",
"530 -220 OFFCURVE",
"555 -183 OFFCURVE",
"555 -123 CURVE SMOOTH",
"555 700 LINE",
"535 700 LINE",
"535 37 LINE",
"535 37 LINE",
"104 700 LINE",
"78 700 LINE",
"78 0 LINE"
);
}
);
width = 632;
},
{
anchors = (
{
name = bottom;
position = "{348, 0}";
},
{
name = top;
position = "{348, 700}";
}
);
layerId = "2D111E5E-352D-4630-9162-BCEF010D26CF";
paths = (
{
closed = 1;
nodes = (
"154 0 LINE",
"154 586 LINE",
"154 586 LINE",
"541 0 LINE",
"541 -89 LINE SMOOTH",
"541 -141 OFFCURVE",
"520 -160 OFFCURVE",
"468 -160 CURVE SMOOTH",
"429 -160 LINE",
"429 -220 LINE",
"479 -220 LINE SMOOTH",
"567 -220 OFFCURVE",
"611 -179 OFFCURVE",
"611 -91 CURVE SMOOTH",
"611 700 LINE",
"541 700 LINE",
"541 114 LINE",
"541 114 LINE",
"155 700 LINE",
"84 700 LINE",
"84 0 LINE"
);
}
);
width = 695;
},
{
anchors = (
{
name = bottom;
position = "{348, 0}";
},
{
name = top;
position = "{348, 700}";
}
);
layerId = "A6F5E7A4-47EF-4F55-BF18-0ACACB57A720";
paths = (
{
closed = 1;
nodes = (
"161 0 LINE",
"161 562 LINE",
"161 562 LINE",
"534 0 LINE",
"534 -80 LINE SMOOTH",
"534 -130 OFFCURVE",
"514 -148 OFFCURVE",
"464 -148 CURVE SMOOTH",
"425 -148 LINE",
"425 -220 LINE",
"477 -220 LINE SMOOTH",
"569 -220 OFFCURVE",
"618 -178 OFFCURVE",
"618 -82 CURVE SMOOTH",
"618 700 LINE",
"534 700 LINE",
"534 138 LINE",
"534 138 LINE",
"161 700 LINE",
"77 700 LINE",
"77 0 LINE"
);
}
);
width = 695;
},
{
anchors = (
{
name = bottom;
position = "{386.005, 0}";
},
{
name = top;
position = "{386.005, 700}";
}
);
layerId = "1615C59E-33DE-4B88-B2CC-A48C7D56A125";
paths = (
{
closed = 1;
nodes = (
"243 0 LINE",
"243 427 LINE",
"243 427 LINE",
"530 0 LINE",
"530 -28 LINE SMOOTH",
"530 -61 OFFCURVE",
"516 -75 OFFCURVE",
"478 -75 CURVE SMOOTH",
"436 -75 LINE",
"436 -220 LINE",
"504 -220 LINE SMOOTH",
"620 -220 OFFCURVE",
"700 -171 OFFCURVE",
"700 -26 CURVE SMOOTH",
"700 700 LINE",
"529 700 LINE",
"529 271 LINE",
"529 271 LINE",
"243 700 LINE",
"72 700 LINE",
"72 0 LINE"
);
}
);
width = 772;
},
{
anchors = (
{
name = bottom;
position = "{315, 0}";
},
{
name = top;
position = "{315, 700}";
}
);
layerId = "90D50F69-F6F7-4633-9462-ED0440D3064F";
paths = (
{
closed = 1;
nodes = (
"96 0 LINE",
"96 673 LINE",
"96 673 LINE",
"533 0 LINE",
"533 -116 LINE SMOOTH",
"533 -173 OFFCURVE",
"515 -200 OFFCURVE",
"450 -200 CURVE SMOOTH",
"414 -200 LINE",
"414 -220 LINE",
"453 -220 LINE SMOOTH",
"528 -220 OFFCURVE",
"553 -182 OFFCURVE",
"553 -123 CURVE SMOOTH",
"553 700 LINE",
"533 700 LINE",
"533 38 LINE",
"533 38 LINE",
"102 700 LINE",
"76 700 LINE",
"76 0 LINE"
);
}
);
width = 629;
},
{
anchors = (
{
name = bottom;
position = "{340, 0}";
},
{
name = top;
position = "{340, 700}";
}
);
layerId = "12552169-0282-4A31-82CC-880002E60A2C";
paths = (
{
closed = 1;
nodes = (
"146 0 LINE",
"146 583 LINE",
"146 583 LINE",
"533 0 LINE",
"533 -88 LINE SMOOTH",
"533 -141 OFFCURVE",
"512 -160 OFFCURVE",
"460 -160 CURVE SMOOTH",
"422 -160 LINE",
"422 -220 LINE",
"471 -220 LINE SMOOTH",
"559 -220 OFFCURVE",
"603 -179 OFFCURVE",
"603 -91 CURVE SMOOTH",
"603 700 LINE",
"533 700 LINE",
"533 118 LINE",
"533 118 LINE",
"146 700 LINE",
"76 700 LINE",
"76 0 LINE"
);
}
);
width = 679;
},
{
anchors = (
{
name = bottom;
position = "{344.99, 0}";
},
{
name = top;
position = "{344.99, 700}";
}
);
layerId = "44982FF8-7820-4F75-948C-97259056F879";
paths = (
{
closed = 1;
nodes = (
"158 0 LINE",
"158 561 LINE",
"158 561 LINE",
"531 0 LINE",
"531 -80 LINE SMOOTH",
"531 -130 OFFCURVE",
"511 -148 OFFCURVE",
"461 -148 CURVE SMOOTH",
"422 -148 LINE",
"422 -220 LINE",
"474 -220 LINE SMOOTH",
"566 -220 OFFCURVE",
"615 -178 OFFCURVE",
"615 -82 CURVE SMOOTH",
"615 700 LINE",
"531 700 LINE",
"531 139 LINE",
"531 139 LINE",
"158 700 LINE",
"74 700 LINE",
"74 0 LINE"
);
}
);
width = 689;
},
{
anchors = (
{
name = bottom;
position = "{376, 0}";
},
{
name = top;
position = "{376, 700}";
}
);
layerId = "84B0614D-4B2F-419D-B7F2-5B7DD4CAD23C";
paths = (
{
closed = 1;
nodes = (
"233 0 LINE",
"233 425 LINE",
"233 425 LINE",
"519 0 LINE",
"519 -28 LINE SMOOTH",
"519 -61 OFFCURVE",
"505 -75 OFFCURVE",
"467 -75 CURVE SMOOTH",
"426 -75 LINE",
"426 -220 LINE",
"493 -220 LINE SMOOTH",
"609 -220 OFFCURVE",
"690 -171 OFFCURVE",
"690 -26 CURVE SMOOTH",
"690 700 LINE",
"519 700 LINE",
"519 273 LINE",
"519 273 LINE",
"233 700 LINE",
"62 700 LINE",
"62 0 LINE"
);
}
);
width = 752;
},
{
anchors = (
{
name = bottom;
position = "{284, 0}";
},
{
name = top;
position = "{284, 700}";
}
);
layerId = "5D382461-81E1-4DF2-8677-8A6F02AD5363";
paths = (
{
closed = 1;
nodes = (
"65 0 LINE",
"65 667 LINE",
"69 667 LINE",
"502 0 LINE",
"502 -96 LINE SMOOTH",
"502 -153 OFFCURVE",
"484 -180 OFFCURVE",
"419 -180 CURVE SMOOTH",
"383 -180 LINE",
"383 -200 LINE",
"422 -200 LINE SMOOTH",
"497 -200 OFFCURVE",
"522 -162 OFFCURVE",
"522 -103 CURVE SMOOTH",
"522 700 LINE",
"502 700 LINE",
"502 39 LINE",
"498 39 LINE",
"71 700 LINE",
"45 700 LINE",
"45 0 LINE"
);
}
);
width = 567;
},
{
anchors = (
{
name = bottom;
position = "{309, 0}";
},
{
name = top;
position = "{309, 700}";
}
);
layerId = "3B8883BF-F483-4B97-AC7C-CABF8B821093";
paths = (
{
closed = 1;
nodes = (
"115 0 LINE",
"115 632 LINE",
"119 632 LINE",
"502 0 LINE",
"502 -68 LINE SMOOTH",
"502 -121 OFFCURVE",
"481 -140 OFFCURVE",
"429 -140 CURVE SMOOTH",
"391 -140 LINE",
"391 -200 LINE",
"440 -200 LINE SMOOTH",
"528 -200 OFFCURVE",
"572 -159 OFFCURVE",
"572 -71 CURVE SMOOTH",
"572 700 LINE",
"502 700 LINE",
"502 133 LINE",
"498 133 LINE",
"155 700 LINE",
"45 700 LINE",
"45 0 LINE"
);
}
);
width = 617;
},
{
anchors = (
{
name = bottom;
position = "{316, 0}";
},
{
name = top;
position = "{316, 700}";
}
);
layerId = "F5F01D5B-AEA3-4AC3-B3D8-92550D1582D7";
paths = (
{
closed = 1;
nodes = (
"129 0 LINE",
"129 606 LINE",
"133 606 LINE",
"502 0 LINE",
"502 -60 LINE SMOOTH",
"502 -115 OFFCURVE",
"482 -133 OFFCURVE",
"432 -133 CURVE SMOOTH",
"393 -133 LINE",
"393 -200 LINE",
"445 -200 LINE SMOOTH",
"537 -200 OFFCURVE",
"586 -158 OFFCURVE",
"586 -62 CURVE SMOOTH",
"586 700 LINE",
"502 700 LINE",
"502 151 LINE",
"498 151 LINE",
"165 700 LINE",
"45 700 LINE",
"45 0 LINE"
);
}
);
width = 631;
},
{
anchors = (
{
name = bottom;
position = "{359, 0}";
},
{
name = top;
position = "{359, 700}";
}
);
layerId = "A390C1A2-E540-434D-BB9E-4BCEE875BA63";
paths = (
{
closed = 1;
nodes = (
"216 0 LINE",
"216 456 LINE",
"220 456 LINE",
"502 0 LINE",
"502 -8 LINE SMOOTH",
"502 -41 OFFCURVE",
"488 -55 OFFCURVE",
"450 -55 CURVE SMOOTH",
"409 -55 LINE",
"409 -200 LINE",
"476 -200 LINE SMOOTH",
"592 -200 OFFCURVE",
"673 -151 OFFCURVE",
"673 -6 CURVE SMOOTH",
"673 700 LINE",
"502 700 LINE",
"502 283 LINE",
"498 283 LINE",
"246 700 LINE",
"45 700 LINE",
"45 0 LINE"
);
}
);
width = 718;
}
);
leftMetricsKey = N;
rightMetricsKey = N;
unicode = 014A;
},
{
glyphname = O;
lastChange = "2023-05-19 14:07:26 +0000";
layers = (
{
anchors = (
{
name = top;
position = "{362, 700}";
}
);
guideLines = (
{
angle = 270;
position = "{678, 350}";
},
{
angle = 270;
position = "{725, 350}";
}
);
layerId = "EB62C368-BB48-47C0-A466-DA94204A0DE4";
paths = (
{
closed = 1;
nodes = (
"555 -12 OFFCURVE",
"678 135 OFFCURVE",
"678 350 CURVE SMOOTH",
"678 564 OFFCURVE",
"555 712 OFFCURVE",
"362 712 CURVE SMOOTH",
"171 712 OFFCURVE",
"47 564 OFFCURVE",
"47 350 CURVE SMOOTH",
"47 135 OFFCURVE",
"171 -12 OFFCURVE",
"362 -12 CURVE SMOOTH"
);
},
{
closed = 1;
nodes = (
"195 8 OFFCURVE",
"69 133 OFFCURVE",
"69 350 CURVE SMOOTH",
"69 568 OFFCURVE",
"195 692 OFFCURVE",
"362 692 CURVE SMOOTH",
"530 692 OFFCURVE",
"656 568 OFFCURVE",
"656 350 CURVE SMOOTH",
"656 133 OFFCURVE",
"530 8 OFFCURVE",
"362 8 CURVE SMOOTH"
);
}
);
width = 725;
},
{
anchors = (
{
name = top;
position = "{373, 700}";
}
);
layerId = "A6F5E7A4-47EF-4F55-BF18-0ACACB57A720";
paths = (
{
closed = 1;
nodes = (
"569 -12 OFFCURVE",
"697 135 OFFCURVE",
"697 350 CURVE SMOOTH",
"697 564 OFFCURVE",
"569 712 OFFCURVE",
"373 712 CURVE SMOOTH",
"180 712 OFFCURVE",
"49 564 OFFCURVE",
"49 350 CURVE SMOOTH",
"49 135 OFFCURVE",
"180 -12 OFFCURVE",
"373 -12 CURVE SMOOTH"
);
},
{
closed = 1;
nodes = (
"231 62 OFFCURVE",
"135 170 OFFCURVE",
"135 350 CURVE SMOOTH",
"135 530 OFFCURVE",
"231 637 OFFCURVE",
"373 637 CURVE SMOOTH",
"515.994 637 OFFCURVE",
"611 530 OFFCURVE",
"611 350 CURVE SMOOTH",
"611 170 OFFCURVE",
"515.994 62 OFFCURVE",
"373 62 CURVE SMOOTH"
);
}
);
width = 746;
},
{
anchors = (
{
name = top;
position = "{385, 700}";
}
);
layerId = "1615C59E-33DE-4B88-B2CC-A48C7D56A125";
paths = (
{
closed = 1;
nodes = (
"581 -12 OFFCURVE",
"719 136 OFFCURVE",
"719 350 CURVE SMOOTH",
"719 564 OFFCURVE",
"581 712 OFFCURVE",
"384 712 CURVE SMOOTH",
"186 712 OFFCURVE",
"48 564 OFFCURVE",
"48 350 CURVE SMOOTH",
"48 136 OFFCURVE",
"186 -12 OFFCURVE",
"384 -12 CURVE SMOOTH"
);
},
{
closed = 1;
nodes = (
"283 143 OFFCURVE",
"222 223 OFFCURVE",
"222 350 CURVE SMOOTH",
"222 477 OFFCURVE",
"283 557 OFFCURVE",
"384 557 CURVE SMOOTH",
"484 557 OFFCURVE",
"545 477 OFFCURVE",
"545 350 CURVE SMOOTH",
"545 223 OFFCURVE",
"484 143 OFFCURVE",
"384 143 CURVE SMOOTH"
);
}
);
width = 767;
},
{
anchors = (
{
name = top;
position = "{374, 700}";
}
);
layerId = "2D111E5E-352D-4630-9162-BCEF010D26CF";
paths = (
{
closed = 1;
nodes = (
"569 -12 OFFCURVE",
"696 135 OFFCURVE",
"696 350 CURVE SMOOTH",
"696 564 OFFCURVE",
"569 712 OFFCURVE",
"374 712 CURVE SMOOTH",
"181 712 OFFCURVE",
"52 564 OFFCURVE",
"52 350 CURVE SMOOTH",
"52 135 OFFCURVE",
"181 -12 OFFCURVE",
"374 -12 CURVE SMOOTH"
);
},
{
closed = 1;
nodes = (
"227 50 OFFCURVE",
"124 162 OFFCURVE",
"124 350 CURVE SMOOTH",
"124 538 OFFCURVE",
"227 649 OFFCURVE",
"374 649 CURVE SMOOTH",
"522 649 OFFCURVE",
"624 538 OFFCURVE",
"624 350 CURVE SMOOTH",
"624 162 OFFCURVE",
"522 50 OFFCURVE",
"374 50 CURVE SMOOTH"
);
}
);
width = 748;
},
{
anchors = (
{
name = top;
position = "{372, 700}";
}
);
layerId = "5D382461-81E1-4DF2-8677-8A6F02AD5363";
paths = (
{
closed = 1;
nodes = (
"575 -12 OFFCURVE",
"708 135 OFFCURVE",
"708 350 CURVE SMOOTH",
"708 564 OFFCURVE",
"575 712 OFFCURVE",
"371 712 CURVE SMOOTH",
"167 712 OFFCURVE",
"35 564 OFFCURVE",
"35 350 CURVE SMOOTH",
"35 135 OFFCURVE",
"167 -12 OFFCURVE",
"371 -12 CURVE SMOOTH"
);
},
{
closed = 1;
nodes = (
"194 8 OFFCURVE",
"57 132 OFFCURVE",
"57 350 CURVE SMOOTH",
"57 568 OFFCURVE",
"194 692 OFFCURVE",
"371 692 CURVE SMOOTH",
"548 692 OFFCURVE",
"686 568 OFFCURVE",
"686 350 CURVE SMOOTH",
"686 132 OFFCURVE",
"548 8 OFFCURVE",
"371 8 CURVE SMOOTH"
);
}
);
width = 743;
},
{
anchors = (
{
name = top;
position = "{378, 700}";
}
);
layerId = "3B8883BF-F483-4B97-AC7C-CABF8B821093";
paths = (
{
closed = 1;
nodes = (
"585 -12 OFFCURVE",
"721 135 OFFCURVE",
"721 350 CURVE SMOOTH",
"721 564 OFFCURVE",
"585 712 OFFCURVE",
"378 712 CURVE SMOOTH",
"172 712 OFFCURVE",
"35 564 OFFCURVE",
"35 350 CURVE SMOOTH",
"35 135 OFFCURVE",
"172 -12 OFFCURVE",
"378 -12 CURVE SMOOTH"
);
},
{
closed = 1;
nodes = (
"217 49 OFFCURVE",
"107 162 OFFCURVE",
"107 350 CURVE SMOOTH",
"107 538 OFFCURVE",
"217 650 OFFCURVE",
"378 650 CURVE SMOOTH",
"539 650 OFFCURVE",
"649 538 OFFCURVE",
"649 350 CURVE SMOOTH",
"649 162 OFFCURVE",
"539 49 OFFCURVE",
"378 49 CURVE SMOOTH"
);
}
);
width = 756;
},
{
anchors = (
{
name = top;
position = "{380, 700}";
}
);
layerId = "F5F01D5B-AEA3-4AC3-B3D8-92550D1582D7";
paths = (
{
closed = 1;
nodes = (
"588 -12 OFFCURVE",
"725 135 OFFCURVE",
"725 350 CURVE SMOOTH",
"725 564 OFFCURVE",
"588 712 OFFCURVE",
"380 712 CURVE SMOOTH",
"174 712 OFFCURVE",
"35 564 OFFCURVE",
"35 350 CURVE SMOOTH",
"35 135 OFFCURVE",
"174 -12 OFFCURVE",
"380 -12 CURVE SMOOTH"
);
},
{
closed = 1;
nodes = (
"226 62 OFFCURVE",
"121 170 OFFCURVE",
"121 350 CURVE SMOOTH",
"121 530 OFFCURVE",
"226 637 OFFCURVE",
"380 637 CURVE SMOOTH",
"534 637 OFFCURVE",
"639 530 OFFCURVE",
"639 350 CURVE SMOOTH",
"639 170 OFFCURVE",
"534 62 OFFCURVE",
"380 62 CURVE SMOOTH"
);
}
);
width = 760;
},
{
anchors = (
{
name = top;
position = "{391, 700}";
}
);
layerId = "A390C1A2-E540-434D-BB9E-4BCEE875BA63";
paths = (
{
closed = 1;
nodes = (
"601 -12 OFFCURVE",
"747 136 OFFCURVE",
"747 350 CURVE SMOOTH",
"747 564 OFFCURVE",
"601 712 OFFCURVE",
"391 712 CURVE SMOOTH",
"181 712 OFFCURVE",
"35 564 OFFCURVE",
"35 350 CURVE SMOOTH",
"35 136 OFFCURVE",
"181 -12 OFFCURVE",
"391 -12 CURVE SMOOTH"
);
},
{
closed = 1;
nodes = (
"278 143 OFFCURVE",
"209 223 OFFCURVE",
"209 350 CURVE SMOOTH",
"209 477 OFFCURVE",
"278 557 OFFCURVE",
"391 557 CURVE SMOOTH",
"504 557 OFFCURVE",
"573 477 OFFCURVE",
"573 350 CURVE SMOOTH",
"573 223 OFFCURVE",
"504 143 OFFCURVE",
"391 143 CURVE SMOOTH"
);
}
);
width = 782;
},
{
anchors = (
{
name = top;
position = "{391, 700}";
}
);
color = -1;
layerId = "12552169-0282-4A31-82CC-880002E60A2C";
paths = (
{
closed = 1;
nodes = (
"598 -12 OFFCURVE",
"734 135 OFFCURVE",
"734 350 CURVE SMOOTH",
"734 564 OFFCURVE",
"598 712 OFFCURVE",
"391 712 CURVE SMOOTH",
"185 712 OFFCURVE",
"48 564 OFFCURVE",
"48 350 CURVE SMOOTH",
"48 135 OFFCURVE",
"185 -12 OFFCURVE",
"391 -12 CURVE SMOOTH"
);
},
{
closed = 1;
nodes = (
"230 49 OFFCURVE",
"120 162 OFFCURVE",
"120 350 CURVE SMOOTH",
"120 538 OFFCURVE",
"230 650 OFFCURVE",
"391 650 CURVE SMOOTH",
"552 650 OFFCURVE",
"662 538 OFFCURVE",
"662 350 CURVE SMOOTH",
"662 162 OFFCURVE",
"552 49 OFFCURVE",
"391 49 CURVE SMOOTH"
);
}
);
width = 782;
},
{
anchors = (
{
name = top;
position = "{392, 700}";
}
);
color = -1;
layerId = "44982FF8-7820-4F75-948C-97259056F879";
paths = (
{
closed = 1;
nodes = (
"600 -12 OFFCURVE",
"737 135 OFFCURVE",
"737 350 CURVE SMOOTH",
"737 564 OFFCURVE",
"600 712 OFFCURVE",
"392 712 CURVE SMOOTH",
"186 712 OFFCURVE",
"47 564 OFFCURVE",
"47 350 CURVE SMOOTH",
"47 135 OFFCURVE",
"186 -12 OFFCURVE",
"392 -12 CURVE SMOOTH"
);
},
{
closed = 1;
nodes = (
"238 62 OFFCURVE",
"133 170 OFFCURVE",
"133 350 CURVE SMOOTH",
"133 530 OFFCURVE",
"238 637 OFFCURVE",
"392 637 CURVE SMOOTH",
"546 637 OFFCURVE",
"651 530 OFFCURVE",
"651 350 CURVE SMOOTH",
"651 170 OFFCURVE",
"546 62 OFFCURVE",
"392 62 CURVE SMOOTH"
);
}
);
width = 784;
},
{
anchors = (
{
name = top;
position = "{400, 700}";
}
);
color = -1;
layerId = "84B0614D-4B2F-419D-B7F2-5B7DD4CAD23C";
paths = (
{
closed = 1;
nodes = (
"609 -12 OFFCURVE",
"755 136 OFFCURVE",
"755 350 CURVE SMOOTH",
"755 564 OFFCURVE",
"609 712 OFFCURVE",
"399 712 CURVE SMOOTH",
"189 712 OFFCURVE",
"43 564 OFFCURVE",
"43 350 CURVE SMOOTH",
"43 136 OFFCURVE",
"189 -12 OFFCURVE",
"399 -12 CURVE SMOOTH"
);
},
{
closed = 1;
nodes = (
"286 143 OFFCURVE",
"217 223 OFFCURVE",
"217 350 CURVE SMOOTH",
"217 477 OFFCURVE",
"286 557 OFFCURVE",
"399 557 CURVE SMOOTH",
"512 557 OFFCURVE",
"581 477 OFFCURVE",
"581 350 CURVE SMOOTH",
"581 223 OFFCURVE",
"512 143 OFFCURVE",
"399 143 CURVE SMOOTH"
);
}
);
width = 798;
},
{
anchors = (
{
name = top;
position = "{385, 700}";
}
);
layerId = "90D50F69-F6F7-4633-9462-ED0440D3064F";
paths = (
{
closed = 1;
nodes = (
"588 -12 OFFCURVE",
"721 135 OFFCURVE",
"721 350 CURVE SMOOTH",
"721 564 OFFCURVE",
"588 712 OFFCURVE",
"384 712 CURVE SMOOTH",
"180 712 OFFCURVE",
"48 564 OFFCURVE",
"48 350 CURVE SMOOTH",
"48 135 OFFCURVE",
"180 -12 OFFCURVE",
"384 -12 CURVE SMOOTH"
);
},
{
closed = 1;
nodes = (
"207 8 OFFCURVE",
"70 132 OFFCURVE",
"70 350 CURVE SMOOTH",
"70 568 OFFCURVE",
"207 692 OFFCURVE",
"384 692 CURVE SMOOTH",
"561 692 OFFCURVE",
"699 568 OFFCURVE",
"699 350 CURVE SMOOTH",
"699 132 OFFCURVE",
"561 8 OFFCURVE",
"384 8 CURVE SMOOTH"
);
}
);
width = 769;
}
);
leftKerningGroup = O;
rightKerningGroup = O;
unicode = 004F;
userData = {
com.schriftgestaltung.Glyphs.ColorIndex = 4;
com.typemytype.robofont.layerData = {
b = {
anchors = (
{
name = top;
x = 407;
y = 683;
}
);
components = (
);
contours = (
{
points = (
{
segmentType = curve;
smooth = 1;
x = 60;
y = 341;
},
{
smooth = 0;
x = 60;
y = 138;
},
{
smooth = 0;
x = 214;
y = -7;
},
{
segmentType = curve;
smooth = 1;
x = 407;
y = -7;
},
{
smooth = 0;
x = 601;
y = -7;
},
{
smooth = 0;
x = 754;
y = 138;
},
{
segmentType = curve;
smooth = 1;
x = 754;
y = 341;
},
{
smooth = 0;
x = 754;
y = 546;
},
{
smooth = 0;
x = 601;
y = 690;
},
{
segmentType = curve;
smooth = 1;
x = 407;
y = 690;
},
{
smooth = 0;
x = 214;
y = 690;
},
{
smooth = 0;
x = 60;
y = 546;
}
);
},
{
points = (
{
segmentType = curve;
smooth = 1;
x = 733;
y = 341;
},
{
smooth = 0;
x = 733;
y = 137;
},
{
smooth = 0;
x = 588;
y = 4;
},
{
segmentType = curve;
smooth = 1;
x = 407;
y = 4;
},
{
smooth = 0;
x = 226;
y = 4;
},
{
smooth = 0;
x = 80;
y = 137;
},
{
segmentType = curve;
smooth = 1;
x = 80;
y = 341;
},
{
smooth = 0;
x = 80;
y = 547;
},
{
smooth = 0;
x = 226;
y = 677;
},
{
segmentType = curve;
smooth = 1;
x = 407;
y = 677;
},
{
smooth = 0;
x = 588;
y = 677;
},
{
smooth = 0;
x = 733;
y = 547;
}
);
}
);
lib = {
};
name = O;
unicodes = (
);
width = 792;
};
};
com.typesupply.AccentFactory.yCoordinates = {
bottom = {
name = origin;
type = glyphMetric;
};
top = {
name = capHeight;
type = fontInfo;
};
};
};
},
{
glyphname = Oslash;
lastChange = "2023-05-19 14:07:26 +0000";
layers = (
{
components = (
{
alignment = -1;
name = O;
transform = "{1, 0, 0, 1, 1, 0}";
}
);
guideLines = (
{
angle = 270;
position = "{679, 350}";
},
{
angle = 270;
position = "{726, 350}";
}
);
layerId = "EB62C368-BB48-47C0-A466-DA94204A0DE4";
paths = (
{
closed = 1;
nodes = (
"56 0 LINE",
"700 700 LINE",
"671 700 LINE",
"27 0 LINE"
);
}
);
width = 726;
},
{
components = (
{
alignment = -1;
name = O;
}
);
layerId = "A6F5E7A4-47EF-4F55-BF18-0ACACB57A720";
paths = (
{
closed = 1;
nodes = (
"110 0 LINE",
"728 700 LINE",
"639 700 LINE",
"20 0 LINE"
);
}
);
width = 747;
},
{
components = (
{
alignment = -1;
name = O;
}
);
layerId = "1615C59E-33DE-4B88-B2CC-A48C7D56A125";
paths = (
{
closed = 1;
nodes = (
"169 0 LINE",
"753 700 LINE",
"599 700 LINE",
"15 0 LINE"
);
}
);
width = 767;
},
{
components = (
{
alignment = -1;
name = O;
}
);
layerId = "2D111E5E-352D-4630-9162-BCEF010D26CF";
paths = (
{
closed = 1;
nodes = (
"101 0 LINE",
"725 700 LINE",
"646 700 LINE",
"22 0 LINE"
);
}
);
width = 748;
},
{
components = (
{
alignment = -1;
name = O;
}
);
layerId = "5D382461-81E1-4DF2-8677-8A6F02AD5363";
paths = (
{
closed = 1;
nodes = (
"65 0 LINE",
"709 700 LINE",
"680 700 LINE",
"36 0 LINE"
);
}
);
width = 744;
},
{
components = (
{
alignment = -1;
name = O;
}
);
layerId = "3B8883BF-F483-4B97-AC7C-CABF8B821093";
paths = (
{
closed = 1;
nodes = (
"105 0 LINE",
"729 700 LINE",
"650 700 LINE",
"26 0 LINE"
);
}
);
width = 756;
},
{
components = (
{
alignment = -1;
name = O;
}
);
layerId = "F5F01D5B-AEA3-4AC3-B3D8-92550D1582D7";
paths = (
{
closed = 1;
nodes = (
"116 0 LINE",
"734 700 LINE",
"645 700 LINE",
"26 0 LINE"
);
}
);
width = 759;
},
{
components = (
{
alignment = -1;
name = O;
transform = "{1, 0, 0, 1, -1, 0}";
}
);
layerId = "A390C1A2-E540-434D-BB9E-4BCEE875BA63";
paths = (
{
closed = 1;
nodes = (
"175 0 LINE",
"759 700 LINE",
"605 700 LINE",
"21 0 LINE"
);
}
);
width = 782;
},
{
color = -1;
components = (
{
alignment = -1;
name = O;
}
);
layerId = "12552169-0282-4A31-82CC-880002E60A2C";
paths = (
{
closed = 1;
nodes = (
"122 0 LINE",
"745 700 LINE",
"666 700 LINE",
"42 0 LINE"
);
}
);
width = 787;
},
{
color = -1;
components = (
{
alignment = -1;
name = O;
}
);
layerId = "44982FF8-7820-4F75-948C-97259056F879";
paths = (
{
closed = 1;
nodes = (
"129 0 LINE",
"747 700 LINE",
"658 700 LINE",
"39 0 LINE"
);
}
);
width = 786;
},
{
color = -1;
components = (
{
alignment = -1;
name = O;
transform = "{1, 0, 0, 1, -1, 0}";
}
);
layerId = "84B0614D-4B2F-419D-B7F2-5B7DD4CAD23C";
paths = (
{
closed = 1;
nodes = (
"176 0 LINE",
"760 700 LINE",
"606 700 LINE",
"22 0 LINE"
);
}
);
width = 782;
},
{
components = (
{
alignment = -1;
name = O;
transform = "{1, 0, 0, 1, 6, 0}";
}
);
layerId = "90D50F69-F6F7-4633-9462-ED0440D3064F";
paths = (
{
closed = 1;
nodes = (
"71 0 LINE",
"715 700 LINE",
"686 700 LINE",
"42 0 LINE"
);
}
);
width = 769;
}
);
unicode = 00D8;
userData = {
com.schriftgestaltung.Glyphs.ColorIndex = 4;
};
},
{
glyphname = OE;
lastChange = "2023-05-19 14:07:26 +0000";
layers = (
{
anchors = (
{
name = bottom;
position = "{854, 0}";
},
{
name = top;
position = "{390, 700}";
}
);
layerId = "EB62C368-BB48-47C0-A466-DA94204A0DE4";
paths = (
{
closed = 1;
nodes = (
"504 -12 OFFCURVE",
"612 66 OFFCURVE",
"656 215 CURVE",
"656 0 LINE",
"1053 0 LINE",
"1053 18 LINE",
"676 18 LINE",
"676 339 LINE",
"1023 339 LINE",
"1023 358 LINE",
"676 358 LINE",
"676 682 LINE",
"1053 682 LINE",
"1053 700 LINE",
"656 700 LINE",
"656 490 LINE",
"615 630 OFFCURVE",
"505 712 OFFCURVE",
"362 712 CURVE SMOOTH",
"171 712 OFFCURVE",
"47 564 OFFCURVE",
"47 350 CURVE SMOOTH",
"47 135 OFFCURVE",
"171 -12 OFFCURVE",
"362 -12 CURVE SMOOTH"
);
},
{
closed = 1;
nodes = (
"195 8 OFFCURVE",
"69 133 OFFCURVE",
"69 350 CURVE SMOOTH",
"69 568 OFFCURVE",
"195 692 OFFCURVE",
"362 692 CURVE SMOOTH",
"530 692 OFFCURVE",
"654 573 OFFCURVE",
"654 350 CURVE SMOOTH",
"654 133 OFFCURVE",
"530 8 OFFCURVE",
"362 8 CURVE SMOOTH"
);
}
);
width = 1110;
},
{
anchors = (
{
name = bottom;
position = "{832, 0}";
},
{
name = top;
position = "{373, 700}";
}
);
layerId = "A6F5E7A4-47EF-4F55-BF18-0ACACB57A720";
paths = (
{
closed = 1;
nodes = (
"473 -12 OFFCURVE",
"555 26 OFFCURVE",
"611 92 CURVE",
"611 0 LINE",
"1044 0 LINE",
"1044 69 LINE",
"695 69 LINE",
"695 319 LINE",
"1014 319 LINE",
"1014 387 LINE",
"695 387 LINE",
"695 631 LINE",
"1044 631 LINE",
"1044 700 LINE",
"611 700 LINE",
"611 607 LINE",
"555 673 OFFCURVE",
"473 712 OFFCURVE",
"373 712 CURVE SMOOTH",
"180 712 OFFCURVE",
"49 564 OFFCURVE",
"49 350 CURVE SMOOTH",
"49 135 OFFCURVE",
"180 -12 OFFCURVE",
"373 -12 CURVE SMOOTH"
);
},
{
closed = 1;
nodes = (
"231 62 OFFCURVE",
"135 170 OFFCURVE",
"135 350 CURVE SMOOTH",
"135 530 OFFCURVE",
"231 637 OFFCURVE",
"373 637 CURVE SMOOTH",
"516 637 OFFCURVE",
"611 530 OFFCURVE",
"611 350 CURVE SMOOTH",
"611 170 OFFCURVE",
"516 62 OFFCURVE",
"373 62 CURVE SMOOTH"
);
}
);
width = 1103;
},
{
anchors = (
{
name = bottom;
position = "{786, 0}";
},
{
name = top;
position = "{385, 700}";
}
);
layerId = "1615C59E-33DE-4B88-B2CC-A48C7D56A125";
paths = (
{
closed = 1;
nodes = (
"434 -12 OFFCURVE",
"509 -1 OFFCURVE",
"545 46 CURVE",
"545 0 LINE",
"1025 0 LINE",
"1025 137 LINE",
"716 137 LINE",
"716 291 LINE",
"995 291 LINE",
"995 423 LINE",
"716 423 LINE",
"716 563 LINE",
"1025 563 LINE",
"1025 700 LINE",
"545 700 LINE",
"545 654 LINE",
"508 691 OFFCURVE",
"444 712 OFFCURVE",
"377 712 CURVE SMOOTH",
"186 712 OFFCURVE",
"48 564 OFFCURVE",
"48 350 CURVE SMOOTH",
"48 136 OFFCURVE",
"186 -12 OFFCURVE",
"384 -12 CURVE SMOOTH"
);
},
{
closed = 1;
nodes = (
"283 143 OFFCURVE",
"222 223 OFFCURVE",
"222 350 CURVE SMOOTH",
"222 477 OFFCURVE",
"283 557 OFFCURVE",
"384 557 CURVE SMOOTH",
"484 557 OFFCURVE",
"545 477 OFFCURVE",
"545 350 CURVE SMOOTH",
"545 223 OFFCURVE",
"484 143 OFFCURVE",
"384 143 CURVE SMOOTH"
);
}
);
width = 1080;
},
{
anchors = (
{
name = bottom;
position = "{841, 0}";
},
{
name = top;
position = "{374, 700}";
}
);
layerId = "2D111E5E-352D-4630-9162-BCEF010D26CF";
paths = (
{
closed = 1;
nodes = (
"482 -12 OFFCURVE",
"569 33 OFFCURVE",
"625 109 CURVE",
"625 0 LINE",
"1050 0 LINE",
"1050 58 LINE",
"695 58 LINE",
"695 323 LINE",
"1020 323 LINE",
"1020 381 LINE",
"695 381 LINE",
"695 642 LINE",
"1050 642 LINE",
"1050 700 LINE",
"625 700 LINE",
"625 590 LINE",
"569 667 OFFCURVE",
"482 712 OFFCURVE",
"374 712 CURVE SMOOTH",
"181 712 OFFCURVE",
"52 564 OFFCURVE",
"52 350 CURVE SMOOTH",
"52 135 OFFCURVE",
"181 -12 OFFCURVE",
"374 -12 CURVE SMOOTH"
);
},
{
closed = 1;
nodes = (
"227 50 OFFCURVE",
"124 162 OFFCURVE",
"124 350 CURVE SMOOTH",
"124 538 OFFCURVE",
"227 649 OFFCURVE",
"374 649 CURVE SMOOTH",
"522 649 OFFCURVE",
"624 538 OFFCURVE",
"624 350 CURVE SMOOTH",
"624 162 OFFCURVE",
"522 50 OFFCURVE",
"374 50 CURVE SMOOTH"
);
}
);
width = 1111;
},
{
anchors = (
{
name = bottom;
position = "{904, 0}";
},
{
name = top;
position = "{557, 700}";
}
);
layerId = "5D382461-81E1-4DF2-8677-8A6F02AD5363";
paths = (
{
closed = 1;
nodes = (
"526 -12 OFFCURVE",
"648 76 OFFCURVE",
"687 225 CURVE",
"687 0 LINE",
"1084 0 LINE",
"1084 18 LINE",
"707 18 LINE",
"707 339 LINE",
"1054 339 LINE",
"1054 358 LINE",
"707 358 LINE",
"707 682 LINE",
"1084 682 LINE",
"1084 700 LINE",
"687 700 LINE",
"687 485 LINE",
"643 623 OFFCURVE",
"527 712 OFFCURVE",
"371 712 CURVE SMOOTH",
"167 712 OFFCURVE",
"35 564 OFFCURVE",
"35 350 CURVE SMOOTH",
"35 135 OFFCURVE",
"167 -12 OFFCURVE",
"371 -12 CURVE SMOOTH"
);
},
{
closed = 1;
nodes = (
"194 8 OFFCURVE",
"57 132 OFFCURVE",
"57 350 CURVE SMOOTH",
"57 568 OFFCURVE",
"194 692 OFFCURVE",
"371 692 CURVE SMOOTH",
"548 692 OFFCURVE",
"686 568 OFFCURVE",
"686 350 CURVE SMOOTH",
"686 129 OFFCURVE",
"548 8 OFFCURVE",
"371 8 CURVE SMOOTH"
);
}
);
width = 1114;
},
{
anchors = (
{
name = bottom;
position = "{865, 0}";
},
{
name = top;
position = "{378, 700}";
}
);
layerId = "3B8883BF-F483-4B97-AC7C-CABF8B821093";
paths = (
{
closed = 1;
nodes = (
"494 -12 OFFCURVE",
"597 38 OFFCURVE",
"651 122 CURVE",
"651 0 LINE",
"1076 0 LINE",
"1076 58 LINE",
"721 58 LINE",
"721 323 LINE",
"1046 323 LINE",
"1046 381 LINE",
"721 381 LINE",
"721 642 LINE",
"1076 642 LINE",
"1076 700 LINE",
"651 700 LINE",
"651 578 LINE",
"597 662 OFFCURVE",
"494 712 OFFCURVE",
"378 712 CURVE SMOOTH",
"172 712 OFFCURVE",
"35 564 OFFCURVE",
"35 350 CURVE SMOOTH",
"35 135 OFFCURVE",
"172 -12 OFFCURVE",
"378 -12 CURVE SMOOTH"
);
},
{
closed = 1;
nodes = (
"217 49 OFFCURVE",
"107 162 OFFCURVE",
"107 350 CURVE SMOOTH",
"107 538 OFFCURVE",
"217 650 OFFCURVE",
"378 650 CURVE SMOOTH",
"542 650 OFFCURVE",
"652 538 OFFCURVE",
"652 350 CURVE SMOOTH",
"652 162 OFFCURVE",
"542 49 OFFCURVE",
"378 49 CURVE SMOOTH"
);
}
);
width = 1106;
},
{
anchors = (
{
name = bottom;
position = "{864, 0}";
},
{
name = top;
position = "{380, 700}";
}
);
layerId = "F5F01D5B-AEA3-4AC3-B3D8-92550D1582D7";
paths = (
{
closed = 1;
nodes = (
"490 -12 OFFCURVE",
"580 28 OFFCURVE",
"641 105 CURVE",
"641 0 LINE",
"1074 0 LINE",
"1074 69 LINE",
"725 69 LINE",
"725 319 LINE",
"1044 319 LINE",
"1044 387 LINE",
"725 387 LINE",
"725 631 LINE",
"1074 631 LINE",
"1074 700 LINE",
"641 700 LINE",
"641 593 LINE",
"580 673 OFFCURVE",
"490 712 OFFCURVE",
"380 712 CURVE SMOOTH",
"174 712 OFFCURVE",
"35 564 OFFCURVE",
"35 350 CURVE SMOOTH",
"35 135 OFFCURVE",
"174 -12 OFFCURVE",
"380 -12 CURVE SMOOTH"
);
},
{
closed = 1;
nodes = (
"226 62 OFFCURVE",
"121 170 OFFCURVE",
"121 350 CURVE SMOOTH",
"121 530 OFFCURVE",
"226 637 OFFCURVE",
"380 637 CURVE SMOOTH",
"534 637 OFFCURVE",
"639 530 OFFCURVE",
"639 350 CURVE SMOOTH",
"639 170 OFFCURVE",
"534 62 OFFCURVE",
"380 62 CURVE SMOOTH"
);
}
);
width = 1104;
},
{
anchors = (
{
name = bottom;
position = "{815, 0}";
},
{
name = top;
position = "{391, 700}";
}
);
layerId = "A390C1A2-E540-434D-BB9E-4BCEE875BA63";
paths = (
{
closed = 1;
nodes = (
"458 -12 OFFCURVE",
"521 5 OFFCURVE",
"574 43 CURVE",
"574 0 LINE",
"1054 0 LINE",
"1054 137 LINE",
"745 137 LINE",
"745 291 LINE",
"1024 291 LINE",
"1024 423 LINE",
"745 423 LINE",
"745 563 LINE",
"1054 563 LINE",
"1054 700 LINE",
"574 700 LINE",
"574 660 LINE",
"522 698 OFFCURVE",
"458 712 OFFCURVE",
"383 712 CURVE SMOOTH",
"181 712 OFFCURVE",
"35 564 OFFCURVE",
"35 350 CURVE SMOOTH",
"35 136 OFFCURVE",
"181 -12 OFFCURVE",
"382 -12 CURVE SMOOTH"
);
},
{
closed = 1;
nodes = (
"278 143 OFFCURVE",
"209 223 OFFCURVE",
"209 350 CURVE SMOOTH",
"209 477 OFFCURVE",
"278 557 OFFCURVE",
"391 557 CURVE SMOOTH",
"504 557 OFFCURVE",
"573 477 OFFCURVE",
"573 350 CURVE SMOOTH",
"573 223 OFFCURVE",
"504 143 OFFCURVE",
"391 143 CURVE SMOOTH"
);
}
);
width = 1084;
},
{
anchors = (
{
name = bottom;
position = "{562, 0}";
},
{
name = top;
position = "{562, 700}";
}
);
color = -1;
layerId = "12552169-0282-4A31-82CC-880002E60A2C";
paths = (
{
closed = 1;
nodes = (
"509 -12 OFFCURVE",
"608 38 OFFCURVE",
"670 133 CURVE",
"670 0 LINE",
"1065 0 LINE",
"1065 58 LINE",
"740 58 LINE",
"740 323 LINE",
"1035 323 LINE",
"1035 381 LINE",
"740 381 LINE",
"740 642 LINE",
"1065 642 LINE",
"1065 700 LINE",
"670 700 LINE",
"670 567 LINE",
"608 661 OFFCURVE",
"509 712 OFFCURVE",
"394 712 CURVE SMOOTH",
"198 712 OFFCURVE",
"48 564 OFFCURVE",
"48 350 CURVE SMOOTH",
"48 135 OFFCURVE",
"198 -12 OFFCURVE",
"394 -12 CURVE SMOOTH"
);
},
{
closed = 1;
nodes = (
"243 49 OFFCURVE",
"120 162 OFFCURVE",
"120 350 CURVE SMOOTH",
"120 538 OFFCURVE",
"243 650 OFFCURVE",
"394 650 CURVE SMOOTH",
"545 650 OFFCURVE",
"668 538 OFFCURVE",
"668 350 CURVE SMOOTH",
"668 162 OFFCURVE",
"545 49 OFFCURVE",
"394 49 CURVE SMOOTH"
);
}
);
width = 1123;
},
{
anchors = (
{
name = bottom;
position = "{559, 0}";
},
{
name = top;
position = "{559, 700}";
}
);
color = -1;
layerId = "44982FF8-7820-4F75-948C-97259056F879";
paths = (
{
closed = 1;
nodes = (
"502 -12 OFFCURVE",
"599 35 OFFCURVE",
"659 124 CURVE",
"659 0 LINE",
"1061 0 LINE",
"1061 69 LINE",
"743 69 LINE",
"743 319 LINE",
"1031 319 LINE",
"1031 387 LINE",
"743 387 LINE",
"743 631 LINE",
"1061 631 LINE",
"1061 700 LINE",
"659 700 LINE",
"659 575 LINE",
"599 664 OFFCURVE",
"502 712 OFFCURVE",
"393 712 CURVE SMOOTH",
"197 712 OFFCURVE",
"47 564 OFFCURVE",
"47 350 CURVE SMOOTH",
"47 135 OFFCURVE",
"197 -12 OFFCURVE",
"393 -12 CURVE SMOOTH"
);
},
{
closed = 1;
nodes = (
"251 62 OFFCURVE",
"133 170 OFFCURVE",
"133 350 CURVE SMOOTH",
"133 530 OFFCURVE",
"251 637 OFFCURVE",
"395 637 CURVE SMOOTH",
"540 637 OFFCURVE",
"657 530 OFFCURVE",
"657 350 CURVE SMOOTH",
"657 170 OFFCURVE",
"540 62 OFFCURVE",
"395 62 CURVE SMOOTH"
);
}
);
width = 1118;
},
{
anchors = (
{
name = bottom;
position = "{545, 0}";
},
{
name = top;
position = "{545, 700}";
}
);
color = -1;
layerId = "84B0614D-4B2F-419D-B7F2-5B7DD4CAD23C";
paths = (
{
closed = 1;
nodes = (
"459 -12 OFFCURVE",
"545 19 OFFCURVE",
"589 69 CURVE",
"589 0 LINE",
"1039 0 LINE",
"1039 137 LINE",
"760 137 LINE",
"760 291 LINE",
"1009 291 LINE",
"1009 423 LINE",
"760 423 LINE",
"760 563 LINE",
"1039 563 LINE",
"1039 700 LINE",
"589 700 LINE",
"589 627 LINE",
"544 681 OFFCURVE",
"459 712 OFFCURVE",
"385 712 CURVE SMOOTH",
"189 712 OFFCURVE",
"43 564 OFFCURVE",
"43 350 CURVE SMOOTH",
"43 136 OFFCURVE",
"189 -12 OFFCURVE",
"385 -12 CURVE SMOOTH"
);
},
{
closed = 1;
nodes = (
"300 143 OFFCURVE",
"217 223 OFFCURVE",
"217 350 CURVE SMOOTH",
"217 477 OFFCURVE",
"300 557 OFFCURVE",
"403 557 CURVE SMOOTH",
"506 557 OFFCURVE",
"589 477 OFFCURVE",
"589 350 CURVE SMOOTH",
"589 223 OFFCURVE",
"506 143 OFFCURVE",
"403 143 CURVE SMOOTH"
);
}
);
width = 1089;
},
{
anchors = (
{
name = bottom;
position = "{917, 0}";
},
{
name = top;
position = "{570, 700}";
}
);
layerId = "90D50F69-F6F7-4633-9462-ED0440D3064F";
paths = (
{
closed = 1;
nodes = (
"539 -12 OFFCURVE",
"661 76 OFFCURVE",
"700 225 CURVE",
"700 0 LINE",
"1097 0 LINE",
"1097 18 LINE",
"720 18 LINE",
"720 339 LINE",
"1067 339 LINE",
"1067 358 LINE",
"720 358 LINE",
"720 682 LINE",
"1097 682 LINE",
"1097 700 LINE",
"700 700 LINE",
"700 485 LINE",
"656 623 OFFCURVE",
"540 712 OFFCURVE",
"384 712 CURVE SMOOTH",
"180 712 OFFCURVE",
"48 564 OFFCURVE",
"48 350 CURVE SMOOTH",
"48 135 OFFCURVE",
"180 -12 OFFCURVE",
"384 -12 CURVE SMOOTH"
);
},
{
closed = 1;
nodes = (
"207 8 OFFCURVE",
"70 132 OFFCURVE",
"70 350 CURVE SMOOTH",
"70 568 OFFCURVE",
"207 692 OFFCURVE",
"384 692 CURVE SMOOTH",
"561 692 OFFCURVE",
"699 568 OFFCURVE",
"699 350 CURVE SMOOTH",
"699 129 OFFCURVE",
"561 8 OFFCURVE",
"384 8 CURVE SMOOTH"
);
}
);
width = 1155;
}
);
leftKerningGroup = O;
leftMetricsKey = O;
rightKerningGroup = E;
rightMetricsKey = E;
unicode = 0152;
userData = {
com.schriftgestaltung.Glyphs.ColorIndex = 4;
com.typesupply.AccentFactory.yCoordinates = {
bottom = {
name = origin;
type = glyphMetric;
};
top = {
name = capHeight;
type = fontInfo;
};
};
};
},
{
glyphname = P;
lastChange = "2023-05-19 14:07:26 +0000";
layers = (
{
layerId = "EB62C368-BB48-47C0-A466-DA94204A0DE4";
paths = (
{
closed = 1;
nodes = (
"98 0 LINE",
"98 309 LINE",
"261 309 LINE SMOOTH",
"424 309 OFFCURVE",
"491 388 OFFCURVE",
"491 505 CURVE SMOOTH",
"491 618 OFFCURVE",
"425 700 OFFCURVE",
"261 700 CURVE SMOOTH",
"78 700 LINE",
"78 0 LINE"
);
},
{
closed = 1;
nodes = (
"98 681 LINE",
"264 681 LINE SMOOTH",
"399 681 OFFCURVE",
"470 621 OFFCURVE",
"470 505 CURVE SMOOTH",
"470 389 OFFCURVE",
"402 328 OFFCURVE",
"264 328 CURVE SMOOTH",
"98 328 LINE"
);
}
);
width = 530;
},
{
layerId = "A6F5E7A4-47EF-4F55-BF18-0ACACB57A720";
paths = (
{
closed = 1;
nodes = (
"161 0 LINE",
"161 278 LINE",
"302 278 LINE SMOOTH",
"471 278 OFFCURVE",
"546 371 OFFCURVE",
"546 489 CURVE SMOOTH",
"546 608 OFFCURVE",
"469 700 OFFCURVE",
"302 700 CURVE SMOOTH",
"77 700 LINE",
"77 0 LINE"
);
},
{
closed = 1;
nodes = (
"161 630 LINE",
"301 630 LINE SMOOTH",
"418 630 OFFCURVE",
"460 577 OFFCURVE",
"460 489 CURVE SMOOTH",
"460 405 OFFCURVE",
"418 349 OFFCURVE",
"301 349 CURVE SMOOTH",
"161 349 LINE"
);
}
);
width = 584;
},
{
layerId = "1615C59E-33DE-4B88-B2CC-A48C7D56A125";
paths = (
{
closed = 1;
nodes = (
"243 0 LINE",
"243 236 LINE",
"354 236 LINE SMOOTH",
"537 236 OFFCURVE",
"617 347 OFFCURVE",
"617 467 CURVE SMOOTH",
"617 600 OFFCURVE",
"530 700 OFFCURVE",
"354 700 CURVE SMOOTH",
"72 700 LINE",
"72 0 LINE"
);
},
{
closed = 1;
nodes = (
"243 562 LINE",
"341 562 LINE SMOOTH",
"413 562 OFFCURVE",
"443 525 OFFCURVE",
"443 467 CURVE SMOOTH",
"443 409 OFFCURVE",
"413 372 OFFCURVE",
"341 372 CURVE SMOOTH",
"243 372 LINE"
);
}
);
width = 651;
},
{
layerId = "2D111E5E-352D-4630-9162-BCEF010D26CF";
paths = (
{
closed = 1;
nodes = (
"154 0 LINE",
"154 285 LINE",
"300 285 LINE SMOOTH",
"468 285 OFFCURVE",
"541 375 OFFCURVE",
"541 493 CURVE SMOOTH",
"541 611 OFFCURVE",
"466 700 OFFCURVE",
"300 700 CURVE SMOOTH",
"84 700 LINE",
"84 0 LINE"
);
},
{
closed = 1;
nodes = (
"154 641 LINE",
"299 641 LINE SMOOTH",
"419 641 OFFCURVE",
"469 587 OFFCURVE",
"469 493 CURVE SMOOTH",
"469 401 OFFCURVE",
"419 344 OFFCURVE",
"299 344 CURVE SMOOTH",
"154 344 LINE"
);
}
);
width = 584;
},
{
layerId = "5D382461-81E1-4DF2-8677-8A6F02AD5363";
paths = (
{
closed = 1;
nodes = (
"65 0 LINE",
"65 324 LINE",
"233 324 LINE SMOOTH",
"396 324 OFFCURVE",
"459 399 OFFCURVE",
"459 511 CURVE SMOOTH",
"459 623 OFFCURVE",
"396 700 OFFCURVE",
"233 700 CURVE SMOOTH",
"45 700 LINE",
"45 0 LINE"
);
},
{
closed = 1;
nodes = (
"65 682 LINE",
"235 682 LINE SMOOTH",
"363 682 OFFCURVE",
"438 627 OFFCURVE",
"438 511 CURVE SMOOTH",
"438 395 OFFCURVE",
"363 342 OFFCURVE",
"235 342 CURVE SMOOTH",
"65 342 LINE"
);
}
);
width = 479;
},
{
layerId = "3B8883BF-F483-4B97-AC7C-CABF8B821093";
paths = (
{
closed = 1;
nodes = (
"115 0 LINE",
"115 299 LINE",
"266 299 LINE SMOOTH",
"430 299 OFFCURVE",
"502 386 OFFCURVE",
"502 499 CURVE SMOOTH",
"502 614 OFFCURVE",
"428 700 OFFCURVE",
"266 700 CURVE SMOOTH",
"45 700 LINE",
"45 0 LINE"
);
},
{
closed = 1;
nodes = (
"115 641 LINE",
"266 641 LINE SMOOTH",
"384 641 OFFCURVE",
"430 589 OFFCURVE",
"430 499 CURVE SMOOTH",
"430 413 OFFCURVE",
"384 359 OFFCURVE",
"266 359 CURVE SMOOTH",
"115 359 LINE"
);
}
);
width = 522;
},
{
layerId = "F5F01D5B-AEA3-4AC3-B3D8-92550D1582D7";
paths = (
{
closed = 1;
nodes = (
"129 0 LINE",
"129 292 LINE",
"275 292 LINE SMOOTH",
"441 292 OFFCURVE",
"514 382 OFFCURVE",
"514 496 CURVE SMOOTH",
"514 612 OFFCURVE",
"439 700 OFFCURVE",
"275 700 CURVE SMOOTH",
"45 700 LINE",
"45 0 LINE"
);
},
{
closed = 1;
nodes = (
"129 630 LINE",
"273 630 LINE SMOOTH",
"384 630 OFFCURVE",
"428 581 OFFCURVE",
"428 496 CURVE SMOOTH",
"428 414 OFFCURVE",
"384 363 OFFCURVE",
"273 363 CURVE SMOOTH",
"129 363 LINE"
);
}
);
width = 534;
},
{
layerId = "A390C1A2-E540-434D-BB9E-4BCEE875BA63";
paths = (
{
closed = 1;
nodes = (
"216 0 LINE",
"216 250 LINE",
"332 250 LINE SMOOTH",
"511 250 OFFCURVE",
"590 358 OFFCURVE",
"590 474 CURVE SMOOTH",
"590 603 OFFCURVE",
"504 700 OFFCURVE",
"332 700 CURVE SMOOTH",
"45 700 LINE",
"45 0 LINE"
);
},
{
closed = 1;
nodes = (
"216 562 LINE",
"319 562 LINE SMOOTH",
"387 562 OFFCURVE",
"416 528 OFFCURVE",
"416 474 CURVE SMOOTH",
"416 420 OFFCURVE",
"387 386 OFFCURVE",
"319 386 CURVE SMOOTH",
"216 386 LINE"
);
}
);
width = 610;
},
{
color = -1;
layerId = "12552169-0282-4A31-82CC-880002E60A2C";
paths = (
{
closed = 1;
nodes = (
"146 0 LINE",
"146 299 LINE",
"297 299 LINE SMOOTH",
"461 299 OFFCURVE",
"533 386 OFFCURVE",
"533 499 CURVE SMOOTH",
"533 614 OFFCURVE",
"459 700 OFFCURVE",
"297 700 CURVE SMOOTH",
"76 700 LINE",
"76 0 LINE"
);
},
{
closed = 1;
nodes = (
"146 641 LINE",
"297 641 LINE SMOOTH",
"415 641 OFFCURVE",
"461 589 OFFCURVE",
"461 499 CURVE SMOOTH",
"461 413 OFFCURVE",
"415 359 OFFCURVE",
"297 359 CURVE SMOOTH",
"146 359 LINE"
);
}
);
width = 570;
},
{
color = -1;
layerId = "44982FF8-7820-4F75-948C-97259056F879";
paths = (
{
closed = 1;
nodes = (
"158 0 LINE",
"158 292 LINE",
"304 292 LINE SMOOTH",
"470 292 OFFCURVE",
"543 382 OFFCURVE",
"543 496 CURVE SMOOTH",
"543 612 OFFCURVE",
"468 700 OFFCURVE",
"304 700 CURVE SMOOTH",
"74 700 LINE",
"74 0 LINE"
);
},
{
closed = 1;
nodes = (
"158 630 LINE",
"302 630 LINE SMOOTH",
"413 630 OFFCURVE",
"457 581 OFFCURVE",
"457 496 CURVE SMOOTH",
"457 414 OFFCURVE",
"413 363 OFFCURVE",
"302 363 CURVE SMOOTH",
"158 363 LINE"
);
}
);
width = 579;
},
{
color = -1;
layerId = "84B0614D-4B2F-419D-B7F2-5B7DD4CAD23C";
paths = (
{
closed = 1;
nodes = (
"233 0 LINE",
"233 250 LINE",
"349 250 LINE SMOOTH",
"528 250 OFFCURVE",
"607 358 OFFCURVE",
"607 474 CURVE SMOOTH",
"607 603 OFFCURVE",
"521 700 OFFCURVE",
"349 700 CURVE SMOOTH",
"62 700 LINE",
"62 0 LINE"
);
},
{
closed = 1;
nodes = (
"233 562 LINE",
"336 562 LINE SMOOTH",
"404 562 OFFCURVE",
"433 528 OFFCURVE",
"433 474 CURVE SMOOTH",
"433 420 OFFCURVE",
"404 386 OFFCURVE",
"336 386 CURVE SMOOTH",
"233 386 LINE"
);
}
);
width = 634;
},
{
layerId = "90D50F69-F6F7-4633-9462-ED0440D3064F";
paths = (
{
closed = 1;
nodes = (
"96 0 LINE",
"96 324 LINE",
"264 324 LINE SMOOTH",
"427 324 OFFCURVE",
"490 399 OFFCURVE",
"490 511 CURVE SMOOTH",
"490 623 OFFCURVE",
"427 700 OFFCURVE",
"264 700 CURVE SMOOTH",
"76 700 LINE",
"76 0 LINE"
);
},
{
closed = 1;
nodes = (
"96 682 LINE",
"266 682 LINE SMOOTH",
"394 682 OFFCURVE",
"469 627 OFFCURVE",
"469 511 CURVE SMOOTH",
"469 395 OFFCURVE",
"394 342 OFFCURVE",
"266 342 CURVE SMOOTH",
"96 342 LINE"
);
}
);
width = 527;
}
);
leftKerningGroup = H;
leftMetricsKey = H;
unicode = 0050;
userData = {
com.schriftgestaltung.Glyphs.ColorIndex = 4;
com.typesupply.AccentFactory.yCoordinates = {
bottom = {
name = origin;
type = glyphMetric;
};
top = {
name = capHeight;
type = fontInfo;
};
};
};
},
{
glyphname = Thorn;
lastChange = "2023-05-19 14:07:26 +0000";
layers = (
{
layerId = "EB62C368-BB48-47C0-A466-DA94204A0DE4";
paths = (
{
closed = 1;
nodes = (
"98 0 LINE",
"98 163 LINE",
"266 163 LINE SMOOTH",
"422 163 OFFCURVE",
"491 238 OFFCURVE",
"491 351 CURVE SMOOTH",
"491 459 OFFCURVE",
"431 539 OFFCURVE",
"266 539 CURVE SMOOTH",
"98 539 LINE",
"98 700 LINE",
"78 700 LINE",
"78 0 LINE"
);
},
{
closed = 1;
nodes = (
"98 521 LINE",
"260 521 LINE SMOOTH",
"406 521 OFFCURVE",
"471 460 OFFCURVE",
"471 351 CURVE SMOOTH",
"471 243 OFFCURVE",
"406 181 OFFCURVE",
"263 181 CURVE SMOOTH",
"98 181 LINE"
);
}
);
width = 530;
},
{
layerId = "A6F5E7A4-47EF-4F55-BF18-0ACACB57A720";
paths = (
{
closed = 1;
nodes = (
"161 0 LINE",
"161 147 LINE",
"307 147 LINE SMOOTH",
"473 147 OFFCURVE",
"546 236 OFFCURVE",
"546 350 CURVE SMOOTH",
"546 467 OFFCURVE",
"471 554 OFFCURVE",
"307 554 CURVE SMOOTH",
"161 554 LINE",
"161 700 LINE",
"77 700 LINE",
"77 0 LINE"
);
},
{
closed = 1;
nodes = (
"161 484 LINE",
"305 484 LINE SMOOTH",
"416 484 OFFCURVE",
"460 435 OFFCURVE",
"460 350 CURVE SMOOTH",
"460 268 OFFCURVE",
"416 217 OFFCURVE",
"305 217 CURVE SMOOTH",
"161 217 LINE"
);
}
);
width = 584;
},
{
layerId = "1615C59E-33DE-4B88-B2CC-A48C7D56A125";
paths = (
{
closed = 1;
nodes = (
"243 0 LINE",
"243 125 LINE",
"359 125 LINE SMOOTH",
"538 125 OFFCURVE",
"617 233 OFFCURVE",
"617 349 CURVE SMOOTH",
"617 478 OFFCURVE",
"531 575 OFFCURVE",
"359 575 CURVE SMOOTH",
"243 575 LINE",
"243 700 LINE",
"72 700 LINE",
"72 0 LINE"
);
},
{
closed = 1;
nodes = (
"243 437 LINE",
"346 437 LINE SMOOTH",
"414 437 OFFCURVE",
"443 403 OFFCURVE",
"443 349 CURVE SMOOTH",
"443 295 OFFCURVE",
"414 261 OFFCURVE",
"346 261 CURVE SMOOTH",
"243 261 LINE"
);
}
);
width = 651;
},
{
layerId = "2D111E5E-352D-4630-9162-BCEF010D26CF";
paths = (
{
closed = 1;
nodes = (
"154 0 LINE",
"154 151 LINE",
"305 151 LINE SMOOTH",
"469 151 OFFCURVE",
"541 236 OFFCURVE",
"541 350 CURVE SMOOTH",
"541 465 OFFCURVE",
"467 551 OFFCURVE",
"305 551 CURVE SMOOTH",
"154 551 LINE",
"154 700 LINE",
"84 700 LINE",
"84 0 LINE"
);
},
{
closed = 1;
nodes = (
"154 492 LINE",
"305 492 LINE SMOOTH",
"423 492 OFFCURVE",
"469 440 OFFCURVE",
"469 350 CURVE SMOOTH",
"469 264 OFFCURVE",
"423 210 OFFCURVE",
"305 210 CURVE SMOOTH",
"154 210 LINE"
);
}
);
width = 584;
},
{
layerId = "5D382461-81E1-4DF2-8677-8A6F02AD5363";
paths = (
{
closed = 1;
nodes = (
"65 0 LINE",
"65 163 LINE",
"233 163 LINE SMOOTH",
"389 163 OFFCURVE",
"458 238 OFFCURVE",
"458 351 CURVE SMOOTH",
"458 459 OFFCURVE",
"398 539 OFFCURVE",
"233 539 CURVE SMOOTH",
"65 539 LINE",
"65 700 LINE",
"45 700 LINE",
"45 0 LINE"
);
},
{
closed = 1;
nodes = (
"65 521 LINE",
"227 521 LINE SMOOTH",
"373 521 OFFCURVE",
"438 460 OFFCURVE",
"438 351 CURVE SMOOTH",
"438 243 OFFCURVE",
"373 181 OFFCURVE",
"230 181 CURVE SMOOTH",
"65 181 LINE"
);
}
);
width = 478;
},
{
layerId = "3B8883BF-F483-4B97-AC7C-CABF8B821093";
paths = (
{
closed = 1;
nodes = (
"115 0 LINE",
"115 151 LINE",
"266 151 LINE SMOOTH",
"430 151 OFFCURVE",
"502 236 OFFCURVE",
"502 350 CURVE SMOOTH",
"502 465 OFFCURVE",
"428 551 OFFCURVE",
"266 551 CURVE SMOOTH",
"115 551 LINE",
"115 700 LINE",
"45 700 LINE",
"45 0 LINE"
);
},
{
closed = 1;
nodes = (
"115 492 LINE",
"266 492 LINE SMOOTH",
"384 492 OFFCURVE",
"430 440 OFFCURVE",
"430 350 CURVE SMOOTH",
"430 264 OFFCURVE",
"384 210 OFFCURVE",
"266 210 CURVE SMOOTH",
"115 210 LINE"
);
}
);
width = 522;
},
{
layerId = "F5F01D5B-AEA3-4AC3-B3D8-92550D1582D7";
paths = (
{
closed = 1;
nodes = (
"129 0 LINE",
"129 147 LINE",
"275 147 LINE SMOOTH",
"441 147 OFFCURVE",
"514 236 OFFCURVE",
"514 350 CURVE SMOOTH",
"514 467 OFFCURVE",
"439 554 OFFCURVE",
"275 554 CURVE SMOOTH",
"129 554 LINE",
"129 700 LINE",
"45 700 LINE",
"45 0 LINE"
);
},
{
closed = 1;
nodes = (
"129 484 LINE",
"273 484 LINE SMOOTH",
"384 484 OFFCURVE",
"428 435 OFFCURVE",
"428 350 CURVE SMOOTH",
"428 268 OFFCURVE",
"384 217 OFFCURVE",
"273 217 CURVE SMOOTH",
"129 217 LINE"
);
}
);
width = 534;
},
{
layerId = "A390C1A2-E540-434D-BB9E-4BCEE875BA63";
paths = (
{
closed = 1;
nodes = (
"216 0 LINE",
"216 125 LINE",
"332 125 LINE SMOOTH",
"511 125 OFFCURVE",
"590 233 OFFCURVE",
"590 349 CURVE SMOOTH",
"590 478 OFFCURVE",
"504 575 OFFCURVE",
"332 575 CURVE SMOOTH",
"216 575 LINE",
"216 700 LINE",
"45 700 LINE",
"45 0 LINE"
);
},
{
closed = 1;
nodes = (
"216 437 LINE",
"319 437 LINE SMOOTH",
"387 437 OFFCURVE",
"416 403 OFFCURVE",
"416 349 CURVE SMOOTH",
"416 295 OFFCURVE",
"387 261 OFFCURVE",
"319 261 CURVE SMOOTH",
"216 261 LINE"
);
}
);
width = 610;
},
{
color = -1;
layerId = "12552169-0282-4A31-82CC-880002E60A2C";
paths = (
{
closed = 1;
nodes = (
"146 0 LINE",
"146 150 LINE",
"297 150 LINE SMOOTH",
"461 150 OFFCURVE",
"533 237 OFFCURVE",
"533 350 CURVE SMOOTH",
"533 465 OFFCURVE",
"459 551 OFFCURVE",
"297 551 CURVE SMOOTH",
"146 551 LINE",
"146 700 LINE",
"76 700 LINE",
"76 0 LINE"
);
},
{
closed = 1;
nodes = (
"146 492 LINE",
"297 492 LINE SMOOTH",
"415 492 OFFCURVE",
"461 440 OFFCURVE",
"461 350 CURVE SMOOTH",
"461 264 OFFCURVE",
"415 210 OFFCURVE",
"297 210 CURVE SMOOTH",
"146 210 LINE"
);
}
);
width = 570;
},
{
color = -1;
layerId = "44982FF8-7820-4F75-948C-97259056F879";
paths = (
{
closed = 1;
nodes = (
"158 0 LINE",
"158 147 LINE",
"304 147 LINE SMOOTH",
"470 147 OFFCURVE",
"543 236 OFFCURVE",
"543 350 CURVE SMOOTH",
"543 467 OFFCURVE",
"468 554 OFFCURVE",
"304 554 CURVE SMOOTH",
"158 554 LINE",
"158 700 LINE",
"74 700 LINE",
"74 0 LINE"
);
},
{
closed = 1;
nodes = (
"158 484 LINE",
"302 484 LINE SMOOTH",
"413 484 OFFCURVE",
"457 435 OFFCURVE",
"457 350 CURVE SMOOTH",
"457 268 OFFCURVE",
"413 217 OFFCURVE",
"302 217 CURVE SMOOTH",
"158 217 LINE"
);
}
);
width = 579;
},
{
color = -1;
layerId = "84B0614D-4B2F-419D-B7F2-5B7DD4CAD23C";
paths = (
{
closed = 1;
nodes = (
"233 0 LINE",
"233 125 LINE",
"349 125 LINE SMOOTH",
"528 125 OFFCURVE",
"607 233 OFFCURVE",
"607 349 CURVE SMOOTH",
"607 478 OFFCURVE",
"521 575 OFFCURVE",
"349 575 CURVE SMOOTH",
"233 575 LINE",
"233 700 LINE",
"62 700 LINE",
"62 0 LINE"
);
},
{
closed = 1;
nodes = (
"233 437 LINE",
"336 437 LINE SMOOTH",
"404 437 OFFCURVE",
"433 403 OFFCURVE",
"433 349 CURVE SMOOTH",
"433 295 OFFCURVE",
"404 261 OFFCURVE",
"336 261 CURVE SMOOTH",
"233 261 LINE"
);
}
);
width = 634;
},
{
layerId = "90D50F69-F6F7-4633-9462-ED0440D3064F";
paths = (
{
closed = 1;
nodes = (
"96 0 LINE",
"96 163 LINE",
"264 163 LINE SMOOTH",
"420 163 OFFCURVE",
"489 238 OFFCURVE",
"489 351 CURVE SMOOTH",
"489 459 OFFCURVE",
"429 539 OFFCURVE",
"264 539 CURVE SMOOTH",
"96 539 LINE",
"96 700 LINE",
"76 700 LINE",
"76 0 LINE"
);
},
{
closed = 1;
nodes = (
"96 521 LINE",
"258 521 LINE SMOOTH",
"404 521 OFFCURVE",
"469 460 OFFCURVE",
"469 351 CURVE SMOOTH",
"469 243 OFFCURVE",
"404 181 OFFCURVE",
"261 181 CURVE SMOOTH",
"96 181 LINE"
);
}
);
width = 526;
}
);
leftKerningGroup = H;
leftMetricsKey = H;
rightMetricsKey = P;
unicode = 00DE;
userData = {
com.schriftgestaltung.Glyphs.ColorIndex = 4;
};
},
{
glyphname = Q;
lastChange = "2023-05-19 14:07:26 +0000";
layers = (
{
components = (
{
alignment = -1;
name = O;
}
);
layerId = "EB62C368-BB48-47C0-A466-DA94204A0DE4";
paths = (
{
closed = 1;
nodes = (
"588 -86 LINE",
"377 266 LINE",
"355 266 LINE",
"566 -86 LINE"
);
}
);
width = 725;
},
{
components = (
{
alignment = -1;
name = O;
}
);
layerId = "A6F5E7A4-47EF-4F55-BF18-0ACACB57A720";
paths = (
{
closed = 1;
nodes = (
"655 -95 LINE",
"420 273 LINE",
"323 273 LINE",
"558 -95 LINE"
);
}
);
width = 746;
},
{
components = (
{
alignment = -1;
name = O;
}
);
layerId = "1615C59E-33DE-4B88-B2CC-A48C7D56A125";
paths = (
{
closed = 1;
nodes = (
"741 -120 LINE",
"462 303 LINE",
"266 303 LINE",
"534 -120 LINE"
);
}
);
width = 767;
},
{
components = (
{
alignment = -1;
name = O;
}
);
layerId = "2D111E5E-352D-4630-9162-BCEF010D26CF";
paths = (
{
closed = 1;
nodes = (
"652 -95 LINE",
"417 273 LINE",
"328 273 LINE",
"563 -95 LINE"
);
}
);
width = 748;
},
{
components = (
{
alignment = -1;
name = O;
}
);
layerId = "A390C1A2-E540-434D-BB9E-4BCEE875BA63";
paths = (
{
closed = 1;
nodes = (
"748 -120 LINE",
"469 303 LINE",
"273 303 LINE",
"541 -120 LINE"
);
}
);
width = 782;
},
{
components = (
{
alignment = -1;
name = O;
}
);
layerId = "84B0614D-4B2F-419D-B7F2-5B7DD4CAD23C";
paths = (
{
closed = 1;
nodes = (
"756 -120 LINE",
"477 303 LINE",
"281 303 LINE",
"549 -120 LINE"
);
}
);
width = 798;
},
{
components = (
{
alignment = -1;
name = O;
}
);
layerId = "44982FF8-7820-4F75-948C-97259056F879";
paths = (
{
closed = 1;
nodes = (
"675 -95 LINE",
"440 273 LINE",
"343 273 LINE",
"578 -95 LINE"
);
}
);
width = 784;
},
{
components = (
{
alignment = -1;
name = O;
}
);
layerId = "12552169-0282-4A31-82CC-880002E60A2C";
paths = (
{
closed = 1;
nodes = (
"669 -95 LINE",
"434 273 LINE",
"345 273 LINE",
"580 -95 LINE"
);
}
);
width = 782;
},
{
components = (
{
alignment = -1;
name = O;
}
);
layerId = "90D50F69-F6F7-4633-9462-ED0440D3064F";
paths = (
{
closed = 1;
nodes = (
"610 -86 LINE",
"399 266 LINE",
"377 266 LINE",
"588 -86 LINE"
);
}
);
width = 769;
},
{
components = (
{
alignment = -1;
name = O;
}
);
layerId = "5D382461-81E1-4DF2-8677-8A6F02AD5363";
paths = (
{
closed = 1;
nodes = (
"597 -86 LINE",
"386 266 LINE",
"364 266 LINE",
"575 -86 LINE"
);
}
);
width = 743;
},
{
components = (
{
alignment = -1;
name = O;
}
);
layerId = "3B8883BF-F483-4B97-AC7C-CABF8B821093";
paths = (
{
closed = 1;
nodes = (
"656 -95 LINE",
"421 273 LINE",
"332 273 LINE",
"567 -95 LINE"
);
}
);
width = 756;
},
{
components = (
{
alignment = -1;
name = O;
}
);
layerId = "F5F01D5B-AEA3-4AC3-B3D8-92550D1582D7";
paths = (
{
closed = 1;
nodes = (
"663 -95 LINE",
"428 273 LINE",
"331 273 LINE",
"566 -95 LINE"
);
}
);
width = 760;
}
);
leftKerningGroup = O;
leftMetricsKey = O;
widthMetricsKey = O;
unicode = 0051;
userData = {
com.schriftgestaltung.Glyphs.ColorIndex = 4;
com.typesupply.AccentFactory.yCoordinates = {
bottom = {
name = origin;
type = glyphMetric;
};
top = {
name = capHeight;
type = fontInfo;
};
};
};
},
{
glyphname = R;
lastChange = "2023-05-19 14:07:26 +0000";
layers = (
{
anchors = (
{
name = bottom;
position = "{270, 0}";
},
{
name = top;
position = "{270, 700}";
}
);
layerId = "EB62C368-BB48-47C0-A466-DA94204A0DE4";
paths = (
{
closed = 1;
nodes = (
"98 0 LINE",
"98 309 LINE",
"253 309 LINE SMOOTH",
"416 309 OFFCURVE",
"479 384 OFFCURVE",
"479 506 CURVE SMOOTH",
"479 618 OFFCURVE",
"416 700 OFFCURVE",
"253 700 CURVE SMOOTH",
"78 700 LINE",
"78 0 LINE"
);
},
{
closed = 1;
nodes = (
"486 0 LINE",
"319 322 LINE",
"297 322 LINE",
"464 0 LINE"
);
},
{
closed = 1;
nodes = (
"98 682 LINE",
"254 682 LINE SMOOTH",
"383 682 OFFCURVE",
"458 622 OFFCURVE",
"458 506 CURVE SMOOTH",
"458 380 OFFCURVE",
"383 327 OFFCURVE",
"254 327 CURVE SMOOTH",
"98 327 LINE"
);
}
);
width = 540;
},
{
anchors = (
{
name = bottom;
position = "{270, 0}";
},
{
name = top;
position = "{270, 700}";
}
);
layerId = "A6F5E7A4-47EF-4F55-BF18-0ACACB57A720";
paths = (
{
closed = 1;
nodes = (
"161 0 LINE",
"161 289 LINE",
"299 289 LINE SMOOTH",
"465 289 OFFCURVE",
"539 383 OFFCURVE",
"539 495 CURVE SMOOTH",
"539 610 OFFCURVE",
"466 700 OFFCURVE",
"303 700 CURVE SMOOTH",
"77 700 LINE",
"77 0 LINE"
);
},
{
closed = 1;
nodes = (
"546 0 LINE",
"387 313 LINE",
"293 313 LINE",
"447 0 LINE"
);
},
{
closed = 1;
nodes = (
"161 629 LINE",
"296 629 LINE SMOOTH",
"407 629 OFFCURVE",
"452 577 OFFCURVE",
"452 494 CURVE SMOOTH",
"452 413 OFFCURVE",
"404 355 OFFCURVE",
"297 355 CURVE SMOOTH",
"161 355 LINE"
);
}
);
width = 598;
},
{
anchors = (
{
name = bottom;
position = "{290, 0}";
},
{
name = top;
position = "{290, 700}";
}
);
layerId = "1615C59E-33DE-4B88-B2CC-A48C7D56A125";
paths = (
{
closed = 1;
nodes = (
"243 0 LINE",
"243 263 LINE",
"359 263 LINE SMOOTH",
"539 263 OFFCURVE",
"617 367 OFFCURVE",
"617 479 CURVE SMOOTH",
"617 601 OFFCURVE",
"531 700 OFFCURVE",
"359 700 CURVE SMOOTH",
"72 700 LINE",
"72 0 LINE"
);
},
{
closed = 1;
nodes = (
"623 0 LINE",
"476 304 LINE",
"293 304 LINE",
"430 0 LINE"
);
},
{
closed = 1;
nodes = (
"243 558 LINE",
"349 558 LINE SMOOTH",
"413 558 OFFCURVE",
"443 524 OFFCURVE",
"443 472 CURVE SMOOTH",
"443 417 OFFCURVE",
"413 384 OFFCURVE",
"349 384 CURVE SMOOTH",
"243 384 LINE"
);
}
);
width = 669;
},
{
anchors = (
{
name = bottom;
position = "{270, 0}";
},
{
name = top;
position = "{270, 700}";
}
);
layerId = "2D111E5E-352D-4630-9162-BCEF010D26CF";
paths = (
{
closed = 1;
nodes = (
"154 0 LINE",
"154 293 LINE",
"296 293 LINE SMOOTH",
"461 293 OFFCURVE",
"532 383 OFFCURVE",
"532 497 CURVE SMOOTH",
"532 612 OFFCURVE",
"462 700 OFFCURVE",
"299 700 CURVE SMOOTH",
"84 700 LINE",
"84 0 LINE"
);
},
{
closed = 1;
nodes = (
"540 0 LINE",
"379 315 LINE",
"300 315 LINE",
"457 0 LINE"
);
},
{
closed = 1;
nodes = (
"154 641 LINE",
"294 641 LINE SMOOTH",
"408 641 OFFCURVE",
"460 587 OFFCURVE",
"460 497 CURVE SMOOTH",
"460 406 OFFCURVE",
"406 349 OFFCURVE",
"294 349 CURVE SMOOTH",
"154 349 LINE"
);
}
);
width = 597;
},
{
anchors = (
{
name = bottom;
position = "{235, 0}";
},
{
name = top;
position = "{235, 700}";
}
);
layerId = "5D382461-81E1-4DF2-8677-8A6F02AD5363";
paths = (
{
closed = 1;
nodes = (
"65 0 LINE",
"65 309 LINE",
"220 309 LINE SMOOTH",
"383 309 OFFCURVE",
"446 384 OFFCURVE",
"446 506 CURVE SMOOTH",
"446 618 OFFCURVE",
"383 700 OFFCURVE",
"220 700 CURVE SMOOTH",
"45 700 LINE",
"45 0 LINE"
);
},
{
closed = 1;
nodes = (
"454 0 LINE",
"287 322 LINE",
"264 322 LINE",
"431 0 LINE"
);
},
{
closed = 1;
nodes = (
"65 682 LINE",
"222 682 LINE SMOOTH",
"350 682 OFFCURVE",
"425 622 OFFCURVE",
"425 506 CURVE SMOOTH",
"425 380 OFFCURVE",
"350 327 OFFCURVE",
"222 327 CURVE SMOOTH",
"65 327 LINE"
);
}
);
width = 469;
},
{
anchors = (
{
name = bottom;
position = "{258, 0}";
},
{
name = top;
position = "{258, 700}";
}
);
layerId = "3B8883BF-F483-4B97-AC7C-CABF8B821093";
paths = (
{
closed = 1;
nodes = (
"115 0 LINE",
"115 293 LINE",
"256 293 LINE SMOOTH",
"420 293 OFFCURVE",
"493 385 OFFCURVE",
"493 497 CURVE SMOOTH",
"493 612 OFFCURVE",
"423 700 OFFCURVE",
"261 700 CURVE SMOOTH",
"45 700 LINE",
"45 0 LINE"
);
},
{
closed = 1;
nodes = (
"501 0 LINE",
"340 315 LINE",
"260 315 LINE",
"417 0 LINE"
);
},
{
closed = 1;
nodes = (
"115 641 LINE",
"255 641 LINE SMOOTH",
"373 641 OFFCURVE",
"421 585 OFFCURVE",
"421 497 CURVE SMOOTH",
"421 412 OFFCURVE",
"370 350 OFFCURVE",
"256 350 CURVE SMOOTH",
"115 350 LINE"
);
}
);
width = 516;
},
{
anchors = (
{
name = bottom;
position = "{265, 0}";
},
{
name = top;
position = "{265, 700}";
}
);
layerId = "F5F01D5B-AEA3-4AC3-B3D8-92550D1582D7";
paths = (
{
closed = 1;
nodes = (
"129 0 LINE",
"129 289 LINE",
"267 289 LINE SMOOTH",
"433 289 OFFCURVE",
"507 383 OFFCURVE",
"507 495 CURVE SMOOTH",
"507 610 OFFCURVE",
"434 700 OFFCURVE",
"271 700 CURVE SMOOTH",
"45 700 LINE",
"45 0 LINE"
);
},
{
closed = 1;
nodes = (
"514 0 LINE",
"355 313 LINE",
"261 313 LINE",
"415 0 LINE"
);
},
{
closed = 1;
nodes = (
"129 629 LINE",
"264 629 LINE SMOOTH",
"375 629 OFFCURVE",
"420 577 OFFCURVE",
"420 494 CURVE SMOOTH",
"420 413 OFFCURVE",
"372 355 OFFCURVE",
"265 355 CURVE SMOOTH",
"129 355 LINE"
);
}
);
width = 529;
},
{
anchors = (
{
name = bottom;
position = "{306, 0}";
},
{
name = top;
position = "{306, 700}";
}
);
layerId = "A390C1A2-E540-434D-BB9E-4BCEE875BA63";
paths = (
{
closed = 1;
nodes = (
"216 0 LINE",
"216 263 LINE",
"332 263 LINE SMOOTH",
"512 263 OFFCURVE",
"590 367 OFFCURVE",
"590 479 CURVE SMOOTH",
"590 601 OFFCURVE",
"504 700 OFFCURVE",
"332 700 CURVE SMOOTH",
"45 700 LINE",
"45 0 LINE"
);
},
{
closed = 1;
nodes = (
"596 0 LINE",
"449 304 LINE",
"266 304 LINE",
"403 0 LINE"
);
},
{
closed = 1;
nodes = (
"216 558 LINE",
"322 558 LINE SMOOTH",
"386 558 OFFCURVE",
"416 524 OFFCURVE",
"416 472 CURVE SMOOTH",
"416 417 OFFCURVE",
"386 384 OFFCURVE",
"322 384 CURVE SMOOTH",
"216 384 LINE"
);
}
);
width = 611;
},
{
anchors = (
{
name = bottom;
position = "{292, 0}";
},
{
name = top;
position = "{292, 700}";
}
);
color = -1;
layerId = "12552169-0282-4A31-82CC-880002E60A2C";
paths = (
{
closed = 1;
nodes = (
"146 0 LINE",
"146 293 LINE",
"287 293 LINE SMOOTH",
"451 293 OFFCURVE",
"524 385 OFFCURVE",
"524 497 CURVE SMOOTH",
"524 612 OFFCURVE",
"454 700 OFFCURVE",
"292 700 CURVE SMOOTH",
"76 700 LINE",
"76 0 LINE"
);
},
{
closed = 1;
nodes = (
"532 0 LINE",
"371 315 LINE",
"291 315 LINE",
"448 0 LINE"
);
},
{
closed = 1;
nodes = (
"146 641 LINE",
"286 641 LINE SMOOTH",
"404 641 OFFCURVE",
"452 585 OFFCURVE",
"452 497 CURVE SMOOTH",
"452 412 OFFCURVE",
"401 350 OFFCURVE",
"287 350 CURVE SMOOTH",
"146 350 LINE"
);
}
);
width = 583;
},
{
anchors = (
{
name = bottom;
position = "{297, 0}";
},
{
name = top;
position = "{297, 700}";
}
);
color = -1;
layerId = "44982FF8-7820-4F75-948C-97259056F879";
paths = (
{
closed = 1;
nodes = (
"158 0 LINE",
"158 289 LINE",
"296 289 LINE SMOOTH",
"462 289 OFFCURVE",
"536 383 OFFCURVE",
"536 495 CURVE SMOOTH",
"536 610 OFFCURVE",
"463 700 OFFCURVE",
"300 700 CURVE SMOOTH",
"74 700 LINE",
"74 0 LINE"
);
},
{
closed = 1;
nodes = (
"543 0 LINE",
"384 313 LINE",
"290 313 LINE",
"444 0 LINE"
);
},
{
closed = 1;
nodes = (
"158 629 LINE",
"293 629 LINE SMOOTH",
"404 629 OFFCURVE",
"449 577 OFFCURVE",
"449 494 CURVE SMOOTH",
"449 413 OFFCURVE",
"401 355 OFFCURVE",
"294 355 CURVE SMOOTH",
"158 355 LINE"
);
}
);
width = 593;
},
{
anchors = (
{
name = bottom;
position = "{326, 0}";
},
{
name = top;
position = "{326, 700}";
}
);
color = -1;
layerId = "84B0614D-4B2F-419D-B7F2-5B7DD4CAD23C";
paths = (
{
closed = 1;
nodes = (
"233 0 LINE",
"233 263 LINE",
"349 263 LINE SMOOTH",
"529 263 OFFCURVE",
"607 367 OFFCURVE",
"607 479 CURVE SMOOTH",
"607 601 OFFCURVE",
"521 700 OFFCURVE",
"349 700 CURVE SMOOTH",
"62 700 LINE",
"62 0 LINE"
);
},
{
closed = 1;
nodes = (
"613 0 LINE",
"466 304 LINE",
"283 304 LINE",
"420 0 LINE"
);
},
{
closed = 1;
nodes = (
"233 558 LINE",
"339 558 LINE SMOOTH",
"403 558 OFFCURVE",
"433 524 OFFCURVE",
"433 472 CURVE SMOOTH",
"433 417 OFFCURVE",
"403 384 OFFCURVE",
"339 384 CURVE SMOOTH",
"233 384 LINE"
);
}
);
width = 652;
},
{
anchors = (
{
name = bottom;
position = "{268, 0}";
},
{
name = top;
position = "{268, 700}";
}
);
layerId = "90D50F69-F6F7-4633-9462-ED0440D3064F";
paths = (
{
closed = 1;
nodes = (
"96 0 LINE",
"96 309 LINE",
"251 309 LINE SMOOTH",
"414 309 OFFCURVE",
"477 384 OFFCURVE",
"477 506 CURVE SMOOTH",
"477 618 OFFCURVE",
"414 700 OFFCURVE",
"251 700 CURVE SMOOTH",
"76 700 LINE",
"76 0 LINE"
);
},
{
closed = 1;
nodes = (
"485 0 LINE",
"318 322 LINE",
"295 322 LINE",
"462 0 LINE"
);
},
{
closed = 1;
nodes = (
"96 682 LINE",
"253 682 LINE SMOOTH",
"381 682 OFFCURVE",
"456 622 OFFCURVE",
"456 506 CURVE SMOOTH",
"456 380 OFFCURVE",
"381 327 OFFCURVE",
"253 327 CURVE SMOOTH",
"96 327 LINE"
);
}
);
width = 536;
}
);
leftKerningGroup = H;
leftMetricsKey = H;
rightKerningGroup = R;
unicode = 0052;
userData = {
com.schriftgestaltung.Glyphs.ColorIndex = 4;
com.typesupply.AccentFactory.yCoordinates = {
bottom = {
name = origin;
type = glyphMetric;
};
top = {
name = capHeight;
type = fontInfo;
};
};
};
},
{
glyphname = S;
lastChange = "2023-05-19 14:07:26 +0000";
layers = (
{
anchors = (
{
name = bottom;
position = "{271, 0}";
},
{
name = top;
position = "{271, 700}";
}
);
layerId = "EB62C368-BB48-47C0-A466-DA94204A0DE4";
paths = (
{
closed = 1;
nodes = (
"430 -12 OFFCURVE",
"502 71 OFFCURVE",
"502 179 CURVE SMOOTH",
"502 274 OFFCURVE",
"446 322 OFFCURVE",
"376 354 CURVE SMOOTH",
"257 408 OFFCURVE",
"97 416 OFFCURVE",
"97 550 CURVE SMOOTH",
"97 623 OFFCURVE",
"144 692 OFFCURVE",
"271 692 CURVE SMOOTH",
"371 692 OFFCURVE",
"449 650 OFFCURVE",
"449 528 CURVE",
"471 528 LINE",
"471 658 OFFCURVE",
"382 712 OFFCURVE",
"271 712 CURVE SMOOTH",
"140 712 OFFCURVE",
"75 637 OFFCURVE",
"75 550 CURVE SMOOTH",
"75 467 OFFCURVE",
"128 424 OFFCURVE",
"206 393 CURVE SMOOTH",
"319 348 OFFCURVE",
"480 333 OFFCURVE",
"480 179 CURVE SMOOTH",
"480 84 OFFCURVE",
"419 8 OFFCURVE",
"278 8 CURVE SMOOTH",
"122 8 OFFCURVE",
"61 102 OFFCURVE",
"63 210 CURVE",
"41 210 LINE",
"39 87 OFFCURVE",
"113 -12 OFFCURVE",
"279 -12 CURVE SMOOTH"
);
}
);
width = 543;
},
{
anchors = (
{
name = bottom;
position = "{299, 0}";
},
{
name = top;
position = "{291, 700}";
}
);
layerId = "A6F5E7A4-47EF-4F55-BF18-0ACACB57A720";
paths = (
{
closed = 1;
nodes = (
"458 -12 OFFCURVE",
"537 83 OFFCURVE",
"537 183 CURVE SMOOTH",
"537 301 OFFCURVE",
"463 349 OFFCURVE",
"362 384 CURVE SMOOTH",
"242 424 OFFCURVE",
"159 438 OFFCURVE",
"159 528 CURVE SMOOTH",
"159 599 OFFCURVE",
"213 641 OFFCURVE",
"289 640 CURVE SMOOTH",
"381 640 OFFCURVE",
"426 576 OFFCURVE",
"426 518 CURVE",
"514 518 LINE",
"513 631 OFFCURVE",
"425 712 OFFCURVE",
"292 712 CURVE SMOOTH",
"156 712 OFFCURVE",
"71 633 OFFCURVE",
"72 520 CURVE SMOOTH",
"72 431 OFFCURVE",
"122 377 OFFCURVE",
"239 340 CURVE SMOOTH",
"355 303 OFFCURVE",
"450 280 OFFCURVE",
"450 178 CURVE SMOOTH",
"450 110 OFFCURVE",
"395 59 OFFCURVE",
"301 59 CURVE SMOOTH",
"193 59 OFFCURVE",
"136 128 OFFCURVE",
"136 210 CURVE",
"48 210 LINE",
"48 77 OFFCURVE",
"147 -12 OFFCURVE",
"301 -12 CURVE SMOOTH"
);
}
);
width = 586;
},
{
anchors = (
{
name = bottom;
position = "{323, 0}";
},
{
name = top;
position = "{315, 700}";
}
);
layerId = "1615C59E-33DE-4B88-B2CC-A48C7D56A125";
paths = (
{
closed = 1;
nodes = (
"489 -12 OFFCURVE",
"581 86 OFFCURVE",
"581 204 CURVE SMOOTH",
"581 337 OFFCURVE",
"484 382 OFFCURVE",
"377 418 CURVE SMOOTH",
"302 443 OFFCURVE",
"242 463 OFFCURVE",
"242 515 CURVE SMOOTH",
"242 552 OFFCURVE",
"273 570 OFFCURVE",
"310 569 CURVE SMOOTH",
"348 568 OFFCURVE",
"380 542 OFFCURVE",
"383 502 CURVE",
"568 502 LINE",
"561 636 OFFCURVE",
"458 712 OFFCURVE",
"311 712 CURVE SMOOTH",
"170 712 OFFCURVE",
"61 638 OFFCURVE",
"61 505 CURVE SMOOTH",
"61 398 OFFCURVE",
"125 337 OFFCURVE",
"247 302 CURVE SMOOTH",
"335 276 OFFCURVE",
"398 238 OFFCURVE",
"398 192 CURVE SMOOTH",
"398 150 OFFCURVE",
"365 131 OFFCURVE",
"324 131 CURVE SMOOTH",
"274 131 OFFCURVE",
"237 162 OFFCURVE",
"233 212 CURVE",
"51 212 LINE",
"56 63 OFFCURVE",
"174 -12 OFFCURVE",
"325 -12 CURVE SMOOTH"
);
}
);
width = 634;
},
{
anchors = (
{
name = bottom;
position = "{298, 0}";
},
{
name = top;
position = "{291, 700}";
}
);
layerId = "2D111E5E-352D-4630-9162-BCEF010D26CF";
paths = (
{
closed = 1;
nodes = (
"457 -12 OFFCURVE",
"534 80 OFFCURVE",
"534 182 CURVE SMOOTH",
"534 295 OFFCURVE",
"464 343 OFFCURVE",
"370 377 CURVE SMOOTH",
"250 421 OFFCURVE",
"150 433 OFFCURVE",
"150 533 CURVE SMOOTH",
"150 604 OFFCURVE",
"203 652 OFFCURVE",
"290 651 CURVE SMOOTH",
"384 651 OFFCURVE",
"436 592 OFFCURVE",
"436 520 CURVE",
"509 520 LINE",
"509 637 OFFCURVE",
"420 712 OFFCURVE",
"292 712 CURVE SMOOTH",
"157 712 OFFCURVE",
"77 634 OFFCURVE",
"77 527 CURVE SMOOTH",
"77 439 OFFCURVE",
"128 387 OFFCURVE",
"239 351 CURVE SMOOTH",
"354 313 OFFCURVE",
"461 289 OFFCURVE",
"461 178 CURVE SMOOTH",
"461 104 OFFCURVE",
"405 48 OFFCURVE",
"301 48 CURVE SMOOTH",
"182 48 OFFCURVE",
"124 122 OFFCURVE",
"125 210 CURVE",
"51 210 LINE",
"51 79 OFFCURVE",
"144 -12 OFFCURVE",
"301 -12 CURVE SMOOTH"
);
}
);
width = 586;
},
{
anchors = (
{
name = bottom;
position = "{256, 0}";
},
{
name = top;
position = "{256, 700}";
}
);
layerId = "5D382461-81E1-4DF2-8677-8A6F02AD5363";
paths = (
{
closed = 1;
nodes = (
"414 -12 OFFCURVE",
"486 71 OFFCURVE",
"486 179 CURVE SMOOTH",
"486 274 OFFCURVE",
"430 322 OFFCURVE",
"360 354 CURVE SMOOTH",
"241 408 OFFCURVE",
"81 416 OFFCURVE",
"81 550 CURVE SMOOTH",
"81 623 OFFCURVE",
"128 692 OFFCURVE",
"255 692 CURVE SMOOTH",
"355 692 OFFCURVE",
"433 650 OFFCURVE",
"433 528 CURVE",
"455 528 LINE",
"455 658 OFFCURVE",
"366 712 OFFCURVE",
"255 712 CURVE SMOOTH",
"124 712 OFFCURVE",
"59 637 OFFCURVE",
"59 550 CURVE SMOOTH",
"59 467 OFFCURVE",
"112 424 OFFCURVE",
"190 393 CURVE SMOOTH",
"303 348 OFFCURVE",
"464 333 OFFCURVE",
"464 179 CURVE SMOOTH",
"464 84 OFFCURVE",
"403 8 OFFCURVE",
"262 8 CURVE SMOOTH",
"106 8 OFFCURVE",
"45 102 OFFCURVE",
"47 210 CURVE",
"25 210 LINE",
"23 87 OFFCURVE",
"97 -12 OFFCURVE",
"263 -12 CURVE SMOOTH"
);
}
);
width = 511;
},
{
anchors = (
{
name = bottom;
position = "{267, 0}";
},
{
name = top;
position = "{267, 700}";
}
);
layerId = "3B8883BF-F483-4B97-AC7C-CABF8B821093";
paths = (
{
closed = 1;
nodes = (
"431 -12 OFFCURVE",
"508 83 OFFCURVE",
"508 180 CURVE SMOOTH",
"508 295 OFFCURVE",
"437 344 OFFCURVE",
"337 378 CURVE SMOOTH",
"210 421 OFFCURVE",
"123 434 OFFCURVE",
"123 530 CURVE SMOOTH",
"123 606 OFFCURVE",
"181 652 OFFCURVE",
"263 652 CURVE SMOOTH",
"364 652 OFFCURVE",
"411 582 OFFCURVE",
"411 520 CURVE",
"483 520 LINE",
"483 630 OFFCURVE",
"398 712 OFFCURVE",
"267 712 CURVE SMOOTH",
"132 712 OFFCURVE",
"50 632 OFFCURVE",
"51 522 CURVE SMOOTH",
"52 436 OFFCURVE",
"100 385 OFFCURVE",
"208 348 CURVE SMOOTH",
"328 307 OFFCURVE",
"436 295 OFFCURVE",
"436 176 CURVE SMOOTH",
"436 104 OFFCURVE",
"378 47 OFFCURVE",
"275 47 CURVE SMOOTH",
"158 47 OFFCURVE",
"98 122 OFFCURVE",
"98 210 CURVE",
"25 210 LINE",
"25 79 OFFCURVE",
"120 -12 OFFCURVE",
"275 -12 CURVE SMOOTH"
);
}
);
width = 533;
},
{
anchors = (
{
name = bottom;
position = "{269, 0}";
},
{
name = top;
position = "{269, 700}";
}
);
layerId = "F5F01D5B-AEA3-4AC3-B3D8-92550D1582D7";
paths = (
{
closed = 1;
nodes = (
"436 -12 OFFCURVE",
"513 83 OFFCURVE",
"513 186 CURVE SMOOTH",
"513 299 OFFCURVE",
"435 347 OFFCURVE",
"334 384 CURVE SMOOTH",
"204 432 OFFCURVE",
"133 451 OFFCURVE",
"133 536 CURVE SMOOTH",
"133 612 OFFCURVE",
"187 644 OFFCURVE",
"262 644 CURVE SMOOTH",
"355 643 OFFCURVE",
"403 592 OFFCURVE",
"403 518 CURVE",
"491 518 LINE",
"490 631 OFFCURVE",
"402 712 OFFCURVE",
"269 712 CURVE SMOOTH",
"133 712 OFFCURVE",
"49 634 OFFCURVE",
"49 528 CURVE SMOOTH",
"49 439 OFFCURVE",
"103 380 OFFCURVE",
"225 338 CURVE SMOOTH",
"326 304 OFFCURVE",
"431 280 OFFCURVE",
"431 176 CURVE SMOOTH",
"431 98 OFFCURVE",
"368 59 OFFCURVE",
"279 59 CURVE SMOOTH",
"166 59 OFFCURVE",
"113 128 OFFCURVE",
"113 210 CURVE",
"25 210 LINE",
"25 77 OFFCURVE",
"124 -12 OFFCURVE",
"278 -12 CURVE SMOOTH"
);
}
);
width = 538;
},
{
anchors = (
{
name = bottom;
position = "{290, 0}";
},
{
name = top;
position = "{290, 700}";
}
);
layerId = "A390C1A2-E540-434D-BB9E-4BCEE875BA63";
paths = (
{
closed = 1;
nodes = (
"463 -12 OFFCURVE",
"555 86 OFFCURVE",
"555 204 CURVE SMOOTH",
"555 337 OFFCURVE",
"458 382 OFFCURVE",
"351 418 CURVE SMOOTH",
"276 443 OFFCURVE",
"216 463 OFFCURVE",
"216 515 CURVE SMOOTH",
"216 552 OFFCURVE",
"247 570 OFFCURVE",
"284 569 CURVE SMOOTH",
"322 568 OFFCURVE",
"354 542 OFFCURVE",
"357 502 CURVE",
"542 502 LINE",
"535 636 OFFCURVE",
"432 712 OFFCURVE",
"285 712 CURVE SMOOTH",
"144 712 OFFCURVE",
"35 638 OFFCURVE",
"35 505 CURVE SMOOTH",
"35 398 OFFCURVE",
"100 341 OFFCURVE",
"208 305 CURVE SMOOTH",
"295 276 OFFCURVE",
"372 253 OFFCURVE",
"372 192 CURVE SMOOTH",
"372 150 OFFCURVE",
"339 131 OFFCURVE",
"298 131 CURVE SMOOTH",
"248 131 OFFCURVE",
"211 162 OFFCURVE",
"207 212 CURVE",
"25 212 LINE",
"30 63 OFFCURVE",
"148 -12 OFFCURVE",
"299 -12 CURVE SMOOTH"
);
}
);
width = 580;
},
{
anchors = (
{
name = bottom;
position = "{292, 0}";
},
{
name = top;
position = "{284, 700}";
}
);
color = -1;
layerId = "12552169-0282-4A31-82CC-880002E60A2C";
paths = (
{
closed = 1;
nodes = (
"450 -12 OFFCURVE",
"527 83 OFFCURVE",
"527 180 CURVE SMOOTH",
"527 295 OFFCURVE",
"456 344 OFFCURVE",
"356 378 CURVE SMOOTH",
"229 421 OFFCURVE",
"142 434 OFFCURVE",
"142 530 CURVE SMOOTH",
"142 606 OFFCURVE",
"200 652 OFFCURVE",
"282 652 CURVE SMOOTH",
"383 652 OFFCURVE",
"430 582 OFFCURVE",
"430 520 CURVE",
"502 520 LINE",
"502 630 OFFCURVE",
"417 712 OFFCURVE",
"286 712 CURVE SMOOTH",
"151 712 OFFCURVE",
"69 632 OFFCURVE",
"70 522 CURVE SMOOTH",
"71 436 OFFCURVE",
"119 385 OFFCURVE",
"227 348 CURVE SMOOTH",
"347 307 OFFCURVE",
"455 295 OFFCURVE",
"455 176 CURVE SMOOTH",
"455 104 OFFCURVE",
"397 47 OFFCURVE",
"294 47 CURVE SMOOTH",
"177 47 OFFCURVE",
"117 122 OFFCURVE",
"117 210 CURVE",
"44 210 LINE",
"44 79 OFFCURVE",
"139 -12 OFFCURVE",
"294 -12 CURVE SMOOTH"
);
}
);
width = 572;
},
{
anchors = (
{
name = bottom;
position = "{295, 0}";
},
{
name = top;
position = "{287, 700}";
}
);
color = -1;
layerId = "44982FF8-7820-4F75-948C-97259056F879";
paths = (
{
closed = 1;
nodes = (
"454 -12 OFFCURVE",
"533 83 OFFCURVE",
"533 183 CURVE SMOOTH",
"533 301 OFFCURVE",
"459 349 OFFCURVE",
"358 384 CURVE SMOOTH",
"238 424 OFFCURVE",
"155 438 OFFCURVE",
"155 528 CURVE SMOOTH",
"155 599 OFFCURVE",
"209 641 OFFCURVE",
"285 640 CURVE SMOOTH",
"377 640 OFFCURVE",
"422 576 OFFCURVE",
"422 518 CURVE",
"510 518 LINE",
"509 631 OFFCURVE",
"421 712 OFFCURVE",
"288 712 CURVE SMOOTH",
"152 712 OFFCURVE",
"67 633 OFFCURVE",
"68 520 CURVE SMOOTH",
"68 431 OFFCURVE",
"119 379 OFFCURVE",
"227 342 CURVE SMOOTH",
"342 303 OFFCURVE",
"446 289 OFFCURVE",
"446 178 CURVE SMOOTH",
"446 110 OFFCURVE",
"391 59 OFFCURVE",
"297 59 CURVE SMOOTH",
"189 59 OFFCURVE",
"132 128 OFFCURVE",
"132 210 CURVE",
"44 210 LINE",
"44 77 OFFCURVE",
"143 -12 OFFCURVE",
"297 -12 CURVE SMOOTH"
);
}
);
width = 578;
},
{
anchors = (
{
name = bottom;
position = "{314, 0}";
},
{
name = top;
position = "{306, 700}";
}
);
color = -1;
layerId = "84B0614D-4B2F-419D-B7F2-5B7DD4CAD23C";
paths = (
{
closed = 1;
nodes = (
"480 -12 OFFCURVE",
"572 86 OFFCURVE",
"572 204 CURVE SMOOTH",
"572 337 OFFCURVE",
"475 382 OFFCURVE",
"368 418 CURVE SMOOTH",
"293 443 OFFCURVE",
"233 463 OFFCURVE",
"233 515 CURVE SMOOTH",
"233 552 OFFCURVE",
"264 570 OFFCURVE",
"301 569 CURVE SMOOTH",
"339 568 OFFCURVE",
"371 542 OFFCURVE",
"374 502 CURVE",
"559 502 LINE",
"552 636 OFFCURVE",
"449 712 OFFCURVE",
"302 712 CURVE SMOOTH",
"161 712 OFFCURVE",
"52 638 OFFCURVE",
"52 505 CURVE SMOOTH",
"52 398 OFFCURVE",
"117 341 OFFCURVE",
"225 305 CURVE SMOOTH",
"312 276 OFFCURVE",
"389 253 OFFCURVE",
"389 192 CURVE SMOOTH",
"389 150 OFFCURVE",
"356 131 OFFCURVE",
"315 131 CURVE SMOOTH",
"265 131 OFFCURVE",
"228 162 OFFCURVE",
"224 212 CURVE",
"42 212 LINE",
"47 63 OFFCURVE",
"165 -12 OFFCURVE",
"316 -12 CURVE SMOOTH"
);
}
);
width = 616;
},
{
anchors = (
{
name = bottom;
position = "{275, 0}";
},
{
name = top;
position = "{275, 700}";
}
);
layerId = "90D50F69-F6F7-4633-9462-ED0440D3064F";
paths = (
{
closed = 1;
nodes = (
"433 -12 OFFCURVE",
"505 71 OFFCURVE",
"505 179 CURVE SMOOTH",
"505 274 OFFCURVE",
"449 322 OFFCURVE",
"379 354 CURVE SMOOTH",
"260 408 OFFCURVE",
"100 416 OFFCURVE",
"100 550 CURVE SMOOTH",
"100 623 OFFCURVE",
"147 692 OFFCURVE",
"274 692 CURVE SMOOTH",
"374 692 OFFCURVE",
"452 650 OFFCURVE",
"452 528 CURVE",
"474 528 LINE",
"474 658 OFFCURVE",
"385 712 OFFCURVE",
"274 712 CURVE SMOOTH",
"143 712 OFFCURVE",
"78 637 OFFCURVE",
"78 550 CURVE SMOOTH",
"78 467 OFFCURVE",
"131 424 OFFCURVE",
"209 393 CURVE SMOOTH",
"322 348 OFFCURVE",
"483 333 OFFCURVE",
"483 179 CURVE SMOOTH",
"483 84 OFFCURVE",
"422 8 OFFCURVE",
"281 8 CURVE SMOOTH",
"125 8 OFFCURVE",
"64 102 OFFCURVE",
"66 210 CURVE",
"44 210 LINE",
"42 87 OFFCURVE",
"116 -12 OFFCURVE",
"282 -12 CURVE SMOOTH"
);
}
);
width = 550;
}
);
leftKerningGroup = S;
rightKerningGroup = S;
unicode = 0053;
userData = {
com.schriftgestaltung.Glyphs.ColorIndex = 4;
com.typesupply.AccentFactory.yCoordinates = {
bottom = {
name = origin;
type = glyphMetric;
};
top = {
name = capHeight;
type = fontInfo;
};
};
};
},
{
glyphname = Germandbls;
lastChange = "2023-05-19 14:07:26 +0000";
layers = (
{
guideLines = (
{
position = "{199, 191}";
}
);
layerId = "EB62C368-BB48-47C0-A466-DA94204A0DE4";
paths = (
{
closed = 1;
nodes = (
"496 -5 OFFCURVE",
"579 87 OFFCURVE",
"579 219 CURVE SMOOTH",
"579 354 OFFCURVE",
"501 433 OFFCURVE",
"362 433 CURVE SMOOTH",
"316 433 LINE",
"543 682 LINE",
"543 700 LINE",
"187 700 LINE SMOOTH",
"103 700 OFFCURVE",
"78 664 OFFCURVE",
"78 593 CURVE SMOOTH",
"78 0 LINE",
"98 0 LINE",
"98 588 LINE SMOOTH",
"98 661 OFFCURVE",
"122 682 OFFCURVE",
"192 682 CURVE SMOOTH",
"518 682 LINE",
"292 433 LINE",
"292 415 LINE",
"362 415 LINE SMOOTH",
"484 415 OFFCURVE",
"558 349 OFFCURVE",
"558 219 CURVE SMOOTH",
"558 82 OFFCURVE",
"470 16 OFFCURVE",
"381 16 CURVE SMOOTH",
"258 16 OFFCURVE",
"209 82 OFFCURVE",
"209 191 CURVE",
"188 191 LINE",
"188 68 OFFCURVE",
"249 -5 OFFCURVE",
"381 -5 CURVE SMOOTH"
);
}
);
width = 620;
},
{
layerId = "2D111E5E-352D-4630-9162-BCEF010D26CF";
paths = (
{
closed = 1;
nodes = (
"550 -5 OFFCURVE",
"622 82 OFFCURVE",
"622 216 CURVE SMOOTH",
"622 353 OFFCURVE",
"544 433 OFFCURVE",
"387 433 CURVE SMOOTH",
"369 433 LINE",
"579 646 LINE",
"579 700 LINE",
"216 700 LINE SMOOTH",
"128 700 OFFCURVE",
"84 659 OFFCURVE",
"84 571 CURVE SMOOTH",
"84 0 LINE",
"154 0 LINE",
"154 568 LINE SMOOTH",
"154 621 OFFCURVE",
"176 641 OFFCURVE",
"229 641 CURVE SMOOTH",
"495 641 LINE",
"288 429 LINE",
"288 379 LINE",
"384 379 LINE SMOOTH",
"500 379 OFFCURVE",
"553 319 OFFCURVE",
"553 211 CURVE SMOOTH",
"553 103 OFFCURVE",
"501 54 OFFCURVE",
"417 54 CURVE SMOOTH",
"328 54 OFFCURVE",
"286 110 OFFCURVE",
"286 204 CURVE",
"217 204 LINE",
"217 68 OFFCURVE",
"286 -5 OFFCURVE",
"412 -5 CURVE SMOOTH"
);
}
);
width = 674;
},
{
layerId = "A6F5E7A4-47EF-4F55-BF18-0ACACB57A720";
paths = (
{
closed = 1;
nodes = (
"556 -5 OFFCURVE",
"634 80 OFFCURVE",
"634 215 CURVE SMOOTH",
"634 353 OFFCURVE",
"546 433 OFFCURVE",
"400 433 CURVE SMOOTH",
"381 433 LINE",
"587 636 LINE",
"587 700 LINE",
"218 700 LINE SMOOTH",
"126 700 OFFCURVE",
"77 658 OFFCURVE",
"77 562 CURVE SMOOTH",
"77 0 LINE",
"161 0 LINE",
"161 559 LINE SMOOTH",
"161 610 OFFCURVE",
"181 629 OFFCURVE",
"232 629 CURVE SMOOTH",
"483 629 LINE",
"281 428 LINE",
"281 369 LINE",
"396 369 LINE SMOOTH",
"493 369 OFFCURVE",
"552 312 OFFCURVE",
"552 209 CURVE SMOOTH",
"552 132 OFFCURVE",
"519 65 OFFCURVE",
"426 65 CURVE SMOOTH",
"337 65 OFFCURVE",
"302 127 OFFCURVE",
"302 208 CURVE",
"219 208 LINE",
"219 68 OFFCURVE",
"291 -5 OFFCURVE",
"426 -5 CURVE SMOOTH"
);
}
);
width = 683;
},
{
layerId = "1615C59E-33DE-4B88-B2CC-A48C7D56A125";
paths = (
{
closed = 1;
nodes = (
"651 -6 OFFCURVE",
"734 75 OFFCURVE",
"734 226 CURVE SMOOTH",
"733 337 OFFCURVE",
"672 430 OFFCURVE",
"550 430 CURVE SMOOTH",
"538 430 LINE",
"676 571 LINE",
"676 700 LINE",
"269 700 LINE SMOOTH",
"153 700 OFFCURVE",
"72 651 OFFCURVE",
"72 506 CURVE SMOOTH",
"72 0 LINE",
"243 0 LINE",
"243 507 LINE SMOOTH",
"243 540 OFFCURVE",
"257 554 OFFCURVE",
"295 554 CURVE SMOOTH",
"480 554 LINE",
"369 436 LINE",
"369 325 LINE",
"468 325 LINE SMOOTH",
"538 325 OFFCURVE",
"572 299 OFFCURVE",
"573 226 CURVE SMOOTH",
"573 171 OFFCURVE",
"556 136 OFFCURVE",
"509 136 CURVE SMOOTH",
"462 136 OFFCURVE",
"445 171 OFFCURVE",
"445 226 CURVE",
"278 226 LINE",
"278 75 OFFCURVE",
"361 -6 OFFCURVE",
"506 -6 CURVE SMOOTH"
);
}
);
width = 787;
},
{
layerId = "90D50F69-F6F7-4633-9462-ED0440D3064F";
paths = (
{
closed = 1;
nodes = (
"494 -5 OFFCURVE",
"577 87 OFFCURVE",
"577 219 CURVE SMOOTH",
"577 354 OFFCURVE",
"499 433 OFFCURVE",
"360 433 CURVE SMOOTH",
"314 433 LINE",
"541 682 LINE",
"541 700 LINE",
"185 700 LINE SMOOTH",
"101 700 OFFCURVE",
"76 664 OFFCURVE",
"76 593 CURVE SMOOTH",
"76 0 LINE",
"96 0 LINE",
"96 588 LINE SMOOTH",
"96 661 OFFCURVE",
"120 682 OFFCURVE",
"190 682 CURVE SMOOTH",
"516 682 LINE",
"290 433 LINE",
"290 415 LINE",
"360 415 LINE SMOOTH",
"482 415 OFFCURVE",
"556 349 OFFCURVE",
"556 219 CURVE SMOOTH",
"556 82 OFFCURVE",
"468 16 OFFCURVE",
"379 16 CURVE SMOOTH",
"256 16 OFFCURVE",
"207 82 OFFCURVE",
"207 191 CURVE",
"186 191 LINE",
"186 68 OFFCURVE",
"247 -5 OFFCURVE",
"379 -5 CURVE SMOOTH"
);
}
);
width = 622;
},
{
layerId = "12552169-0282-4A31-82CC-880002E60A2C";
paths = (
{
closed = 1;
nodes = (
"542 -5 OFFCURVE",
"614 82 OFFCURVE",
"614 216 CURVE SMOOTH",
"614 353 OFFCURVE",
"536 433 OFFCURVE",
"379 433 CURVE SMOOTH",
"361 433 LINE",
"571 646 LINE",
"571 700 LINE",
"208 700 LINE SMOOTH",
"120 700 OFFCURVE",
"76 659 OFFCURVE",
"76 571 CURVE SMOOTH",
"76 0 LINE",
"146 0 LINE",
"146 568 LINE SMOOTH",
"146 621 OFFCURVE",
"168 641 OFFCURVE",
"221 641 CURVE SMOOTH",
"487 641 LINE",
"280 429 LINE",
"280 379 LINE",
"376 379 LINE SMOOTH",
"492 379 OFFCURVE",
"545 319 OFFCURVE",
"545 211 CURVE SMOOTH",
"545 103 OFFCURVE",
"493 54 OFFCURVE",
"409 54 CURVE SMOOTH",
"320 54 OFFCURVE",
"278 110 OFFCURVE",
"278 204 CURVE",
"209 204 LINE",
"209 68 OFFCURVE",
"278 -5 OFFCURVE",
"404 -5 CURVE SMOOTH"
);
}
);
width = 659;
},
{
layerId = "44982FF8-7820-4F75-948C-97259056F879";
paths = (
{
closed = 1;
nodes = (
"553 -5 OFFCURVE",
"631 80 OFFCURVE",
"631 215 CURVE SMOOTH",
"631 353 OFFCURVE",
"543 433 OFFCURVE",
"397 433 CURVE SMOOTH",
"378 433 LINE",
"584 636 LINE",
"584 700 LINE",
"215 700 LINE SMOOTH",
"123 700 OFFCURVE",
"74 658 OFFCURVE",
"74 562 CURVE SMOOTH",
"74 0 LINE",
"158 0 LINE",
"158 559 LINE SMOOTH",
"158 610 OFFCURVE",
"178 629 OFFCURVE",
"229 629 CURVE SMOOTH",
"480 629 LINE",
"278 428 LINE",
"278 369 LINE",
"393 369 LINE SMOOTH",
"490 369 OFFCURVE",
"549 312 OFFCURVE",
"549 209 CURVE SMOOTH",
"549 132 OFFCURVE",
"516 65 OFFCURVE",
"423 65 CURVE SMOOTH",
"334 65 OFFCURVE",
"299 127 OFFCURVE",
"299 208 CURVE",
"216 208 LINE",
"216 68 OFFCURVE",
"288 -5 OFFCURVE",
"423 -5 CURVE SMOOTH"
);
}
);
width = 676;
},
{
layerId = "84B0614D-4B2F-419D-B7F2-5B7DD4CAD23C";
paths = (
{
closed = 1;
nodes = (
"641 -6 OFFCURVE",
"724 75 OFFCURVE",
"724 226 CURVE SMOOTH",
"723 337 OFFCURVE",
"662 430 OFFCURVE",
"540 430 CURVE SMOOTH",
"528 430 LINE",
"666 571 LINE",
"666 700 LINE",
"259 700 LINE SMOOTH",
"143 700 OFFCURVE",
"62 651 OFFCURVE",
"62 506 CURVE SMOOTH",
"62 0 LINE",
"233 0 LINE",
"233 507 LINE SMOOTH",
"233 540 OFFCURVE",
"247 554 OFFCURVE",
"285 554 CURVE SMOOTH",
"470 554 LINE",
"359 436 LINE",
"359 325 LINE",
"458 325 LINE SMOOTH",
"528 325 OFFCURVE",
"562 299 OFFCURVE",
"563 226 CURVE SMOOTH",
"563 171 OFFCURVE",
"546 136 OFFCURVE",
"499 136 CURVE SMOOTH",
"452 136 OFFCURVE",
"435 171 OFFCURVE",
"435 226 CURVE",
"268 226 LINE",
"268 75 OFFCURVE",
"351 -6 OFFCURVE",
"496 -6 CURVE SMOOTH"
);
}
);
width = 768;
},
{
layerId = "5D382461-81E1-4DF2-8677-8A6F02AD5363";
paths = (
{
closed = 1;
nodes = (
"463 -5 OFFCURVE",
"546 87 OFFCURVE",
"546 219 CURVE SMOOTH",
"546 354 OFFCURVE",
"468 433 OFFCURVE",
"329 433 CURVE SMOOTH",
"283 433 LINE",
"510 682 LINE",
"510 700 LINE",
"154 700 LINE SMOOTH",
"70 700 OFFCURVE",
"45 664 OFFCURVE",
"45 593 CURVE SMOOTH",
"45 0 LINE",
"65 0 LINE",
"65 588 LINE SMOOTH",
"65 661 OFFCURVE",
"89 682 OFFCURVE",
"159 682 CURVE SMOOTH",
"485 682 LINE",
"259 433 LINE",
"259 415 LINE",
"329 415 LINE SMOOTH",
"451 415 OFFCURVE",
"525 349 OFFCURVE",
"525 219 CURVE SMOOTH",
"525 82 OFFCURVE",
"437 16 OFFCURVE",
"348 16 CURVE SMOOTH",
"225 16 OFFCURVE",
"176 82 OFFCURVE",
"176 191 CURVE",
"155 191 LINE",
"155 68 OFFCURVE",
"216 -5 OFFCURVE",
"348 -5 CURVE SMOOTH"
);
}
);
width = 571;
},
{
layerId = "3B8883BF-F483-4B97-AC7C-CABF8B821093";
paths = (
{
closed = 1;
nodes = (
"511 -5 OFFCURVE",
"583 82 OFFCURVE",
"583 216 CURVE SMOOTH",
"583 353 OFFCURVE",
"505 433 OFFCURVE",
"348 433 CURVE SMOOTH",
"330 433 LINE",
"540 646 LINE",
"540 700 LINE",
"177 700 LINE SMOOTH",
"89 700 OFFCURVE",
"45 659 OFFCURVE",
"45 571 CURVE SMOOTH",
"45 0 LINE",
"115 0 LINE",
"115 568 LINE SMOOTH",
"115 621 OFFCURVE",
"137 641 OFFCURVE",
"190 641 CURVE SMOOTH",
"456 641 LINE",
"249 429 LINE",
"249 379 LINE",
"345 379 LINE SMOOTH",
"461 379 OFFCURVE",
"514 319 OFFCURVE",
"514 211 CURVE SMOOTH",
"514 103 OFFCURVE",
"462 54 OFFCURVE",
"378 54 CURVE SMOOTH",
"289 54 OFFCURVE",
"247 110 OFFCURVE",
"247 204 CURVE",
"178 204 LINE",
"178 68 OFFCURVE",
"247 -5 OFFCURVE",
"373 -5 CURVE SMOOTH"
);
}
);
width = 608;
},
{
layerId = "F5F01D5B-AEA3-4AC3-B3D8-92550D1582D7";
paths = (
{
closed = 1;
nodes = (
"524 -5 OFFCURVE",
"602 80 OFFCURVE",
"602 215 CURVE SMOOTH",
"602 353 OFFCURVE",
"514 433 OFFCURVE",
"368 433 CURVE SMOOTH",
"349 433 LINE",
"555 636 LINE",
"555 700 LINE",
"186 700 LINE SMOOTH",
"94 700 OFFCURVE",
"45 658 OFFCURVE",
"45 562 CURVE SMOOTH",
"45 0 LINE",
"129 0 LINE",
"129 559 LINE SMOOTH",
"129 610 OFFCURVE",
"149 629 OFFCURVE",
"200 629 CURVE SMOOTH",
"451 629 LINE",
"249 428 LINE",
"249 369 LINE",
"364 369 LINE SMOOTH",
"461 369 OFFCURVE",
"520 312 OFFCURVE",
"520 209 CURVE SMOOTH",
"520 132 OFFCURVE",
"487 65 OFFCURVE",
"394 65 CURVE SMOOTH",
"305 65 OFFCURVE",
"270 127 OFFCURVE",
"270 208 CURVE",
"187 208 LINE",
"187 68 OFFCURVE",
"259 -5 OFFCURVE",
"394 -5 CURVE SMOOTH"
);
}
);
width = 627;
},
{
layerId = "A390C1A2-E540-434D-BB9E-4BCEE875BA63";
paths = (
{
closed = 1;
nodes = (
"624 -6 OFFCURVE",
"707 75 OFFCURVE",
"707 226 CURVE SMOOTH",
"706 337 OFFCURVE",
"645 430 OFFCURVE",
"523 430 CURVE SMOOTH",
"511 430 LINE",
"649 571 LINE",
"649 700 LINE",
"242 700 LINE SMOOTH",
"126 700 OFFCURVE",
"45 651 OFFCURVE",
"45 506 CURVE SMOOTH",
"45 0 LINE",
"216 0 LINE",
"216 507 LINE SMOOTH",
"216 540 OFFCURVE",
"230 554 OFFCURVE",
"268 554 CURVE SMOOTH",
"453 554 LINE",
"342 436 LINE",
"342 325 LINE",
"441 325 LINE SMOOTH",
"511 325 OFFCURVE",
"545 299 OFFCURVE",
"546 226 CURVE SMOOTH",
"546 171 OFFCURVE",
"529 136 OFFCURVE",
"482 136 CURVE SMOOTH",
"435 136 OFFCURVE",
"418 171 OFFCURVE",
"418 226 CURVE",
"251 226 LINE",
"251 75 OFFCURVE",
"334 -6 OFFCURVE",
"479 -6 CURVE SMOOTH"
);
}
);
width = 732;
}
);
leftMetricsKey = F;
rightMetricsKey = S;
unicode = 1E9E;
},
{
glyphname = Schwa;
lastChange = "2023-05-19 14:07:26 +0000";
layers = (
{
layerId = "EB62C368-BB48-47C0-A466-DA94204A0DE4";
paths = (
{
closed = 1;
nodes = (
"503 -12 OFFCURVE",
"622 110 OFFCURVE",
"622 348 CURVE SMOOTH",
"622 561 OFFCURVE",
"516 711 OFFCURVE",
"338 711 CURVE SMOOTH",
"180 711 OFFCURVE",
"101 630 OFFCURVE",
"65 514 CURVE",
"89 514 LINE",
"126 632 OFFCURVE",
"205 690 OFFCURVE",
"338 690 CURVE SMOOTH",
"473 690 OFFCURVE",
"598 582 OFFCURVE",
"598 353 CURVE SMOOTH",
"598 341 LINE SMOOTH",
"598 101 OFFCURVE",
"468 9 OFFCURVE",
"338 9 CURVE SMOOTH",
"177 9 OFFCURVE",
"69 105 OFFCURVE",
"69 335 CURVE",
"607 335 LINE",
"607 356 LINE",
"48 356 LINE",
"47 341 OFFCURVE",
"47 338 OFFCURVE",
"47 323 CURVE SMOOTH",
"47 125 OFFCURVE",
"138 -12 OFFCURVE",
"338 -12 CURVE SMOOTH"
);
}
);
width = 669;
},
{
layerId = "A6F5E7A4-47EF-4F55-BF18-0ACACB57A720";
paths = (
{
closed = 1;
nodes = (
"530 -12 OFFCURVE",
"655 126 OFFCURVE",
"655 350 CURVE SMOOTH",
"655 565 OFFCURVE",
"533 712 OFFCURVE",
"349 712 CURVE SMOOTH",
"194 712 OFFCURVE",
"100 627 OFFCURVE",
"66 513 CURVE",
"158 513 LINE",
"186 603 OFFCURVE",
"242 646 OFFCURVE",
"349 646 CURVE SMOOTH",
"466 646 OFFCURVE",
"566 553 OFFCURVE",
"566 356 CURVE SMOOTH",
"566 325 LINE SMOOTH",
"566 135 OFFCURVE",
"465 54 OFFCURVE",
"350 54 CURVE SMOOTH",
"227 54 OFFCURVE",
"140 131 OFFCURVE",
"138 303 CURVE",
"588 303 LINE",
"588 372 LINE",
"50 372 LINE",
"49 350 OFFCURVE",
"49 334 OFFCURVE",
"49 318 CURVE SMOOTH",
"49 135 OFFCURVE",
"146 -12 OFFCURVE",
"348 -12 CURVE SMOOTH"
);
}
);
width = 704;
},
{
layerId = "1615C59E-33DE-4B88-B2CC-A48C7D56A125";
paths = (
{
closed = 1;
nodes = (
"597 -12 OFFCURVE",
"732 147 OFFCURVE",
"732 360 CURVE SMOOTH",
"732 567 OFFCURVE",
"594 712 OFFCURVE",
"385 712 CURVE SMOOTH",
"228 712 OFFCURVE",
"107 616 OFFCURVE",
"66 493 CURVE",
"298 493 LINE",
"316 514 OFFCURVE",
"342 530 OFFCURVE",
"387 530 CURVE SMOOTH",
"477 530 OFFCURVE",
"510 466 OFFCURVE",
"510 387 CURVE SMOOTH",
"510 347 LINE SMOOTH",
"510 225 OFFCURVE",
"459 167 OFFCURVE",
"384 167 CURVE SMOOTH",
"322 167 OFFCURVE",
"278 212 OFFCURVE",
"276 281 CURVE",
"574 281 LINE",
"574 406 LINE",
"52 406 LINE",
"49 384 OFFCURVE",
"48 360 OFFCURVE",
"48 342 CURVE SMOOTH",
"48 133 OFFCURVE",
"178 -12 OFFCURVE",
"386 -12 CURVE SMOOTH"
);
}
);
width = 780;
},
{
layerId = "2D111E5E-352D-4630-9162-BCEF010D26CF";
paths = (
{
closed = 1;
nodes = (
"534 -12 OFFCURVE",
"659 126 OFFCURVE",
"659 350 CURVE SMOOTH",
"659 566 OFFCURVE",
"537 712 OFFCURVE",
"352 712 CURVE SMOOTH",
"197 712 OFFCURVE",
"103 628 OFFCURVE",
"69 513 CURVE",
"146 513 LINE",
"176 606 OFFCURVE",
"248 648 OFFCURVE",
"352 648 CURVE SMOOTH",
"484 648 OFFCURVE",
"583 556 OFFCURVE",
"583 357 CURVE SMOOTH",
"583 325 LINE SMOOTH",
"583 149 OFFCURVE",
"475 51 OFFCURVE",
"354 51 CURVE SMOOTH",
"230 51 OFFCURVE",
"127 129 OFFCURVE",
"126 306 CURVE",
"592 306 LINE",
"592 372 LINE",
"53 372 LINE",
"52 349 OFFCURVE",
"52 340 OFFCURVE",
"52 319 CURVE SMOOTH",
"52 135 OFFCURVE",
"149 -12 OFFCURVE",
"351 -12 CURVE SMOOTH"
);
}
);
width = 711;
},
{
layerId = "5D382461-81E1-4DF2-8677-8A6F02AD5363";
paths = (
{
closed = 1;
nodes = (
"517 -12 OFFCURVE",
"646 118 OFFCURVE",
"646 342 CURVE SMOOTH",
"646 567 OFFCURVE",
"535 712 OFFCURVE",
"336 712 CURVE SMOOTH",
"183 712 OFFCURVE",
"95 626 OFFCURVE",
"53 503 CURVE",
"77 503 LINE",
"120 624 OFFCURVE",
"209 691 OFFCURVE",
"336 691 CURVE SMOOTH",
"489 691 OFFCURVE",
"622 587 OFFCURVE",
"622 344 CURVE SMOOTH",
"622 335 LINE SMOOTH",
"622 109 OFFCURVE",
"476 10 OFFCURVE",
"333 10 CURVE SMOOTH",
"175 10 OFFCURVE",
"58 114 OFFCURVE",
"58 328 CURVE",
"631 328 LINE",
"631 350 LINE",
"36 350 LINE",
"35 334 OFFCURVE",
"35 327 OFFCURVE",
"35 311 CURVE SMOOTH",
"35 142 OFFCURVE",
"128 -12 OFFCURVE",
"332 -12 CURVE SMOOTH"
);
}
);
width = 681;
},
{
layerId = "3B8883BF-F483-4B97-AC7C-CABF8B821093";
paths = (
{
closed = 1;
nodes = (
"555 -12 OFFCURVE",
"691 132 OFFCURVE",
"691 345 CURVE SMOOTH",
"691 566 OFFCURVE",
"556 712 OFFCURVE",
"360 712 CURVE SMOOTH",
"201 712 OFFCURVE",
"80 622 OFFCURVE",
"39 481 CURVE",
"119 481 LINE",
"150 586 OFFCURVE",
"245 648 OFFCURVE",
"360 648 CURVE SMOOTH",
"507 648 OFFCURVE",
"615 539 OFFCURVE",
"615 357 CURVE SMOOTH",
"615 320 LINE SMOOTH",
"615 148 OFFCURVE",
"503 51 OFFCURVE",
"357 51 CURVE SMOOTH",
"205 51 OFFCURVE",
"106 152 OFFCURVE",
"108 306 CURVE",
"630 306 LINE",
"630 372 LINE",
"37 372 LINE",
"35 351 OFFCURVE",
"35 332 OFFCURVE",
"35 313 CURVE SMOOTH",
"35 107 OFFCURVE",
"166 -12 OFFCURVE",
"355 -12 CURVE SMOOTH"
);
}
);
width = 726;
},
{
layerId = "F5F01D5B-AEA3-4AC3-B3D8-92550D1582D7";
paths = (
{
closed = 1;
nodes = (
"561 -12 OFFCURVE",
"696 132 OFFCURVE",
"696 346 CURVE SMOOTH",
"696 566 OFFCURVE",
"560 712 OFFCURVE",
"363 712 CURVE SMOOTH",
"202 712 OFFCURVE",
"81 620 OFFCURVE",
"40 479 CURVE",
"135 479 LINE",
"165 577 OFFCURVE",
"254 636 OFFCURVE",
"363 636 CURVE SMOOTH",
"503 636 OFFCURVE",
"606 533 OFFCURVE",
"606 360 CURVE SMOOTH",
"606 318 LINE SMOOTH",
"606 156 OFFCURVE",
"499 64 OFFCURVE",
"360 64 CURVE SMOOTH",
"216 64 OFFCURVE",
"121 159 OFFCURVE",
"123 303 CURVE",
"622 303 LINE",
"622 375 LINE",
"38 375 LINE",
"36 354 OFFCURVE",
"35 335 OFFCURVE",
"35 316 CURVE SMOOTH",
"35 109 OFFCURVE",
"169 -12 OFFCURVE",
"360 -12 CURVE SMOOTH"
);
}
);
width = 731;
},
{
layerId = "A390C1A2-E540-434D-BB9E-4BCEE875BA63";
paths = (
{
closed = 1;
nodes = (
"587 -12 OFFCURVE",
"725 132 OFFCURVE",
"725 350 CURVE SMOOTH",
"725 569 OFFCURVE",
"585 712 OFFCURVE",
"378 712 CURVE SMOOTH",
"208 712 OFFCURVE",
"84 611 OFFCURVE",
"46 468 CURVE",
"232 468 LINE",
"253 524 OFFCURVE",
"310 558 OFFCURVE",
"380 558 CURVE SMOOTH",
"474 558 OFFCURVE",
"548 493 OFFCURVE",
"548 381 CURVE SMOOTH",
"548 306 LINE SMOOTH",
"548 203 OFFCURVE",
"469 145 OFFCURVE",
"376 145 CURVE SMOOTH",
"283 145 OFFCURVE",
"215 200 OFFCURVE",
"211 282 CURVE",
"571 282 LINE",
"571 397 LINE",
"39 397 LINE",
"37 376 OFFCURVE",
"35 354 OFFCURVE",
"35 335 CURVE SMOOTH",
"35 118 OFFCURVE",
"173 -12 OFFCURVE",
"379 -12 CURVE SMOOTH"
);
}
);
width = 760;
},
{
color = -1;
layerId = "12552169-0282-4A31-82CC-880002E60A2C";
paths = (
{
closed = 1;
nodes = (
"570 -12 OFFCURVE",
"704 132 OFFCURVE",
"704 345 CURVE SMOOTH",
"704 565 OFFCURVE",
"569 712 OFFCURVE",
"373 712 CURVE SMOOTH",
"214 712 OFFCURVE",
"93 621 OFFCURVE",
"52 481 CURVE",
"132 481 LINE",
"164 586 OFFCURVE",
"258 648 OFFCURVE",
"373 648 CURVE SMOOTH",
"520 648 OFFCURVE",
"628 539 OFFCURVE",
"628 357 CURVE SMOOTH",
"628 320 LINE SMOOTH",
"628 149 OFFCURVE",
"516 51 OFFCURVE",
"370 51 CURVE SMOOTH",
"218 51 OFFCURVE",
"118 152 OFFCURVE",
"121 306 CURVE",
"643 306 LINE",
"643 371 LINE",
"51 371 LINE",
"49 351 OFFCURVE",
"48 332 OFFCURVE",
"48 313 CURVE SMOOTH",
"48 107 OFFCURVE",
"181 -12 OFFCURVE",
"370 -12 CURVE SMOOTH"
);
}
);
width = 752;
},
{
color = -1;
layerId = "44982FF8-7820-4F75-948C-97259056F879";
paths = (
{
closed = 1;
nodes = (
"573 -12 OFFCURVE",
"708 132 OFFCURVE",
"708 346 CURVE SMOOTH",
"708 566 OFFCURVE",
"572 712 OFFCURVE",
"375 712 CURVE SMOOTH",
"214 712 OFFCURVE",
"93 620 OFFCURVE",
"52 479 CURVE",
"147 479 LINE",
"177 577 OFFCURVE",
"266 636 OFFCURVE",
"375 636 CURVE SMOOTH",
"515 636 OFFCURVE",
"618 533 OFFCURVE",
"618 360 CURVE SMOOTH",
"618 318 LINE SMOOTH",
"618 156 OFFCURVE",
"511 64 OFFCURVE",
"372 64 CURVE SMOOTH",
"228 64 OFFCURVE",
"133 159 OFFCURVE",
"135 303 CURVE",
"634 303 LINE",
"634 375 LINE",
"50 375 LINE",
"48 354 OFFCURVE",
"47 335 OFFCURVE",
"47 316 CURVE SMOOTH",
"47 109 OFFCURVE",
"181 -12 OFFCURVE",
"372 -12 CURVE SMOOTH"
);
}
);
width = 755;
},
{
color = -1;
layerId = "84B0614D-4B2F-419D-B7F2-5B7DD4CAD23C";
paths = (
{
closed = 1;
nodes = (
"595 -12 OFFCURVE",
"733 132 OFFCURVE",
"733 350 CURVE SMOOTH",
"733 569 OFFCURVE",
"593 712 OFFCURVE",
"386 712 CURVE SMOOTH",
"216 712 OFFCURVE",
"92 611 OFFCURVE",
"54 468 CURVE",
"240 468 LINE",
"261 524 OFFCURVE",
"318 558 OFFCURVE",
"388 558 CURVE SMOOTH",
"482 558 OFFCURVE",
"556 493 OFFCURVE",
"556 381 CURVE SMOOTH",
"556 306 LINE SMOOTH",
"556 203 OFFCURVE",
"477 145 OFFCURVE",
"384 145 CURVE SMOOTH",
"291 145 OFFCURVE",
"223 200 OFFCURVE",
"219 282 CURVE",
"579 282 LINE",
"579 397 LINE",
"47 397 LINE",
"45 376 OFFCURVE",
"43 354 OFFCURVE",
"43 335 CURVE SMOOTH",
"43 118 OFFCURVE",
"181 -12 OFFCURVE",
"387 -12 CURVE SMOOTH"
);
}
);
width = 776;
},
{
layerId = "90D50F69-F6F7-4633-9462-ED0440D3064F";
paths = (
{
closed = 1;
nodes = (
"530 -12 OFFCURVE",
"659 118 OFFCURVE",
"659 342 CURVE SMOOTH",
"659 567 OFFCURVE",
"548 712 OFFCURVE",
"349 712 CURVE SMOOTH",
"196 712 OFFCURVE",
"108 626 OFFCURVE",
"66 503 CURVE",
"90 503 LINE",
"133 624 OFFCURVE",
"222 691 OFFCURVE",
"349 691 CURVE SMOOTH",
"502 691 OFFCURVE",
"635 587 OFFCURVE",
"635 344 CURVE SMOOTH",
"635 335 LINE SMOOTH",
"635 109 OFFCURVE",
"489 10 OFFCURVE",
"346 10 CURVE SMOOTH",
"188 10 OFFCURVE",
"71 114 OFFCURVE",
"71 328 CURVE",
"644 328 LINE",
"644 350 LINE",
"49 350 LINE",
"48 334 OFFCURVE",
"48 327 OFFCURVE",
"48 311 CURVE SMOOTH",
"48 142 OFFCURVE",
"141 -12 OFFCURVE",
"345 -12 CURVE SMOOTH"
);
}
);
width = 707;
}
);
leftMetricsKey = O;
rightKerningGroup = O;
rightMetricsKey = O;
unicode = 018F;
},
